<?xml version="1.0" encoding="UTF-8" standalone="no"?>
<!-- Generator: Adobe Illustrator 19.2.1, SVG Export Plug-In . SVG Version: 6.00 Build 0)  -->

<svg
   xmlns:dc="http://purl.org/dc/elements/1.1/"
   xmlns:cc="http://creativecommons.org/ns#"
   xmlns:rdf="http://www.w3.org/1999/02/22-rdf-syntax-ns#"
   xmlns:svg="http://www.w3.org/2000/svg"
   xmlns="http://www.w3.org/2000/svg"
   xmlns:sodipodi="http://sodipodi.sourceforge.net/DTD/sodipodi-0.dtd"
   xmlns:inkscape="http://www.inkscape.org/namespaces/inkscape"
   version="1.1"
   id="svg2163"
   inkscape:output_extension="org.inkscape.output.svg.inkscape"
   inkscape:version="0.92.1 r15371"
   sodipodi:docname="Atomwaffen Division.svg"
   sodipodi:modified="true"
   sodipodi:version="0.32"
   x="0px"
   y="0px"
   viewBox="0 0 533.16595 645.91193"
   xml:space="preserve"
   width="533.16595"
   height="645.91193"><metadata
     id="metadata17"><rdf:RDF><cc:Work
         rdf:about=""><dc:format>image/svg+xml</dc:format><dc:type
           rdf:resource="http://purl.org/dc/dcmitype/StillImage" /><dc:title></dc:title></cc:Work></rdf:RDF></metadata><defs
     id="defs15" /><sodipodi:namedview
     pagecolor="#ffffff"
     bordercolor="#666666"
     borderopacity="1"
     objecttolerance="10"
     gridtolerance="10"
     guidetolerance="10"
     inkscape:pageopacity="0"
     inkscape:pageshadow="2"
     inkscape:window-width="1366"
     inkscape:window-height="705"
     id="namedview13"
     showgrid="false"
     inkscape:snap-bbox="true"
     inkscape:snap-bbox-midpoints="true"
     inkscape:zoom="0.50722553"
     inkscape:cx="607.92697"
     inkscape:cy="231.84374"
     inkscape:window-x="-8"
     inkscape:window-y="-8"
     inkscape:window-maximized="1"
     inkscape:current-layer="svg2163" /><style
     type="text/css"
     id="style2">
	.st0{fill:#F9F9F9;stroke:#000000;}
	.st1{stroke:#000000;}
	.st2{fill:#FFFFFF;}
</style><g
     id="g6"
     transform="translate(-7.2197835,-7.1)"><path
       id="path2308"
       class="st0"
       d="m 7.9,9.5 c 0.8,134 -1.6,268 1.3,402 9.1,64.2 48.9,120.4 99.1,159.8 48.4,37.6 103.7,67.4 163.6,81.2 49.6,-10.4 93.7,-36.9 136.3,-63.1 50.9,-34 97.3,-79.1 119.9,-137 12.2,-32.4 11.87722,-66.82871 11.69703,-101.91287 -0.1,-74.9 0.0887,-149.76391 0.0887,-224.66391 C 490.88575,128.12322 443.9,97 420.7,55.1 412.3,40.5 407.7,24.3 405.9,7.6 H 7.8 v 1 0.9 z"
       inkscape:connector-curvature="0"
       style="fill:#f9f9f9;stroke:#000000"
       sodipodi:nodetypes="cccccccccccccc" /><path
       id="rect2245"
       class="st1"
       d="m 25.9,25.5 v 373.8 c 11.2,122.3 136,202.4 243.4,235.3 22.1,0 243.3,-86 251.9,-235.4 L 520.9,143 c -9.1,-0.6 -18.6,-2.5 -28.5,-5.8 C 441.9,120.6 399.8,73 390.6,25.5 Z"
       inkscape:connector-curvature="0"
       style="stroke:#000000" /></g><g
     id="g4533"
     transform="matrix(1.2967919,0,0,1.2945267,906.25672,-166.63787)"
     style="fill:#ffffff"><path
       id="path4499"
       d="m -513.5,403.67797 -46.8,81.1 c 42.6,24.6 91.1,24.6 133.7,0 l -46.8,-81.1 c -0.3,0.2 -0.6,0.4 -0.9,0.6 -1.1,0.6 -2.3,1.2 -3.5,1.7 -1.2,0.5 -2.4,1 -3.7,1.4 -1.3,0.4 -2.5,0.7 -3.8,1 -1.3,0.3 -2.6,0.5 -4,0.6 -1.3,0.1 -2.7,0.2 -4.1,0.2 -1.4,0 -2.7,-0.1 -4.1,-0.2 -1.3,-0.1 -2.7,-0.3 -4,-0.6 -1.3,-0.3 -2.6,-0.6 -3.8,-1 -1.3,-0.4 -2.5,-0.8 -3.7,-1.4 -1.2,-0.5 -2.4,-1.1 -3.5,-1.7 -0.4,-0.2 -0.7,-0.4 -1,-0.6 z"
       inkscape:connector-curvature="0"
       style="fill:#ffffff" /><path
       id="path4501"
       d="m -560.3,253.17797 c -42.6,24.6 -66.8,66.6 -66.8,115.8 h 93.6 c 0,-1.4 0.1,-2.8 0.2,-4.1 0.1,-1.3 0.4,-2.7 0.6,-4 0.3,-1.3 0.6,-2.6 1,-3.8 0.4,-1.3 0.8,-2.5 1.4,-3.7 0.5,-1.2 1.1,-2.4 1.7,-3.5 0.6,-1.1 1.3,-2.2 2,-3.3 0.7,-1.1 1.5,-2.1 2.3,-3.1 0.8,-1 1.7,-1.9 2.6,-2.8 0.9,-0.9 1.9,-1.8 2.9,-2.6 1,-0.8 2,-1.6 3.1,-2.3 0.8,-0.5 1.6,-1 2.4,-1.5 z"
       inkscape:connector-curvature="0"
       style="fill:#ffffff" /><path
       id="path4503"
       d="m -426.6,253.17797 -46.8,81.1 c 0.8,0.5 1.6,0.9 2.4,1.5 1.1,0.7 2.1,1.5 3.1,2.3 1,0.8 1.9,1.7 2.9,2.6 0.9,0.9 1.8,1.9 2.6,2.8 0.8,1 1.6,2 2.3,3.1 0.7,1.1 1.4,2.2 2,3.3 0.6,1.1 1.2,2.3 1.7,3.5 0.5,1.2 1,2.4 1.4,3.7 0.4,1.3 0.7,2.5 1,3.8 0.3,1.3 0.5,2.6 0.6,4 0.1,1.3 0.2,2.7 0.2,4.1 h 93.6 c -0.2,-49.2 -24.4,-91.2 -67,-115.8 z"
       inkscape:connector-curvature="0"
       style="fill:#ffffff" /><circle
       id="circle4505"
       r="26.700001"
       cy="368.97797"
       cx="-493.5"
       style="fill:#ffffff" /></g></svg>