<?xml version="1.0" encoding="utf-8"?>
<!-- Generator: Adobe Illustrator 21.1.0, SVG Export Plug-In . SVG Version: 6.00 Build 0)  -->
<svg version="1.1" id="Layer_1" xmlns="http://www.w3.org/2000/svg" xmlns:xlink="http://www.w3.org/1999/xlink" x="0px" y="0px"
	 viewBox="0 0 145.08 63.52" style="enable-background:new 0 0 145.08 63.52;" xml:space="preserve">
<style type="text/css">
	.st0{fill:#FFFFFF;}
	.st1{fill:#0DB14B;}
	.st2{fill:#EF4135;}
</style>
<rect x="1.51" y="3.82" transform="matrix(0.9986 -0.0523 0.0523 0.9986 -1.5629 3.8399)" class="st0" width="142.06" height="55.88"/>
<polygon class="st1" points="21.52,50.63 21.52,45.78 23.88,45.78 23.88,46.38 22.42,46.38 22.42,47.85 23.72,47.85 23.72,48.44 
	22.42,48.44 22.42,50.03 23.88,50.03 23.88,50.63 "/>
<path class="st1" d="M25.68,49.04c0.07,0.7,0.41,1.06,1.03,1.06c0.44,0,0.75-0.11,0.96-0.21l0.21,0.54
	c-0.27,0.15-0.68,0.27-1.25,0.27c-1.08,0-1.76-0.7-1.76-1.98c0-1.24,0.63-1.96,1.62-1.96c1.01,0,1.55,0.67,1.52,1.94L25.68,49.04z
	 M26.46,47.29c-0.5,0-0.84,0.41-0.82,1.32l1.57-0.24C27.2,47.6,26.93,47.29,26.46,47.29"/>
<path class="st1" d="M30.8,47.4c-0.29-0.1-0.61-0.08-0.8,0.03v3.2h-0.86v-3.59c0.39-0.19,0.87-0.3,1.83-0.27L30.8,47.4z"/>
<path class="st1" d="M32.7,50.69c-0.44,0-0.82-0.12-1.05-0.27l0.22-0.55c0.14,0.11,0.4,0.22,0.71,0.22c0.35,0,0.58-0.23,0.58-0.53
	c0-0.32-0.17-0.48-0.56-0.63c-0.72-0.28-0.87-0.67-0.87-1.06c0-0.61,0.48-1.1,1.2-1.1c0.42,0,0.74,0.11,0.99,0.27l-0.21,0.5
	c-0.11-0.09-0.34-0.21-0.6-0.21c-0.35,0-0.54,0.23-0.54,0.5c0,0.31,0.23,0.46,0.56,0.6c0.74,0.3,0.91,0.68,0.91,1.12
	C34.05,50.15,33.53,50.69,32.7,50.69"/>
<path class="st1" d="M36.41,50.67c-0.75,0-1.04-0.5-1.04-1.03v-2.26h-0.42v-0.55h0.42V46l0.86-0.24v1.08h0.62v0.55h-0.62v2.22
	c0,0.3,0.12,0.49,0.42,0.49c0.08,0,0.13-0.01,0.2-0.04v0.54C36.77,50.63,36.62,50.67,36.41,50.67"/>
<path class="st1" d="M41.81,50.7c-1.12,0-1.77-0.72-1.77-1.92c0-1.24,0.68-1.98,1.66-1.98c0.21,0,0.4,0.02,0.57,0.07V45.1h0.86v5.32
	C42.83,50.59,42.4,50.7,41.81,50.7 M42.28,47.33c-0.12-0.03-0.25-0.05-0.38-0.05c-0.75,0-1,0.64-1,1.44c0,0.86,0.27,1.42,0.94,1.42
	c0.2,0,0.34-0.02,0.44-0.08V47.33z"/>
<path class="st1" d="M45.08,49.04c0.07,0.7,0.41,1.06,1.03,1.06c0.44,0,0.75-0.11,0.96-0.21l0.21,0.54
	c-0.27,0.15-0.68,0.27-1.25,0.27c-1.08,0-1.76-0.7-1.76-1.98c0-1.24,0.63-1.96,1.62-1.96c1.01,0,1.56,0.67,1.52,1.94L45.08,49.04z
	 M45.85,47.29c-0.5,0-0.84,0.41-0.82,1.32l1.57-0.24C46.6,47.6,46.32,47.29,45.85,47.29"/>
<path class="st1" d="M55.06,50.63v-2.69c0-0.33-0.18-0.62-0.64-0.62c-0.26,0-0.46,0.08-0.63,0.26v3.05h-0.86v-2.72
	c0-0.37-0.25-0.6-0.71-0.6c-0.25,0-0.39,0.03-0.56,0.11v3.22H50.8v-3.59c0.38-0.18,0.79-0.27,1.42-0.27c0.61,0,0.96,0.18,1.18,0.41
	c0.25-0.23,0.64-0.41,1.22-0.41c0.9,0,1.3,0.56,1.3,1.16v2.7H55.06z"/>
<path class="st1" d="M57.86,49.04c0.07,0.7,0.41,1.06,1.03,1.06c0.44,0,0.75-0.11,0.96-0.21l0.2,0.54
	c-0.27,0.15-0.67,0.27-1.25,0.27c-1.08,0-1.76-0.7-1.76-1.98c0-1.24,0.63-1.96,1.62-1.96c1.01,0,1.55,0.67,1.52,1.94L57.86,49.04z
	 M58.64,47.29c-0.5,0-0.84,0.41-0.82,1.32l1.57-0.24C59.38,47.6,59.11,47.29,58.64,47.29"/>
<path class="st1" d="M63.45,50.63v-2.69c0-0.31-0.14-0.63-0.68-0.63c-0.28,0-0.43,0.04-0.59,0.11v3.22h-0.86v-3.59
	c0.36-0.17,0.84-0.27,1.48-0.27c1.13,0,1.51,0.55,1.51,1.16v2.7H63.45z"/>
<path class="st1" d="M66.39,50.69c-0.44,0-0.82-0.12-1.05-0.27l0.22-0.55c0.14,0.11,0.4,0.22,0.71,0.22c0.35,0,0.58-0.23,0.58-0.53
	c0-0.32-0.17-0.48-0.56-0.63c-0.72-0.28-0.87-0.67-0.87-1.06c0-0.61,0.48-1.1,1.2-1.1c0.42,0,0.74,0.11,0.99,0.27l-0.21,0.5
	c-0.11-0.09-0.34-0.21-0.6-0.21c-0.35,0-0.54,0.23-0.54,0.5c0,0.31,0.23,0.46,0.56,0.6c0.74,0.3,0.91,0.68,0.91,1.12
	C67.74,50.15,67.22,50.69,66.39,50.69"/>
<path class="st1" d="M69.52,49.04c0.07,0.7,0.41,1.06,1.03,1.06c0.44,0,0.75-0.11,0.96-0.21l0.21,0.54
	c-0.27,0.15-0.68,0.27-1.25,0.27c-1.08,0-1.76-0.7-1.76-1.98c0-1.24,0.63-1.96,1.62-1.96c1.01,0,1.56,0.67,1.52,1.94L69.52,49.04z
	 M70.3,47.29c-0.5,0-0.84,0.41-0.82,1.32l1.57-0.24C71.04,47.6,70.77,47.29,70.3,47.29"/>
<path class="st1" d="M75.11,50.63v-2.69c0-0.31-0.14-0.63-0.68-0.63c-0.28,0-0.43,0.04-0.59,0.11v3.22h-0.86v-3.59
	c0.36-0.17,0.84-0.27,1.48-0.27c1.13,0,1.51,0.55,1.51,1.16v2.7H75.11z"/>
<path class="st1" d="M77.33,51.82h-0.51l0.63-1.89c0.11-0.14,0.28-0.25,0.53-0.25c0.24,0,0.34,0.11,0.37,0.25L77.33,51.82z"/>
<path class="st1" d="M83.97,50.63v-2.69c0-0.31-0.14-0.63-0.68-0.63c-0.28,0-0.43,0.04-0.59,0.11v3.22h-0.86v-3.59
	c0.36-0.17,0.84-0.27,1.48-0.27c1.13,0,1.51,0.55,1.51,1.16v2.7H83.97z"/>
<path class="st1" d="M86.55,46.18c-0.26,0-0.47-0.19-0.47-0.42c0-0.24,0.21-0.43,0.47-0.43c0.27,0,0.47,0.19,0.47,0.43
	C87.02,45.99,86.82,46.18,86.55,46.18 M86.12,46.83h0.86v3.79h-0.86V46.83z"/>
<path class="st1" d="M88.95,49.04c0.07,0.7,0.41,1.06,1.03,1.06c0.44,0,0.75-0.11,0.96-0.21l0.21,0.54
	c-0.27,0.15-0.68,0.27-1.25,0.27c-1.08,0-1.76-0.7-1.76-1.98c0-1.24,0.63-1.96,1.62-1.96c1.01,0,1.55,0.67,1.52,1.94L88.95,49.04z
	 M89.73,47.29c-0.5,0-0.84,0.41-0.82,1.32l1.57-0.24C90.47,47.6,90.2,47.29,89.73,47.29"/>
<path class="st1" d="M93.67,50.67c-0.75,0-1.04-0.5-1.04-1.03v-2.26H92.2v-0.55h0.42V46l0.86-0.24v1.08h0.62v0.55h-0.62v2.22
	c0,0.3,0.12,0.49,0.42,0.49c0.08,0,0.13-0.01,0.2-0.04v0.54C94.03,50.63,93.87,50.67,93.67,50.67"/>
<path class="st1" d="M99.06,50.7c-1.12,0-1.77-0.72-1.77-1.92c0-1.24,0.68-1.98,1.66-1.98c0.21,0,0.4,0.02,0.57,0.07V45.1h0.86v5.32
	C100.08,50.59,99.66,50.7,99.06,50.7 M99.53,47.33c-0.12-0.03-0.25-0.05-0.38-0.05c-0.75,0-1,0.64-1,1.44
	c0,0.86,0.27,1.42,0.94,1.42c0.2,0,0.34-0.02,0.44-0.08V47.33z"/>
<path class="st1" d="M102.33,49.04c0.07,0.7,0.41,1.06,1.04,1.06c0.44,0,0.75-0.11,0.96-0.21l0.21,0.54
	c-0.27,0.15-0.68,0.27-1.25,0.27c-1.08,0-1.76-0.7-1.76-1.98c0-1.24,0.63-1.96,1.62-1.96c1.01,0,1.55,0.67,1.52,1.94L102.33,49.04z
	 M103.1,47.29c-0.5,0-0.84,0.41-0.82,1.32l1.57-0.24C103.85,47.6,103.58,47.29,103.1,47.29"/>
<path class="st1" d="M111.89,50.63h-0.77l-0.66-2.38c-0.07-0.25-0.08-0.48-0.08-0.48h-0.01c0,0-0.01,0.24-0.08,0.48l-0.67,2.38
	h-0.77l-1.06-3.79h0.87l0.56,2.46c0.06,0.29,0.07,0.5,0.07,0.5h0.01c0,0,0.02-0.21,0.1-0.5l0.67-2.46h0.72l0.64,2.46
	c0.06,0.24,0.09,0.5,0.09,0.5h0.01c0,0,0.02-0.26,0.08-0.51l0.58-2.45h0.76L111.89,50.63z"/>
<path class="st1" d="M114.4,46.18c-0.26,0-0.47-0.19-0.47-0.42c0-0.24,0.21-0.43,0.47-0.43c0.27,0,0.47,0.19,0.47,0.43
	C114.87,45.99,114.66,46.18,114.4,46.18 M113.97,46.83h0.86v3.79h-0.86V46.83z"/>
<path class="st1" d="M118.25,50.63v-2.69c0-0.31-0.14-0.63-0.68-0.63c-0.28,0-0.43,0.04-0.59,0.11v3.22h-0.86v-3.59
	c0.36-0.17,0.84-0.27,1.48-0.27c1.13,0,1.51,0.55,1.51,1.16v2.7H118.25z"/>
<path class="st1" d="M121.2,50.69c-0.44,0-0.82-0.12-1.05-0.27l0.22-0.55c0.14,0.11,0.4,0.22,0.71,0.22c0.35,0,0.58-0.23,0.58-0.53
	c0-0.32-0.17-0.48-0.56-0.63c-0.72-0.28-0.86-0.67-0.86-1.06c0-0.61,0.48-1.1,1.2-1.1c0.42,0,0.74,0.11,0.99,0.27l-0.21,0.5
	c-0.11-0.09-0.34-0.21-0.6-0.21c-0.35,0-0.54,0.23-0.54,0.5c0,0.31,0.23,0.46,0.56,0.6c0.74,0.3,0.91,0.68,0.91,1.12
	C122.55,50.15,122.03,50.69,121.2,50.69"/>
<path class="st1" d="M124.91,50.67c-0.75,0-1.04-0.5-1.04-1.03v-2.26h-0.42v-0.55h0.42V46l0.86-0.24v1.08h0.62v0.55h-0.62v2.22
	c0,0.3,0.12,0.49,0.42,0.49c0.08,0,0.13-0.01,0.2-0.04v0.54C125.27,50.63,125.11,50.67,124.91,50.67"/>
<path class="st2" d="M54.41,30.59l-0.66-0.04v8.91h-7.02V15.57c2-0.91,4.87-1.49,8.25-1.49c7.49,0,10.22,3.71,10.22,8.22
	C65.21,27.1,62.05,31.03,54.41,30.59 M55.03,18.08c-0.55,0-1.02,0.15-1.27,0.22v8.14l0.66,0.04c2.94,0.15,3.96-1.13,3.96-4.22
	C58.37,19.39,57.61,18.08,55.03,18.08"/>
<path class="st2" d="M79.79,39.46h-6.25l-7.67-25.01h7.6l2.94,13.02c0.29,1.27,0.51,2.91,0.51,2.91h0.04c0,0,0.18-1.64,0.47-2.91
	l3.09-13.02h6.87L79.79,39.46z"/>
<path class="st2" d="M97.42,39.82c-3.38,0-6.03-0.54-7.96-1.49V15.57c2-0.87,4.4-1.49,7.6-1.49c8.8,0,11.71,5.78,11.71,12.87
	C108.77,33.82,106,39.82,97.42,39.82 M97.5,18.81c-0.36,0-0.65,0.04-0.95,0.11v15.85c0.25,0.07,0.65,0.15,1.05,0.15
	c2.84,0,3.96-1.82,3.96-8.14C101.57,20.95,100.51,18.81,97.5,18.81"/>
<path class="st2" d="M124.98,39.46l-1.13-4.29h-6.94l-1.2,4.29h-6.36l7.96-25.01h7.09l7.96,25.01H124.98z M121.09,23.65
	c-0.4-1.67-0.51-3.02-0.51-3.02h-0.07c0,0-0.15,1.35-0.58,3.02l-2,7.49h5.02L121.09,23.65z"/>
<path class="st2" d="M25.49,39.79c7.1,0,12.86-5.76,12.86-12.86c0-7.1-5.76-12.86-12.86-12.86c-7.1,0-12.86,5.76-12.86,12.86
	C12.63,34.03,18.39,39.79,25.49,39.79"/>
<polygon class="st0" points="33,21.47 26.58,23.56 22.6,18.1 22.62,24.85 16.2,26.93 22.61,29.04 22.62,35.77 26.57,30.32 33,32.39 
	29.03,26.95 "/>
<polygon class="st1" points="19.46,26.93 30.11,23.48 27.65,26.96 30.15,30.34 "/>
</svg>
