<svg id="svg" version="1.1" xmlns="http://www.w3.org/2000/svg" xmlns:xlink="http://www.w3.org/1999/xlink" width="400" height="261.7737003058104" viewBox="0, 0, 400,261.7737003058104"><g id="svgg"><path id="path0" d="M352.094 88.084 C 343.558 89.977,338.814 97.848,342.151 104.581 C 343.193 106.686,346.138 109.760,349.603 112.362 C 355.365 116.689,356.331 118.132,354.967 120.369 C 353.943 122.049,349.835 122.546,346.990 121.334 C 344.640 120.333,343.553 119.805,342.916 119.356 C 342.547 119.096,341.929 118.803,341.542 118.706 L 340.838 118.530 340.838 123.921 L 340.838 129.313 341.819 129.927 C 347.042 133.192,356.547 133.595,362.565 130.804 C 364.603 129.860,368.063 127.192,368.063 126.566 C 368.063 126.469,368.286 126.077,368.558 125.695 C 370.519 122.940,371.094 118.241,369.887 114.822 C 368.813 111.779,366.250 109.204,360.487 105.377 C 355.652 102.166,354.696 100.487,356.610 98.573 C 358.365 96.818,362.563 97.174,366.598 99.419 C 367.448 99.892,368.262 100.239,368.408 100.190 C 368.705 100.091,368.671 90.292,368.373 90.021 C 366.527 88.346,356.364 87.137,352.094 88.084 M134.632 88.659 C 134.567 88.828,134.765 89.829,135.073 90.884 C 135.380 91.938,135.808 93.449,136.023 94.241 C 136.708 96.759,137.472 99.540,138.110 101.832 C 139.853 108.100,140.280 109.664,140.576 110.864 C 140.754 111.584,141.003 112.377,141.130 112.627 C 141.257 112.877,141.361 113.298,141.361 113.562 C 141.361 113.827,141.524 114.564,141.723 115.202 C 141.922 115.840,142.214 116.832,142.372 117.408 C 142.529 117.984,143.072 119.892,143.578 121.647 C 144.529 124.949,146.011 130.316,146.256 131.348 L 146.396 131.937 154.318 131.937 L 162.240 131.937 162.541 130.825 C 162.706 130.213,163.124 128.652,163.470 127.356 C 163.816 126.060,164.530 123.527,165.055 121.728 C 165.581 119.928,166.107 118.043,166.224 117.539 C 166.499 116.358,168.960 107.305,169.748 104.581 C 170.080 103.429,170.557 101.721,170.807 100.785 C 171.057 99.849,171.358 98.848,171.475 98.560 C 171.592 98.272,171.745 97.742,171.815 97.382 C 171.885 97.022,172.195 95.785,172.504 94.634 C 172.813 93.482,173.189 92.068,173.340 91.492 C 173.491 90.916,173.720 90.174,173.849 89.844 C 174.456 88.287,174.729 88.346,167.223 88.403 C 160.882 88.451,160.348 88.491,160.188 88.927 C 160.092 89.186,159.816 90.458,159.575 91.754 C 159.333 93.050,159.025 94.581,158.890 95.157 C 158.597 96.401,157.648 101.160,157.322 103.010 C 157.196 103.730,156.974 104.908,156.830 105.628 C 156.686 106.348,156.380 107.880,156.149 109.031 C 155.918 110.183,155.632 111.656,155.513 112.304 C 155.076 114.686,154.705 116.325,154.573 116.457 C 154.206 116.824,153.579 115.576,153.387 114.096 C 153.269 113.182,153.051 111.846,152.903 111.126 C 152.210 107.758,151.799 105.530,151.672 104.450 C 151.595 103.802,151.436 103.037,151.318 102.749 C 151.199 102.461,150.899 101.047,150.650 99.607 C 150.401 98.168,150.094 96.648,149.968 96.231 C 149.842 95.813,149.738 94.966,149.738 94.348 C 149.738 93.730,149.620 93.152,149.476 93.063 C 149.332 92.974,149.215 92.660,149.215 92.365 C 149.215 92.070,149.026 91.046,148.795 90.090 L 148.375 88.351 141.563 88.351 C 136.581 88.351,134.718 88.434,134.632 88.659 M176.963 110.138 L 176.963 131.937 189.534 131.937 L 202.106 131.937 202.034 126.898 L 201.963 121.859 196.866 121.787 C 194.062 121.748,191.669 121.616,191.547 121.495 C 191.425 121.373,191.327 114.042,191.329 105.205 C 191.331 96.367,191.251 88.959,191.151 88.743 C 190.996 88.409,189.931 88.350,183.966 88.345 L 176.963 88.339 176.963 110.138 M222.739 88.410 L 215.505 88.490 215.243 89.206 C 214.988 89.900,214.799 90.602,213.601 95.288 C 213.288 96.512,212.878 98.043,212.689 98.691 C 212.501 99.339,212.197 100.517,212.015 101.309 C 211.833 102.101,211.588 102.861,211.471 102.997 C 211.353 103.134,211.257 103.496,211.257 103.802 C 211.257 104.107,211.094 104.879,210.895 105.516 C 210.482 106.838,210.259 107.671,209.293 111.518 C 208.913 113.030,208.499 114.620,208.372 115.052 C 208.246 115.484,207.846 116.957,207.483 118.325 C 207.120 119.692,206.634 121.518,206.403 122.382 C 206.173 123.246,205.541 125.720,204.999 127.880 L 204.014 131.806 210.693 131.876 C 215.296 131.924,217.427 131.858,217.548 131.661 C 217.645 131.505,217.871 130.531,218.050 129.497 C 218.230 128.463,218.512 127.147,218.678 126.571 L 218.979 125.524 223.488 125.452 L 227.997 125.380 228.150 126.106 C 228.233 126.506,228.415 127.304,228.553 127.880 C 228.691 128.455,228.892 129.575,229.000 130.366 L 229.195 131.806 236.058 131.876 L 242.921 131.946 242.773 131.091 C 242.692 130.620,242.523 129.941,242.396 129.581 C 242.154 128.891,240.672 123.288,240.319 121.728 C 240.076 120.652,239.329 117.746,239.008 116.623 C 238.029 113.206,235.281 102.796,234.826 100.785 C 234.641 99.964,233.400 95.315,232.730 92.932 C 232.588 92.428,232.254 91.191,231.988 90.183 C 231.529 88.448,231.463 88.350,230.739 88.341 C 230.318 88.335,226.718 88.367,222.739 88.410 M256.782 88.497 C 256.553 88.638,256.197 89.706,255.391 92.670 C 255.175 93.462,254.806 94.758,254.570 95.550 C 254.335 96.342,254.047 97.461,253.931 98.037 C 253.716 99.099,252.694 103.013,251.266 108.246 C 250.834 109.830,250.423 111.420,250.352 111.780 C 250.280 112.140,250.121 112.670,249.998 112.958 C 249.875 113.246,249.715 113.835,249.644 114.267 C 249.528 114.969,248.490 118.977,246.865 125.000 C 246.554 126.152,246.126 127.738,245.913 128.525 C 245.701 129.311,245.427 130.401,245.304 130.946 L 245.082 131.937 251.818 131.937 L 258.555 131.937 258.859 131.270 C 259.026 130.904,259.166 130.226,259.172 129.765 C 259.182 128.866,259.777 126.142,260.065 125.676 C 260.180 125.491,261.775 125.393,264.657 125.393 C 269.608 125.393,269.097 125.162,269.587 127.618 C 269.731 128.338,269.995 129.604,270.175 130.432 L 270.502 131.937 277.279 131.937 L 284.055 131.937 283.876 130.955 C 283.777 130.416,283.605 129.727,283.493 129.424 C 283.381 129.122,282.684 126.530,281.945 123.665 C 281.206 120.800,280.374 117.690,280.095 116.754 C 279.634 115.208,279.391 114.207,278.918 111.911 C 278.829 111.479,278.647 110.890,278.513 110.602 C 278.379 110.314,278.163 109.548,278.033 108.901 C 277.903 108.253,277.198 105.543,276.467 102.880 C 275.735 100.216,275.135 97.795,275.134 97.500 C 275.132 97.205,275.031 96.851,274.909 96.715 C 274.787 96.578,274.483 95.524,274.234 94.372 C 273.984 93.220,273.682 92.042,273.563 91.754 C 273.444 91.466,273.202 90.668,273.025 89.980 C 272.848 89.293,272.594 88.663,272.462 88.581 C 272.147 88.386,257.091 88.306,256.782 88.497 M290.031 88.784 C 289.903 89.022,289.735 90.082,289.657 91.140 C 289.302 95.957,288.705 102.663,288.472 104.450 C 288.331 105.530,288.217 107.048,288.218 107.824 C 288.219 108.599,288.106 110.249,287.968 111.489 C 287.829 112.729,287.531 115.864,287.306 118.455 C 287.081 121.047,286.782 124.346,286.641 125.785 C 286.500 127.225,286.385 129.198,286.386 130.170 L 286.387 131.937 292.621 131.937 L 298.855 131.937 299.166 125.720 C 299.337 122.300,299.604 116.086,299.757 111.911 C 300.175 100.579,300.756 98.713,301.712 105.628 C 301.812 106.348,302.061 107.703,302.266 108.639 C 302.471 109.575,302.743 110.988,302.872 111.780 C 303.001 112.572,303.301 114.221,303.540 115.445 C 303.778 116.669,304.070 118.200,304.188 118.848 C 304.670 121.479,305.834 127.693,306.052 128.796 C 306.180 129.444,306.359 130.416,306.449 130.955 L 306.613 131.937 311.911 131.937 L 317.209 131.937 317.367 130.825 C 317.454 130.213,317.715 128.711,317.947 127.487 C 318.180 126.263,318.465 124.732,318.583 124.084 C 318.700 123.436,318.919 122.258,319.069 121.466 C 319.219 120.674,319.540 118.966,319.782 117.670 C 320.024 116.374,320.324 114.784,320.450 114.136 C 320.575 113.488,320.798 112.208,320.944 111.292 C 321.091 110.375,321.273 109.524,321.350 109.401 C 321.426 109.277,321.712 107.848,321.984 106.224 C 322.586 102.640,322.980 101.410,323.394 101.823 C 323.688 102.117,323.730 103.042,324.324 122.100 C 324.476 126.984,324.669 131.196,324.753 131.459 C 324.894 131.905,325.332 131.937,331.194 131.937 L 337.484 131.937 337.339 129.385 C 337.260 127.981,337.082 125.537,336.945 123.953 C 336.807 122.369,336.570 119.483,336.418 117.539 C 336.266 115.596,336.077 113.534,335.998 112.958 C 335.837 111.782,335.440 107.206,335.089 102.487 C 334.798 98.587,334.079 90.802,333.879 89.398 L 333.730 88.351 325.377 88.351 L 317.025 88.351 316.778 89.005 C 316.530 89.661,316.017 92.097,315.453 95.288 C 315.287 96.224,315.045 97.402,314.914 97.906 C 314.784 98.410,314.489 99.823,314.259 101.047 C 314.029 102.271,313.742 103.685,313.621 104.188 C 313.277 105.620,312.802 108.135,312.641 109.368 C 312.550 110.071,312.319 110.585,312.024 110.742 C 311.461 111.044,311.517 111.203,310.638 106.806 C 310.279 105.007,309.604 101.649,309.138 99.346 C 308.673 97.042,308.245 94.686,308.189 94.110 C 308.132 93.534,307.989 92.827,307.872 92.539 C 307.754 92.251,307.527 91.316,307.367 90.462 C 307.206 89.607,306.963 88.796,306.826 88.659 C 306.333 88.165,290.298 88.285,290.031 88.784 M224.131 102.390 C 224.278 103.019,224.498 104.182,224.620 104.974 C 224.742 105.766,224.957 107.003,225.098 107.723 C 225.417 109.353,226.129 113.275,226.450 115.175 C 226.767 117.048,226.698 117.093,223.560 117.034 C 220.398 116.976,220.051 116.879,220.293 116.129 C 220.481 115.548,220.731 114.124,221.155 111.211 C 221.296 110.250,221.484 109.345,221.574 109.199 C 221.664 109.053,221.854 108.131,221.996 107.150 C 222.942 100.602,223.449 99.472,224.131 102.390 M264.940 101.488 C 265.087 101.875,265.427 103.377,265.696 104.826 C 265.964 106.275,266.252 107.814,266.336 108.246 C 267.222 112.845,267.788 116.610,267.618 116.778 C 267.296 117.096,262.048 117.126,261.734 116.812 C 261.475 116.553,261.644 114.875,262.293 111.257 C 262.409 110.609,262.753 108.665,263.057 106.937 C 263.361 105.209,263.724 103.384,263.864 102.880 C 264.004 102.376,264.189 101.698,264.275 101.374 C 264.480 100.609,264.614 100.632,264.940 101.488 M31.272 136.976 C 31.204 137.156,31.178 147.906,31.215 160.864 L 31.283 184.424 79.843 184.424 L 128.403 184.424 128.403 160.602 L 128.403 136.780 117.539 136.717 C 111.564 136.682,106.526 136.750,106.343 136.867 C 106.087 137.030,106.026 138.351,106.081 142.558 L 106.152 148.037 106.778 147.036 C 108.986 143.506,108.962 153.359,106.752 157.532 C 106.212 158.552,106.021 159.282,106.021 160.331 C 106.021 161.178,105.889 161.834,105.694 161.961 C 105.260 162.242,55.226 162.047,54.686 161.763 C 54.315 161.567,54.252 160.167,54.126 149.380 C 54.049 142.690,53.906 137.089,53.810 136.933 C 53.539 136.495,31.440 136.538,31.272 136.976 M346.990 140.198 C 346.702 140.266,345.818 140.449,345.026 140.607 C 343.030 141.005,341.484 141.530,339.921 142.341 C 339.490 142.566,338.783 142.926,338.351 143.143 C 334.256 145.198,330.515 151.839,329.615 158.652 C 327.980 171.026,332.957 180.908,342.539 184.317 C 344.864 185.144,347.260 185.396,351.504 185.261 C 355.619 185.129,356.353 185.017,359.293 184.074 C 366.617 181.723,370.666 173.965,370.374 162.839 C 370.289 159.614,370.281 159.576,369.634 159.396 C 368.409 159.056,351.184 159.130,350.838 159.476 C 350.623 159.691,350.524 160.969,350.524 163.525 C 350.524 167.909,350.569 167.982,353.132 167.692 C 355.324 167.444,355.662 167.891,355.228 170.469 C 354.790 173.080,353.405 174.591,351.409 174.636 C 346.203 174.754,345.026 172.455,345.026 162.173 C 345.026 154.626,345.593 152.144,347.706 150.441 C 350.110 148.503,354.311 149.732,355.876 152.831 C 356.376 153.822,356.220 153.826,360.340 152.722 C 361.636 152.375,363.168 151.966,363.743 151.813 C 364.319 151.660,365.144 151.436,365.576 151.316 C 366.008 151.195,366.993 150.941,367.766 150.752 C 369.478 150.334,369.597 150.085,368.736 148.721 C 368.366 148.134,368.063 147.548,368.063 147.418 C 368.063 147.033,364.967 144.015,363.787 143.251 C 363.187 142.862,362.637 142.472,362.565 142.384 C 362.414 142.199,359.633 141.216,357.723 140.673 C 356.440 140.308,348.102 139.939,346.990 140.198 M136.824 141.012 C 136.728 141.108,136.649 150.945,136.649 162.871 L 136.649 184.555 147.579 184.547 C 158.263 184.539,161.861 184.325,164.267 183.558 C 164.699 183.420,165.582 183.154,166.230 182.968 C 174.185 180.675,177.416 171.885,172.369 166.271 C 170.847 164.578,166.344 162.304,164.515 162.304 C 164.217 162.304,163.753 162.142,163.482 161.943 C 162.934 161.543,164.040 160.733,165.135 160.733 C 167.840 160.733,171.999 157.490,172.987 154.611 C 175.056 148.582,171.237 143.510,163.351 141.816 C 159.355 140.957,137.540 140.296,136.824 141.012 M179.296 160.992 C 179.282 172.080,179.272 181.505,179.272 181.937 C 179.272 182.369,179.282 183.135,179.296 183.639 L 179.319 184.555 193.194 184.555 L 207.068 184.555 207.068 179.188 L 207.068 173.822 201.056 173.822 C 193.977 173.822,194.524 174.126,194.591 170.225 C 194.650 166.815,194.242 167.039,200.531 166.956 L 205.890 166.885 205.965 162.696 C 206.072 156.682,206.745 157.330,200.397 157.330 C 194.130 157.330,194.503 157.529,194.503 154.188 C 194.503 150.822,194.033 151.047,201.062 151.047 L 207.079 151.047 207.008 146.008 L 206.937 140.969 193.128 140.901 L 179.319 140.833 179.296 160.992 M211.257 162.696 L 211.257 184.555 224.869 184.555 L 238.482 184.555 238.482 179.450 L 238.482 174.346 232.863 174.346 C 227.575 174.346,227.228 174.316,226.973 173.839 C 226.794 173.506,226.702 167.785,226.702 157.085 L 226.702 140.838 218.979 140.838 L 211.257 140.838 211.257 162.696 M253.763 141.038 C 253.601 141.144,253.350 141.760,253.205 142.408 C 252.706 144.636,250.318 152.814,249.977 153.465 C 249.846 153.715,249.738 154.136,249.738 154.400 C 249.738 154.664,249.575 155.402,249.376 156.040 C 249.177 156.677,248.867 157.729,248.686 158.377 C 248.506 159.025,248.257 159.908,248.134 160.340 C 247.836 161.381,246.164 167.290,245.653 169.110 C 245.430 169.902,245.148 170.785,245.026 171.073 C 244.904 171.361,244.744 171.891,244.671 172.251 C 244.599 172.611,244.421 173.318,244.276 173.822 C 244.132 174.326,243.767 175.681,243.465 176.832 C 243.164 177.984,242.803 179.280,242.664 179.712 C 242.139 181.342,241.361 184.096,241.361 184.325 C 241.361 184.464,244.433 184.534,248.749 184.494 L 256.137 184.424 256.585 182.199 C 256.832 180.975,257.165 179.529,257.325 178.986 L 257.616 177.999 262.506 178.070 L 267.396 178.141 267.584 178.796 C 267.687 179.156,267.961 180.501,268.192 181.786 C 268.422 183.071,268.672 184.219,268.745 184.338 C 268.819 184.458,272.228 184.555,276.322 184.555 L 283.765 184.555 283.406 183.573 C 283.209 183.033,282.919 182.120,282.762 181.545 C 282.374 180.120,281.561 177.288,280.771 174.607 C 279.984 171.938,279.049 168.444,278.879 167.539 C 278.812 167.179,278.650 166.649,278.520 166.361 C 278.292 165.859,277.375 162.723,275.992 157.723 C 274.912 153.818,274.878 153.696,274.619 152.814 C 274.481 152.346,274.196 151.315,273.984 150.524 C 272.911 146.513,271.375 141.455,271.142 141.165 C 270.848 140.800,254.313 140.679,253.763 141.038 M286.387 162.692 L 286.387 184.555 293.325 184.555 C 298.695 184.555,300.264 184.481,300.272 184.228 C 300.277 184.048,300.283 179.337,300.285 173.759 C 300.288 163.956,300.305 163.608,300.801 163.343 C 301.262 163.095,301.832 163.762,301.832 164.549 C 301.832 164.613,302.080 165.224,302.382 165.906 C 302.684 166.588,303.024 167.382,303.136 167.670 C 303.249 167.958,303.547 168.724,303.800 169.372 C 304.053 170.020,304.480 171.050,304.749 171.661 C 305.017 172.272,305.827 174.275,306.548 176.111 C 307.270 177.948,307.966 179.686,308.095 179.974 C 308.225 180.262,308.686 181.381,309.121 182.461 L 309.911 184.424 317.486 184.493 L 325.061 184.563 325.214 183.446 C 325.425 181.909,325.443 143.205,325.233 141.894 L 325.064 140.838 318.319 140.838 C 312.410 140.838,311.555 140.889,311.415 141.252 C 311.328 141.480,311.257 146.545,311.257 152.508 C 311.257 163.142,311.247 163.351,310.738 163.351 C 310.386 163.351,310.168 163.120,310.059 162.631 C 309.970 162.235,309.679 161.423,309.411 160.827 C 309.144 160.231,308.848 159.435,308.753 159.058 C 308.658 158.681,308.476 158.307,308.348 158.228 C 308.220 158.149,308.115 157.820,308.115 157.498 C 308.115 157.175,308.013 156.799,307.889 156.662 C 307.568 156.310,306.283 152.825,306.283 152.307 C 306.283 152.070,306.190 151.837,306.078 151.789 C 305.965 151.741,305.125 149.699,304.211 147.251 C 303.297 144.804,302.357 142.389,302.123 141.885 L 301.698 140.969 294.043 140.899 L 286.387 140.830 286.387 162.692 M156.196 150.280 C 161.181 152.417,159.281 157.779,153.492 157.911 C 152.773 157.927,152.047 157.855,151.878 157.751 C 151.485 157.508,151.454 150.969,151.842 150.245 C 152.221 149.535,154.501 149.554,156.196 150.280 M262.937 153.730 C 262.989 153.910,263.349 155.825,263.737 157.984 C 264.125 160.144,264.548 162.323,264.676 162.827 C 264.805 163.331,265.097 164.745,265.325 165.969 C 265.554 167.192,265.796 168.387,265.864 168.624 C 266.134 169.573,265.431 169.771,262.286 169.634 L 259.293 169.503 259.207 168.751 C 259.160 168.338,259.297 167.219,259.512 166.264 C 259.986 164.155,260.256 162.769,261.148 157.853 C 261.989 153.218,261.935 153.403,262.435 153.403 C 262.660 153.403,262.886 153.550,262.937 153.730 M155.628 166.113 C 161.502 167.613,159.755 175.131,153.533 175.131 C 151.567 175.131,151.535 175.052,151.592 170.376 C 151.654 165.213,151.741 165.120,155.628 166.113 " stroke="none" fill="#1e1e1d" fill-rule="evenodd"></path><path id="path1" d="M0.000 130.890 L 0.000 261.780 200.000 261.780 L 400.000 261.780 400.000 130.890 L 400.000 0.000 200.000 0.000 L 0.000 0.000 0.000 130.890 M362.696 87.705 C 364.738 88.188,368.420 89.341,368.783 89.611 C 369.026 89.792,369.110 91.254,369.110 95.328 C 369.110 101.471,369.047 101.660,367.423 100.422 C 366.930 100.046,366.388 99.738,366.218 99.738 C 366.048 99.738,365.481 99.512,364.957 99.235 C 360.878 97.078,356.283 97.653,356.283 100.320 C 356.283 101.489,356.942 102.229,359.651 104.098 C 361.038 105.055,362.212 105.938,362.260 106.060 C 362.308 106.183,362.460 106.283,362.598 106.283 C 363.778 106.283,368.784 111.248,369.938 113.562 C 370.799 115.290,370.812 115.364,370.812 118.868 L 370.812 122.422 369.703 124.659 C 365.729 132.678,354.065 135.540,343.294 131.138 C 340.350 129.935,340.572 130.515,340.521 123.870 C 340.470 117.326,340.539 117.049,341.940 118.118 C 345.553 120.874,350.848 122.300,353.151 121.139 C 356.231 119.586,355.372 117.242,350.393 113.615 C 349.529 112.986,348.763 112.397,348.691 112.307 C 348.619 112.216,348.266 111.943,347.906 111.699 C 345.380 109.986,341.991 105.843,341.083 103.358 C 340.169 100.858,340.693 96.054,342.051 94.482 C 342.248 94.255,342.408 93.945,342.408 93.794 C 342.408 92.409,347.666 88.817,351.047 87.891 C 353.710 87.161,359.973 87.062,362.696 87.705 M148.907 88.416 C 149.036 88.668,149.329 89.935,149.559 91.230 C 149.789 92.526,150.048 93.940,150.135 94.372 C 150.223 94.804,150.392 95.687,150.512 96.335 C 150.632 96.983,150.932 98.514,151.178 99.738 C 151.424 100.962,151.721 102.493,151.838 103.141 C 151.954 103.789,152.177 105.026,152.333 105.890 C 152.489 106.754,152.796 108.285,153.015 109.293 C 153.234 110.301,153.526 111.845,153.663 112.723 C 154.046 115.166,154.712 116.232,154.712 114.402 C 154.712 113.972,154.825 113.118,154.963 112.504 C 155.101 111.890,155.351 110.681,155.518 109.817 C 155.684 108.953,155.976 107.539,156.164 106.675 C 156.353 105.812,156.649 104.280,156.822 103.272 C 157.346 100.219,159.724 88.370,159.856 88.157 C 160.127 87.719,174.349 87.926,174.520 88.370 C 174.673 88.770,174.497 89.520,173.137 94.241 C 172.785 95.465,172.374 96.937,172.225 97.513 C 172.076 98.089,171.848 98.914,171.717 99.346 C 171.411 100.363,170.073 105.333,169.075 109.162 C 168.643 110.818,168.190 112.408,168.067 112.696 C 167.944 112.984,167.645 114.045,167.403 115.052 C 167.161 116.060,166.870 117.120,166.757 117.408 C 166.524 118.003,166.262 118.934,165.282 122.644 C 163.670 128.753,163.097 130.836,162.845 131.497 L 162.578 132.199 154.341 132.199 C 149.199 132.199,146.044 132.102,145.944 131.940 C 145.787 131.686,145.436 130.447,144.499 126.832 C 144.091 125.261,143.359 122.606,142.116 118.194 C 141.953 117.618,141.671 116.616,141.489 115.969 C 141.306 115.321,140.974 114.143,140.750 113.351 C 139.274 108.133,137.712 102.338,137.558 101.502 C 137.457 100.961,137.271 100.453,137.143 100.374 C 137.015 100.295,136.911 99.981,136.911 99.676 C 136.911 99.371,136.792 98.759,136.646 98.317 C 136.381 97.516,135.149 93.117,134.383 90.242 C 133.736 87.811,133.280 87.958,141.475 87.958 C 148.066 87.958,148.692 87.997,148.907 88.416 M191.560 104.516 C 191.623 119.920,191.655 120.944,192.083 120.972 C 192.334 120.988,194.693 121.018,197.326 121.038 C 203.157 121.081,202.633 120.488,202.551 126.963 L 202.487 132.068 189.529 132.068 L 176.571 132.068 176.504 110.369 C 176.454 94.411,176.516 88.575,176.735 88.310 C 176.978 88.017,178.385 87.963,184.263 88.019 L 191.492 88.089 191.560 104.516 M231.879 88.285 C 232.026 88.465,232.344 89.437,232.585 90.445 C 232.827 91.453,233.177 92.808,233.365 93.455 C 233.907 95.330,234.239 96.573,234.832 98.953 C 235.438 101.382,235.493 101.588,236.514 105.236 C 236.896 106.603,237.314 108.194,237.442 108.770 C 237.570 109.346,237.979 110.936,238.351 112.304 C 238.723 113.671,239.123 115.203,239.241 115.707 C 239.428 116.506,239.787 117.869,241.485 124.215 C 241.678 124.935,242.161 126.702,242.558 128.141 C 242.955 129.581,243.290 131.054,243.302 131.414 L 243.325 132.068 236.124 132.138 L 228.924 132.207 228.467 130.174 C 228.216 129.056,228.010 127.869,228.010 127.535 C 228.011 125.974,227.842 125.916,223.289 125.916 C 220.125 125.916,219.108 125.996,219.101 126.243 C 219.096 126.423,218.885 127.808,218.632 129.319 L 218.173 132.068 211.002 132.138 C 207.058 132.176,203.742 132.117,203.634 132.007 C 203.457 131.827,204.133 128.897,205.370 124.476 C 205.612 123.613,205.909 122.493,206.030 121.990 C 206.400 120.446,207.775 115.217,208.644 112.042 C 209.098 110.386,209.563 108.619,209.679 108.115 C 209.795 107.611,210.209 106.021,210.598 104.581 C 212.055 99.193,213.134 95.128,213.344 94.241 C 213.823 92.214,214.685 89.102,214.921 88.547 L 215.172 87.958 223.392 87.958 C 229.650 87.958,231.675 88.036,231.879 88.285 M273.205 88.743 C 273.380 89.103,273.662 90.105,273.831 90.969 C 274.000 91.832,274.234 92.775,274.351 93.063 C 274.468 93.351,274.818 94.588,275.129 95.812 C 276.082 99.562,277.779 106.023,278.533 108.770 C 278.809 109.777,279.205 111.309,279.412 112.173 C 279.619 113.037,280.268 115.510,280.855 117.670 C 281.442 119.830,282.229 122.775,282.602 124.215 C 283.482 127.606,283.986 129.475,284.350 130.702 C 284.801 132.220,284.832 132.214,276.946 132.138 L 269.764 132.068 269.565 130.497 C 269.455 129.634,269.279 128.279,269.172 127.487 L 268.979 126.047 264.811 125.975 C 259.783 125.888,260.232 125.474,259.461 130.890 L 259.293 132.068 251.963 132.068 C 245.606 132.068,244.638 132.016,244.671 131.675 C 244.720 131.159,247.119 121.913,248.543 116.754 C 249.360 113.790,249.572 112.974,250.104 110.733 C 250.327 109.797,250.759 108.148,251.066 107.068 C 251.372 105.988,251.713 104.692,251.824 104.188 C 252.019 103.294,253.070 99.343,253.807 96.728 C 254.010 96.008,254.367 94.594,254.601 93.586 C 254.834 92.579,255.131 91.483,255.261 91.153 C 255.391 90.822,255.497 90.376,255.497 90.163 C 255.497 89.949,255.669 89.364,255.878 88.862 L 256.259 87.951 264.572 88.020 L 272.886 88.089 273.205 88.743 M307.223 88.158 C 307.379 88.264,307.649 89.116,307.821 90.052 C 308.455 93.502,308.635 94.411,309.039 96.204 C 309.435 97.965,309.575 98.665,310.162 101.832 C 310.309 102.624,310.674 104.440,310.973 105.866 C 311.273 107.293,311.518 108.746,311.518 109.095 C 311.518 110.396,312.176 109.470,312.508 107.702 C 312.695 106.705,312.961 105.301,313.099 104.581 C 313.238 103.861,313.452 102.742,313.575 102.094 C 314.718 96.091,315.585 91.690,315.947 90.052 L 316.382 88.089 325.272 88.089 L 334.162 88.089 334.345 89.005 C 334.446 89.509,334.712 92.219,334.936 95.026 C 335.346 100.167,335.386 100.645,335.843 105.890 C 335.982 107.474,336.217 110.360,336.367 112.304 C 336.517 114.247,336.760 117.016,336.906 118.455 C 337.053 119.895,337.224 121.721,337.286 122.513 C 337.882 130.110,337.968 131.535,337.847 131.848 C 337.734 132.143,336.493 132.195,330.962 132.138 L 324.215 132.068 324.051 126.571 C 323.686 114.287,323.264 103.282,323.154 103.171 C 323.089 103.107,323.037 103.361,323.037 103.737 C 323.037 104.112,322.934 104.483,322.808 104.561 C 322.682 104.639,322.510 105.323,322.426 106.082 C 322.342 106.840,322.092 108.344,321.870 109.424 C 321.648 110.504,321.401 111.800,321.320 112.304 C 321.239 112.808,321.070 113.691,320.945 114.267 C 320.819 114.843,320.592 116.021,320.441 116.885 C 319.848 120.270,319.345 122.953,319.115 123.953 C 318.983 124.529,318.686 126.060,318.455 127.356 C 318.225 128.652,317.902 130.272,317.738 130.955 L 317.440 132.199 311.872 132.199 L 306.304 132.199 306.047 131.217 C 305.906 130.677,305.483 128.527,305.107 126.440 C 304.732 124.352,304.312 122.114,304.175 121.466 C 304.038 120.818,303.625 118.639,303.257 116.623 C 302.890 114.607,302.478 112.428,302.343 111.780 C 302.207 111.132,301.756 108.835,301.340 106.675 C 300.643 103.054,300.581 102.871,300.546 104.319 C 300.525 105.183,300.392 108.423,300.251 111.518 C 300.110 114.614,299.890 120.407,299.763 124.391 C 299.636 128.376,299.454 131.762,299.358 131.917 C 299.145 132.261,285.967 132.316,285.755 131.973 C 285.679 131.849,285.728 130.760,285.864 129.552 C 286.001 128.344,286.242 125.648,286.401 123.560 C 286.559 121.473,286.804 118.586,286.945 117.147 C 287.304 113.471,287.661 109.322,287.947 105.497 C 288.082 103.698,288.378 100.281,288.606 97.906 C 288.833 95.530,289.091 92.467,289.178 91.099 C 289.265 89.732,289.453 88.465,289.596 88.285 C 289.885 87.920,306.690 87.799,307.223 88.158 M128.625 88.417 C 128.980 88.991,129.121 184.616,128.767 184.840 C 128.311 185.129,31.408 185.150,30.954 184.862 C 30.573 184.620,30.590 89.135,30.971 88.547 C 31.210 88.177,128.397 88.048,128.625 88.417 M264.320 102.764 C 264.232 103.332,263.970 104.797,263.737 106.021 C 263.504 107.245,263.216 108.835,263.096 109.555 C 262.976 110.275,262.692 111.924,262.465 113.220 C 261.795 117.037,261.630 116.754,264.513 116.754 C 265.918 116.754,267.056 116.638,267.151 116.486 C 267.311 116.226,266.733 112.634,266.220 110.703 C 266.082 110.182,265.969 109.425,265.969 109.020 C 265.969 108.615,265.857 107.921,265.721 107.479 C 265.585 107.037,265.330 105.792,265.154 104.712 C 264.697 101.914,264.517 101.493,264.320 102.764 M223.068 103.469 C 222.921 104.224,222.608 106.021,222.374 107.461 C 222.140 108.901,221.723 111.198,221.448 112.565 C 221.172 113.933,220.946 115.435,220.945 115.903 L 220.942 116.754 223.594 116.754 L 226.247 116.754 226.070 115.772 C 225.972 115.232,225.787 114.143,225.657 113.351 C 225.527 112.559,225.226 110.910,224.987 109.686 C 224.274 106.037,224.081 104.914,223.915 103.469 C 223.828 102.713,223.662 102.094,223.546 102.094 C 223.430 102.094,223.215 102.713,223.068 103.469 M54.921 111.435 C 54.317 111.594,54.241 111.994,54.211 115.183 C 54.196 116.695,54.156 118.217,54.121 118.566 C 54.073 119.050,54.338 119.410,55.236 120.081 C 55.884 120.566,57.329 121.694,58.448 122.588 C 59.567 123.483,61.018 124.638,61.671 125.156 C 63.069 126.262,66.130 127.822,67.801 128.278 C 68.589 128.493,71.447 128.611,76.430 128.632 L 83.881 128.665 84.742 127.004 C 86.658 123.312,86.241 122.381,82.678 122.386 C 79.623 122.390,76.830 123.280,71.896 125.820 C 71.197 126.180,70.476 126.417,70.295 126.348 C 69.880 126.189,68.795 119.882,69.098 119.392 C 69.683 118.444,75.365 116.754,77.964 116.754 C 79.167 116.754,79.294 116.688,79.975 115.706 C 82.254 112.417,86.646 112.154,99.720 114.526 C 103.236 115.164,106.593 114.681,106.024 113.619 C 105.878 113.346,105.759 112.818,105.759 112.445 C 105.759 111.958,105.570 111.695,105.088 111.512 C 104.426 111.260,55.867 111.186,54.921 111.435 M104.858 125.974 C 104.634 126.294,104.450 126.697,104.450 126.869 C 104.450 127.041,104.359 127.221,104.248 127.269 C 103.892 127.422,101.915 132.246,101.207 134.686 C 98.224 144.977,100.370 154.154,104.841 150.228 L 105.774 149.409 105.777 142.964 C 105.779 139.419,105.796 136.283,105.816 135.995 C 105.959 133.932,105.714 125.393,105.512 125.393 C 105.376 125.393,105.082 125.654,104.858 125.974 M54.388 126.589 C 54.213 126.764,54.395 142.014,54.583 142.844 C 54.820 143.893,62.833 144.215,66.524 143.324 C 70.254 142.423,72.077 141.037,69.961 140.709 C 67.778 140.371,64.795 139.385,64.716 138.975 C 64.640 138.580,70.479 132.461,70.932 132.461 C 71.046 132.461,71.831 132.773,72.677 133.154 C 75.797 134.562,79.839 134.241,81.555 132.450 C 83.003 130.938,82.786 130.891,74.288 130.881 C 68.766 130.874,66.221 130.773,65.183 130.518 C 62.579 129.879,59.040 128.589,56.924 127.509 C 54.733 126.390,54.626 126.351,54.388 126.589 M355.497 139.791 C 362.133 140.799,366.546 143.605,369.258 148.539 C 370.379 150.579,370.260 150.729,366.885 151.536 C 365.589 151.846,363.469 152.395,362.173 152.757 C 360.877 153.119,359.287 153.537,358.639 153.688 C 355.968 154.306,356.068 154.316,355.567 153.394 C 353.587 149.742,349.542 148.765,347.343 151.407 C 344.927 154.309,344.801 169.195,347.163 172.657 C 349.487 176.062,354.712 174.115,354.712 169.843 L 354.712 168.325 352.633 168.325 C 351.415 168.325,350.481 168.206,350.378 168.039 C 350.155 167.679,350.165 159.531,350.389 159.169 C 350.497 158.993,354.017 158.901,360.589 158.901 L 370.624 158.901 370.795 159.580 C 371.070 160.678,370.738 168.555,370.332 170.550 C 369.180 176.207,366.114 181.222,362.685 183.056 C 359.582 184.715,357.070 185.450,353.099 185.857 C 350.485 186.126,344.782 185.649,343.704 185.071 C 343.442 184.931,343.032 184.817,342.791 184.817 C 342.100 184.817,338.038 182.827,336.830 181.897 C 332.979 178.930,330.796 175.106,329.344 168.779 C 328.917 166.917,328.978 158.603,329.435 156.544 C 331.111 148.984,334.651 144.077,340.183 141.645 C 344.239 139.862,350.763 139.072,355.497 139.791 M161.298 140.957 C 163.693 141.349,165.493 141.764,166.361 142.123 C 169.168 143.284,169.914 143.740,171.333 145.158 C 174.812 148.635,174.924 154.530,171.576 157.902 C 170.364 159.122,167.060 160.995,166.119 160.995 C 165.572 160.995,164.398 161.559,164.398 161.822 C 164.398 161.943,164.862 162.042,165.430 162.042 C 165.997 162.042,166.534 162.160,166.623 162.304 C 166.712 162.448,166.960 162.565,167.174 162.565 C 169.303 162.565,173.615 166.125,174.567 168.668 C 177.064 175.343,172.991 181.837,165.050 183.841 C 164.188 184.059,162.893 184.385,162.173 184.566 C 159.837 185.152,136.908 185.263,136.489 184.690 C 136.127 184.195,135.935 141.116,136.293 140.758 C 136.665 140.386,158.892 140.562,161.298 140.957 M207.535 145.550 C 207.638 152.234,208.307 151.498,202.255 151.359 C 199.456 151.295,196.743 151.321,196.227 151.418 L 195.288 151.594 195.288 154.195 L 195.288 156.796 200.720 156.866 L 206.152 156.937 206.152 162.173 L 206.152 167.408 200.720 167.479 C 196.646 167.532,195.284 167.630,195.272 167.872 C 195.244 168.435,195.236 172.631,195.263 172.971 C 195.282 173.222,196.643 173.298,201.126 173.298 C 205.317 173.298,207.052 173.387,207.277 173.613 C 207.609 173.944,207.748 183.842,207.433 184.664 C 207.239 185.169,179.973 185.307,179.040 184.808 C 178.525 184.532,178.202 141.257,178.711 140.748 C 178.808 140.651,185.316 140.602,193.174 140.639 L 207.461 140.707 207.535 145.550 M227.162 156.994 C 227.228 172.982,227.239 173.287,227.753 173.562 C 228.087 173.741,230.184 173.822,233.530 173.784 C 237.853 173.736,238.826 173.793,239.022 174.101 C 239.550 174.937,239.317 184.510,238.761 184.808 C 237.955 185.239,211.402 185.176,211.042 184.743 C 210.729 184.366,210.600 141.058,210.911 140.747 C 211.009 140.649,214.691 140.600,219.092 140.638 L 227.094 140.707 227.162 156.994 M271.686 141.034 C 271.898 141.439,273.007 145.102,273.570 147.251 C 273.795 148.110,275.017 152.501,275.409 153.861 C 275.873 155.468,276.178 156.546,276.412 157.395 C 276.931 159.287,277.523 161.364,278.931 166.230 C 279.743 169.038,281.054 173.691,281.844 176.571 C 282.635 179.450,283.383 181.998,283.508 182.232 C 284.946 184.941,284.606 185.070,275.991 185.075 L 268.605 185.079 268.281 184.490 C 267.988 183.955,267.839 183.218,267.366 179.974 C 267.158 178.541,267.161 178.542,262.435 178.542 C 257.707 178.542,257.709 178.541,257.509 179.974 C 257.092 182.961,256.728 184.455,256.344 184.751 C 255.899 185.095,242.110 185.249,241.252 184.920 C 240.672 184.697,240.672 184.694,242.302 179.036 C 243.972 173.238,244.118 172.725,244.460 171.466 C 244.596 170.962,244.891 169.902,245.114 169.110 C 245.814 166.627,246.905 162.730,247.129 161.911 C 247.247 161.479,247.774 159.653,248.298 157.853 C 248.823 156.054,249.353 154.228,249.475 153.796 C 249.597 153.364,250.014 151.891,250.402 150.524 C 250.790 149.156,251.316 147.271,251.571 146.335 C 252.198 144.036,252.769 142.165,253.109 141.296 L 253.390 140.576 262.419 140.576 C 270.752 140.576,271.466 140.611,271.686 141.034 M302.527 141.558 C 302.761 142.098,303.037 142.775,303.141 143.063 C 303.245 143.351,303.524 144.032,303.760 144.577 C 303.995 145.122,304.188 145.711,304.188 145.886 C 304.187 146.061,304.424 146.675,304.713 147.251 C 305.002 147.827,305.843 149.948,306.581 151.963 C 307.320 153.979,308.156 156.217,308.441 156.937 C 308.725 157.657,309.269 159.155,309.649 160.267 C 310.029 161.378,310.427 162.291,310.534 162.295 C 310.640 162.300,310.758 157.444,310.796 151.505 L 310.864 140.707 318.194 140.707 L 325.524 140.707 325.524 162.827 L 325.524 184.948 318.031 185.017 C 309.234 185.099,309.581 185.175,308.729 182.971 C 308.370 182.042,307.971 181.047,307.841 180.759 C 307.712 180.471,307.358 179.588,307.055 178.796 C 306.752 178.004,306.352 177.003,306.166 176.571 C 305.981 176.139,305.505 174.961,305.109 173.953 C 304.714 172.945,304.168 171.621,303.897 171.011 C 303.625 170.400,303.403 169.834,303.403 169.753 C 303.403 169.671,303.188 169.111,302.924 168.507 C 302.661 167.903,302.160 166.667,301.812 165.760 L 301.178 164.113 301.111 174.268 C 301.051 183.445,301.002 184.456,300.603 184.751 C 299.985 185.210,286.635 185.222,286.178 184.764 C 285.835 184.422,285.698 141.091,286.038 140.750 C 286.134 140.654,289.788 140.576,294.158 140.576 L 302.103 140.576 302.527 141.558 M152.552 150.413 C 152.084 150.884,152.330 157.593,152.814 157.575 C 154.916 157.498,157.341 156.516,157.941 155.500 C 158.383 154.752,158.529 152.716,158.177 152.211 C 157.308 150.966,153.282 149.680,152.552 150.413 M262.407 154.915 C 262.153 155.082,261.730 157.088,261.347 159.948 C 261.279 160.452,261.123 161.099,260.999 161.387 C 260.875 161.675,260.711 162.382,260.634 162.958 C 260.558 163.534,260.303 165.007,260.068 166.230 C 259.833 167.454,259.621 168.632,259.598 168.848 C 259.549 169.291,265.051 169.536,265.318 169.103 C 265.395 168.979,265.276 168.017,265.054 166.965 C 264.832 165.913,264.525 164.404,264.372 163.613 C 264.219 162.821,263.993 161.702,263.869 161.126 C 263.644 160.075,262.891 156.021,262.764 155.177 C 262.725 154.915,262.575 154.805,262.407 154.915 M94.188 157.526 C 94.052 158.208,94.418 161.015,94.676 161.273 C 94.843 161.440,102.409 161.625,105.140 161.529 C 105.560 161.514,105.780 160.475,105.480 159.916 C 105.243 159.473,105.173 159.482,104.299 160.075 C 101.650 161.873,98.277 161.013,95.335 157.788 C 94.571 156.951,94.314 156.892,94.188 157.526 M152.415 170.458 L 152.487 174.738 153.403 174.708 C 160.051 174.485,160.565 167.124,153.986 166.367 L 152.343 166.177 152.415 170.458 " stroke="none" fill="#fbfbfb" fill-rule="evenodd"></path><path id="path2" d="M30.971 88.547 C 30.740 88.904,30.553 134.148,30.777 135.537 L 30.914 136.387 42.405 136.387 C 51.310 136.387,53.943 136.314,54.108 136.060 C 54.525 135.416,54.362 126.441,53.927 126.058 C 50.902 123.400,41.206 121.690,37.042 123.081 C 32.411 124.628,32.029 123.518,36.142 120.464 C 40.314 117.367,48.792 115.900,51.231 117.854 C 53.475 119.652,54.279 118.865,54.258 114.892 C 54.250 113.364,54.345 111.950,54.468 111.751 C 54.748 111.299,103.907 111.063,105.077 111.508 C 105.591 111.703,105.759 111.951,105.759 112.509 C 105.759 114.299,107.073 114.449,111.715 113.188 C 112.718 112.915,112.381 113.491,110.406 115.421 L 108.508 117.276 109.620 117.277 C 111.106 117.278,111.059 117.577,109.210 119.925 C 108.373 120.989,107.240 122.560,106.693 123.417 L 105.698 124.974 105.769 130.092 C 105.808 132.907,105.851 135.474,105.865 135.798 L 105.890 136.387 117.343 136.387 L 128.796 136.387 128.819 135.275 C 128.904 131.302,128.729 88.586,128.628 88.422 C 128.398 88.050,31.212 88.174,30.971 88.547 " stroke="none" fill="#f9e20e" fill-rule="evenodd"></path><path id="path3" d="M353.403 87.426 C 348.910 88.092,342.408 91.857,342.408 93.794 C 342.408 93.945,342.248 94.255,342.051 94.482 C 340.693 96.054,340.169 100.858,341.083 103.358 C 341.991 105.843,345.380 109.986,347.906 111.699 C 348.266 111.943,348.619 112.216,348.691 112.307 C 348.763 112.397,349.529 112.986,350.393 113.615 C 355.372 117.242,356.231 119.586,353.151 121.139 C 350.848 122.300,345.553 120.874,341.940 118.118 C 340.539 117.049,340.470 117.326,340.521 123.870 C 340.572 130.515,340.350 129.935,343.294 131.138 C 348.552 133.287,354.572 133.763,359.552 132.424 C 364.374 131.127,367.794 128.510,369.703 124.659 L 370.812 122.422 370.812 118.868 C 370.812 115.364,370.799 115.290,369.938 113.562 C 368.784 111.248,363.778 106.283,362.598 106.283 C 362.460 106.283,362.308 106.183,362.260 106.060 C 362.212 105.938,361.038 105.055,359.651 104.098 C 356.942 102.229,356.283 101.489,356.283 100.320 C 356.283 97.653,360.878 97.078,364.957 99.235 C 365.481 99.512,366.048 99.738,366.218 99.738 C 366.388 99.738,366.930 100.046,367.423 100.422 C 369.047 101.660,369.110 101.471,369.110 95.328 C 369.110 91.254,369.026 89.792,368.783 89.611 C 368.420 89.341,364.738 88.188,362.696 87.705 C 361.049 87.316,355.310 87.144,353.403 87.426 M362.042 88.071 C 363.908 88.417,367.991 89.675,368.373 90.021 C 368.671 90.292,368.705 100.091,368.408 100.190 C 368.262 100.239,367.448 99.892,366.598 99.419 C 362.563 97.174,358.365 96.818,356.610 98.573 C 354.696 100.487,355.652 102.166,360.487 105.377 C 366.250 109.204,368.813 111.779,369.887 114.822 C 371.094 118.241,370.519 122.940,368.558 125.695 C 368.286 126.077,368.063 126.469,368.063 126.566 C 368.063 127.192,364.603 129.860,362.565 130.804 C 356.547 133.595,347.042 133.192,341.819 129.927 L 340.838 129.313 340.838 123.921 L 340.838 118.530 341.542 118.706 C 341.929 118.803,342.547 119.096,342.916 119.356 C 343.553 119.805,344.640 120.333,346.990 121.334 C 349.835 122.546,353.943 122.049,354.967 120.369 C 356.331 118.132,355.365 116.689,349.603 112.362 C 343.379 107.688,341.239 104.521,341.248 100.000 C 341.267 91.255,350.538 85.937,362.042 88.071 M134.129 88.344 C 134.047 88.556,134.162 89.410,134.383 90.242 C 135.149 93.117,136.381 97.516,136.646 98.317 C 136.792 98.759,136.911 99.371,136.911 99.676 C 136.911 99.981,137.015 100.295,137.143 100.374 C 137.271 100.453,137.457 100.961,137.558 101.502 C 137.712 102.338,139.274 108.133,140.750 113.351 C 140.974 114.143,141.306 115.321,141.489 115.969 C 141.671 116.616,141.953 117.618,142.116 118.194 C 143.359 122.606,144.091 125.261,144.499 126.832 C 145.436 130.447,145.787 131.686,145.944 131.940 C 146.044 132.102,149.199 132.199,154.341 132.199 L 162.578 132.199 162.845 131.497 C 163.097 130.836,163.670 128.753,165.282 122.644 C 166.262 118.934,166.524 118.003,166.757 117.408 C 166.870 117.120,167.161 116.060,167.403 115.052 C 167.645 114.045,167.944 112.984,168.067 112.696 C 168.190 112.408,168.643 110.818,169.075 109.162 C 170.073 105.333,171.411 100.363,171.717 99.346 C 171.848 98.914,172.076 98.089,172.225 97.513 C 172.374 96.937,172.785 95.465,173.137 94.241 C 174.497 89.520,174.673 88.770,174.520 88.370 C 174.349 87.926,160.127 87.719,159.856 88.157 C 159.724 88.370,157.346 100.219,156.822 103.272 C 156.649 104.280,156.353 105.812,156.164 106.675 C 155.976 107.539,155.684 108.953,155.518 109.817 C 155.351 110.681,155.101 111.890,154.963 112.504 C 154.825 113.118,154.712 113.972,154.712 114.402 C 154.712 116.232,154.046 115.166,153.663 112.723 C 153.526 111.845,153.234 110.301,153.015 109.293 C 152.796 108.285,152.489 106.754,152.333 105.890 C 152.177 105.026,151.954 103.789,151.838 103.141 C 151.721 102.493,151.424 100.962,151.178 99.738 C 150.932 98.514,150.632 96.983,150.512 96.335 C 150.392 95.687,150.223 94.804,150.135 94.372 C 150.048 93.940,149.789 92.526,149.559 91.230 C 148.916 87.602,149.796 87.958,141.475 87.958 C 135.377 87.958,134.254 88.017,134.129 88.344 M176.735 88.310 C 176.516 88.575,176.454 94.411,176.504 110.369 L 176.571 132.068 189.529 132.068 L 202.487 132.068 202.551 126.963 C 202.633 120.488,203.157 121.081,197.326 121.038 C 194.693 121.018,192.334 120.988,192.083 120.972 C 191.655 120.944,191.623 119.920,191.560 104.516 L 191.492 88.089 184.263 88.019 C 178.385 87.963,176.978 88.017,176.735 88.310 M214.921 88.547 C 214.685 89.102,213.823 92.214,213.344 94.241 C 213.134 95.128,212.055 99.193,210.598 104.581 C 210.209 106.021,209.795 107.611,209.679 108.115 C 209.563 108.619,209.098 110.386,208.644 112.042 C 207.775 115.217,206.400 120.446,206.030 121.990 C 205.909 122.493,205.612 123.613,205.370 124.476 C 204.133 128.897,203.457 131.827,203.634 132.007 C 203.742 132.117,207.058 132.176,211.002 132.138 L 218.173 132.068 218.632 129.319 C 218.885 127.808,219.096 126.423,219.101 126.243 C 219.108 125.996,220.125 125.916,223.289 125.916 C 227.842 125.916,228.011 125.974,228.010 127.535 C 228.010 127.869,228.216 129.056,228.467 130.174 L 228.924 132.207 236.124 132.138 L 243.325 132.068 243.302 131.414 C 243.290 131.054,242.955 129.581,242.558 128.141 C 242.161 126.702,241.678 124.935,241.485 124.215 C 239.787 117.869,239.428 116.506,239.241 115.707 C 239.123 115.203,238.723 113.671,238.351 112.304 C 237.979 110.936,237.570 109.346,237.442 108.770 C 237.314 108.194,236.896 106.603,236.514 105.236 C 235.493 101.588,235.438 101.382,234.832 98.953 C 234.239 96.573,233.907 95.330,233.365 93.455 C 233.177 92.808,232.827 91.453,232.585 90.445 C 231.939 87.747,232.719 87.958,223.392 87.958 L 215.172 87.958 214.921 88.547 M255.878 88.862 C 255.669 89.364,255.497 89.949,255.497 90.163 C 255.497 90.376,255.391 90.822,255.261 91.153 C 255.131 91.483,254.834 92.579,254.601 93.586 C 254.367 94.594,254.010 96.008,253.807 96.728 C 253.070 99.343,252.019 103.294,251.824 104.188 C 251.713 104.692,251.372 105.988,251.066 107.068 C 250.759 108.148,250.327 109.797,250.104 110.733 C 249.572 112.974,249.360 113.790,248.543 116.754 C 247.119 121.913,244.720 131.159,244.671 131.675 C 244.638 132.016,245.606 132.068,251.963 132.068 L 259.293 132.068 259.461 130.890 C 260.232 125.474,259.783 125.888,264.811 125.975 L 268.979 126.047 269.172 127.487 C 269.279 128.279,269.455 129.634,269.565 130.497 L 269.764 132.068 276.946 132.138 C 284.832 132.214,284.801 132.220,284.350 130.702 C 283.986 129.475,283.482 127.606,282.602 124.215 C 282.229 122.775,281.442 119.830,280.855 117.670 C 280.268 115.510,279.619 113.037,279.412 112.173 C 279.205 111.309,278.809 109.777,278.533 108.770 C 277.779 106.023,276.082 99.562,275.129 95.812 C 274.818 94.588,274.468 93.351,274.351 93.063 C 274.234 92.775,274.000 91.832,273.831 90.969 C 273.662 90.105,273.380 89.103,273.205 88.743 L 272.886 88.089 264.572 88.020 L 256.259 87.951 255.878 88.862 M289.596 88.285 C 289.453 88.465,289.265 89.732,289.178 91.099 C 289.091 92.467,288.833 95.530,288.606 97.906 C 288.378 100.281,288.082 103.698,287.947 105.497 C 287.661 109.322,287.304 113.471,286.945 117.147 C 286.804 118.586,286.559 121.473,286.401 123.560 C 286.242 125.648,286.001 128.344,285.864 129.552 C 285.728 130.760,285.679 131.849,285.755 131.973 C 285.967 132.316,299.145 132.261,299.358 131.917 C 299.454 131.762,299.636 128.376,299.763 124.391 C 299.890 120.407,300.110 114.614,300.251 111.518 C 300.392 108.423,300.525 105.183,300.546 104.319 C 300.581 102.871,300.643 103.054,301.340 106.675 C 301.756 108.835,302.207 111.132,302.343 111.780 C 302.478 112.428,302.890 114.607,303.257 116.623 C 303.625 118.639,304.038 120.818,304.175 121.466 C 304.312 122.114,304.732 124.352,305.107 126.440 C 305.483 128.527,305.906 130.677,306.047 131.217 L 306.304 132.199 311.872 132.199 L 317.440 132.199 317.738 130.955 C 317.902 130.272,318.225 128.652,318.455 127.356 C 318.686 126.060,318.983 124.529,319.115 123.953 C 319.345 122.953,319.848 120.270,320.441 116.885 C 320.592 116.021,320.819 114.843,320.945 114.267 C 321.070 113.691,321.239 112.808,321.320 112.304 C 321.401 111.800,321.648 110.504,321.870 109.424 C 322.092 108.344,322.342 106.840,322.426 106.082 C 322.510 105.323,322.682 104.639,322.808 104.561 C 322.934 104.483,323.037 104.112,323.037 103.737 C 323.037 103.361,323.089 103.107,323.154 103.171 C 323.264 103.282,323.686 114.287,324.051 126.571 L 324.215 132.068 330.962 132.138 C 336.493 132.195,337.734 132.143,337.847 131.848 C 337.968 131.535,337.882 130.110,337.286 122.513 C 337.224 121.721,337.053 119.895,336.906 118.455 C 336.760 117.016,336.517 114.247,336.367 112.304 C 336.217 110.360,335.982 107.474,335.843 105.890 C 335.386 100.645,335.346 100.167,334.936 95.026 C 334.712 92.219,334.446 89.509,334.345 89.005 L 334.162 88.089 325.272 88.089 L 316.382 88.089 315.947 90.052 C 315.585 91.690,314.718 96.091,313.575 102.094 C 313.452 102.742,313.238 103.861,313.099 104.581 C 312.961 105.301,312.695 106.705,312.508 107.702 C 312.176 109.470,311.518 110.396,311.518 109.095 C 311.518 108.746,311.273 107.293,310.973 105.866 C 310.674 104.440,310.309 102.624,310.162 101.832 C 309.575 98.665,309.435 97.965,309.039 96.204 C 308.635 94.411,308.455 93.502,307.821 90.052 C 307.649 89.116,307.379 88.264,307.223 88.158 C 306.690 87.799,289.885 87.920,289.596 88.285 M148.795 90.090 C 149.026 91.046,149.215 92.070,149.215 92.365 C 149.215 92.660,149.332 92.974,149.476 93.063 C 149.620 93.152,149.738 93.730,149.738 94.348 C 149.738 94.966,149.842 95.813,149.968 96.231 C 150.094 96.648,150.401 98.168,150.650 99.607 C 150.899 101.047,151.199 102.461,151.318 102.749 C 151.436 103.037,151.595 103.802,151.672 104.450 C 151.799 105.530,152.210 107.758,152.903 111.126 C 153.051 111.846,153.269 113.182,153.387 114.096 C 153.579 115.576,154.206 116.824,154.573 116.457 C 154.705 116.325,155.076 114.686,155.513 112.304 C 155.632 111.656,155.918 110.183,156.149 109.031 C 156.380 107.880,156.686 106.348,156.830 105.628 C 156.974 104.908,157.196 103.730,157.322 103.010 C 157.648 101.160,158.597 96.401,158.890 95.157 C 159.025 94.581,159.333 93.050,159.575 91.754 C 159.816 90.458,160.092 89.186,160.188 88.927 C 160.348 88.491,160.882 88.451,167.223 88.403 C 174.729 88.346,174.456 88.287,173.849 89.844 C 173.720 90.174,173.491 90.916,173.340 91.492 C 173.189 92.068,172.813 93.482,172.504 94.634 C 172.195 95.785,171.885 97.022,171.815 97.382 C 171.745 97.742,171.592 98.272,171.475 98.560 C 171.358 98.848,171.057 99.849,170.807 100.785 C 170.557 101.721,170.080 103.429,169.748 104.581 C 168.960 107.305,166.499 116.358,166.224 117.539 C 166.107 118.043,165.581 119.928,165.055 121.728 C 164.530 123.527,163.816 126.060,163.470 127.356 C 163.124 128.652,162.706 130.213,162.541 130.825 L 162.240 131.937 154.318 131.937 L 146.396 131.937 146.256 131.348 C 146.011 130.316,144.529 124.949,143.578 121.647 C 143.072 119.892,142.529 117.984,142.372 117.408 C 142.214 116.832,141.922 115.840,141.723 115.202 C 141.524 114.564,141.361 113.827,141.361 113.562 C 141.361 113.298,141.257 112.877,141.130 112.627 C 141.003 112.377,140.754 111.584,140.576 110.864 C 140.280 109.664,139.853 108.100,138.110 101.832 C 137.472 99.540,136.708 96.759,136.023 94.241 C 135.808 93.449,135.380 91.938,135.073 90.884 C 134.277 88.157,133.780 88.351,141.563 88.351 L 148.375 88.351 148.795 90.090 M191.151 88.743 C 191.251 88.959,191.331 96.367,191.329 105.205 C 191.327 114.042,191.425 121.373,191.547 121.495 C 191.669 121.616,194.062 121.748,196.866 121.787 L 201.963 121.859 202.034 126.898 L 202.106 131.937 189.534 131.937 L 176.963 131.937 176.963 110.138 L 176.963 88.339 183.966 88.345 C 189.931 88.350,190.996 88.409,191.151 88.743 M231.988 90.183 C 232.254 91.191,232.588 92.428,232.730 92.932 C 233.400 95.315,234.641 99.964,234.826 100.785 C 235.281 102.796,238.029 113.206,239.008 116.623 C 239.329 117.746,240.076 120.652,240.319 121.728 C 240.672 123.288,242.154 128.891,242.396 129.581 C 242.523 129.941,242.692 130.620,242.773 131.091 L 242.921 131.946 236.058 131.876 L 229.195 131.806 229.000 130.366 C 228.892 129.575,228.691 128.455,228.553 127.880 C 228.415 127.304,228.233 126.506,228.150 126.106 L 227.997 125.380 223.488 125.452 L 218.979 125.524 218.678 126.571 C 218.512 127.147,218.230 128.463,218.050 129.497 C 217.871 130.531,217.645 131.505,217.548 131.661 C 217.427 131.858,215.296 131.924,210.693 131.876 L 204.014 131.806 204.999 127.880 C 205.541 125.720,206.173 123.246,206.403 122.382 C 206.634 121.518,207.120 119.692,207.483 118.325 C 207.846 116.957,208.246 115.484,208.372 115.052 C 208.499 114.620,208.913 113.030,209.293 111.518 C 210.259 107.671,210.482 106.838,210.895 105.516 C 211.094 104.879,211.257 104.107,211.257 103.802 C 211.257 103.496,211.353 103.134,211.471 102.997 C 211.588 102.861,211.833 102.101,212.015 101.309 C 212.197 100.517,212.501 99.339,212.689 98.691 C 212.878 98.043,213.288 96.512,213.601 95.288 C 214.799 90.602,214.988 89.900,215.243 89.206 L 215.505 88.490 222.739 88.410 C 226.718 88.367,230.318 88.335,230.739 88.341 C 231.463 88.350,231.529 88.448,231.988 90.183 M272.462 88.581 C 272.594 88.663,272.848 89.293,273.025 89.980 C 273.202 90.668,273.444 91.466,273.563 91.754 C 273.682 92.042,273.984 93.220,274.234 94.372 C 274.483 95.524,274.787 96.578,274.909 96.715 C 275.031 96.851,275.132 97.205,275.134 97.500 C 275.135 97.795,275.735 100.216,276.467 102.880 C 277.198 105.543,277.903 108.253,278.033 108.901 C 278.163 109.548,278.379 110.314,278.513 110.602 C 278.647 110.890,278.829 111.479,278.918 111.911 C 279.391 114.207,279.634 115.208,280.095 116.754 C 280.374 117.690,281.206 120.800,281.945 123.665 C 282.684 126.530,283.381 129.122,283.493 129.424 C 283.605 129.727,283.777 130.416,283.876 130.955 L 284.055 131.937 277.279 131.937 L 270.502 131.937 270.175 130.432 C 269.995 129.604,269.731 128.338,269.587 127.618 C 269.097 125.162,269.608 125.393,264.657 125.393 C 261.775 125.393,260.180 125.491,260.065 125.676 C 259.777 126.142,259.182 128.866,259.172 129.765 C 259.166 130.226,259.026 130.904,258.859 131.270 L 258.555 131.937 251.818 131.937 L 245.082 131.937 245.304 130.946 C 245.427 130.401,245.701 129.311,245.913 128.525 C 246.126 127.738,246.554 126.152,246.865 125.000 C 248.490 118.977,249.528 114.969,249.644 114.267 C 249.715 113.835,249.875 113.246,249.998 112.958 C 250.121 112.670,250.280 112.140,250.352 111.780 C 250.423 111.420,250.834 109.830,251.266 108.246 C 252.694 103.013,253.716 99.099,253.931 98.037 C 254.047 97.461,254.335 96.342,254.570 95.550 C 254.806 94.758,255.175 93.462,255.391 92.670 C 256.197 89.706,256.553 88.638,256.782 88.497 C 257.091 88.306,272.147 88.386,272.462 88.581 M306.826 88.659 C 306.963 88.796,307.206 89.607,307.367 90.462 C 307.527 91.316,307.754 92.251,307.872 92.539 C 307.989 92.827,308.132 93.534,308.189 94.110 C 308.245 94.686,308.673 97.042,309.138 99.346 C 309.604 101.649,310.279 105.007,310.638 106.806 C 311.517 111.203,311.461 111.044,312.024 110.742 C 312.319 110.585,312.550 110.071,312.641 109.368 C 312.802 108.135,313.277 105.620,313.621 104.188 C 313.742 103.685,314.029 102.271,314.259 101.047 C 314.489 99.823,314.784 98.410,314.914 97.906 C 315.045 97.402,315.287 96.224,315.453 95.288 C 316.017 92.097,316.530 89.661,316.778 89.005 L 317.025 88.351 325.377 88.351 L 333.730 88.351 333.879 89.398 C 334.079 90.802,334.798 98.587,335.089 102.487 C 335.440 107.206,335.837 111.782,335.998 112.958 C 336.077 113.534,336.266 115.596,336.418 117.539 C 336.570 119.483,336.807 122.369,336.945 123.953 C 337.082 125.537,337.260 127.981,337.339 129.385 L 337.484 131.937 331.194 131.937 C 325.332 131.937,324.894 131.905,324.753 131.459 C 324.669 131.196,324.476 126.984,324.324 122.100 C 323.730 103.042,323.688 102.117,323.394 101.823 C 322.980 101.410,322.586 102.640,321.984 106.224 C 321.712 107.848,321.426 109.277,321.350 109.401 C 321.273 109.524,321.091 110.375,320.944 111.292 C 320.798 112.208,320.575 113.488,320.450 114.136 C 320.324 114.784,320.024 116.374,319.782 117.670 C 319.540 118.966,319.219 120.674,319.069 121.466 C 318.919 122.258,318.700 123.436,318.583 124.084 C 318.465 124.732,318.180 126.263,317.947 127.487 C 317.715 128.711,317.454 130.213,317.367 130.825 L 317.209 131.937 311.911 131.937 L 306.613 131.937 306.449 130.955 C 306.359 130.416,306.180 129.444,306.052 128.796 C 305.834 127.693,304.670 121.479,304.188 118.848 C 304.070 118.200,303.778 116.669,303.540 115.445 C 303.301 114.221,303.001 112.572,302.872 111.780 C 302.743 110.988,302.471 109.575,302.266 108.639 C 302.061 107.703,301.812 106.348,301.712 105.628 C 300.756 98.713,300.175 100.579,299.757 111.911 C 299.604 116.086,299.337 122.300,299.166 125.720 L 298.855 131.937 292.621 131.937 L 286.387 131.937 286.386 130.170 C 286.385 129.198,286.500 127.225,286.641 125.785 C 286.782 124.346,287.081 121.047,287.306 118.455 C 287.531 115.864,287.829 112.729,287.968 111.489 C 288.106 110.249,288.219 108.599,288.218 107.824 C 288.217 107.048,288.331 105.530,288.472 104.450 C 288.705 102.663,289.302 95.957,289.657 91.140 C 289.882 88.084,289.049 88.346,298.420 88.380 C 303.189 88.397,306.681 88.513,306.826 88.659 M223.056 101.523 C 222.750 102.263,222.545 103.352,221.996 107.150 C 221.854 108.131,221.664 109.053,221.574 109.199 C 221.484 109.345,221.296 110.250,221.155 111.211 C 220.731 114.124,220.481 115.548,220.293 116.129 C 220.051 116.879,220.398 116.976,223.560 117.034 C 226.698 117.093,226.767 117.048,226.450 115.175 C 226.129 113.275,225.417 109.353,225.098 107.723 C 224.957 107.003,224.742 105.766,224.620 104.974 C 224.053 101.290,223.583 100.253,223.056 101.523 M264.275 101.374 C 264.189 101.698,264.004 102.376,263.864 102.880 C 263.724 103.384,263.361 105.209,263.057 106.937 C 262.753 108.665,262.409 110.609,262.293 111.257 C 261.644 114.875,261.475 116.553,261.734 116.812 C 262.048 117.126,267.296 117.096,267.618 116.778 C 267.788 116.610,267.222 112.845,266.336 108.246 C 266.252 107.814,265.964 106.275,265.696 104.826 C 265.009 101.120,264.606 100.141,264.275 101.374 M265.154 104.712 C 265.330 105.792,265.585 107.037,265.721 107.479 C 265.857 107.921,265.969 108.615,265.969 109.020 C 265.969 109.425,266.082 110.182,266.220 110.703 C 266.733 112.634,267.311 116.226,267.151 116.486 C 267.056 116.638,265.918 116.754,264.513 116.754 C 261.630 116.754,261.795 117.037,262.465 113.220 C 262.692 111.924,262.976 110.275,263.096 109.555 C 263.216 108.835,263.504 107.245,263.737 106.021 C 263.970 104.797,264.232 103.332,264.320 102.764 C 264.517 101.493,264.697 101.914,265.154 104.712 M223.915 103.469 C 224.081 104.914,224.274 106.037,224.987 109.686 C 225.226 110.910,225.527 112.559,225.657 113.351 C 225.787 114.143,225.972 115.232,226.070 115.772 L 226.247 116.754 223.594 116.754 L 220.942 116.754 220.945 115.903 C 220.946 115.435,221.172 113.933,221.448 112.565 C 221.723 111.198,222.140 108.901,222.374 107.461 C 223.040 103.371,223.319 102.094,223.546 102.094 C 223.662 102.094,223.828 102.713,223.915 103.469 M83.791 113.227 C 81.905 113.756,80.853 114.439,79.975 115.706 C 79.294 116.688,79.167 116.754,77.964 116.754 C 75.365 116.754,69.683 118.444,69.098 119.392 C 68.795 119.882,69.880 126.189,70.295 126.348 C 70.476 126.417,71.197 126.180,71.896 125.820 C 76.830 123.280,79.623 122.390,82.678 122.386 C 86.240 122.381,86.656 123.310,84.744 127.004 L 83.885 128.665 78.931 128.736 C 68.018 128.894,64.902 128.110,60.278 124.045 C 59.448 123.316,58.015 122.173,57.093 121.504 C 56.171 120.835,54.979 119.905,54.444 119.437 C 53.909 118.969,53.304 118.586,53.100 118.586 C 52.895 118.586,52.283 118.359,51.739 118.082 C 46.877 115.603,38.467 117.645,33.826 122.432 C 32.390 123.913,33.736 124.185,37.042 123.081 C 41.341 121.645,49.126 123.044,54.188 126.162 C 55.491 126.964,59.369 128.694,61.385 129.372 C 65.724 130.830,66.069 130.871,74.288 130.881 C 82.786 130.891,83.003 130.938,81.555 132.450 C 79.839 134.241,75.797 134.562,72.677 133.154 C 71.831 132.773,71.046 132.461,70.932 132.461 C 70.479 132.461,64.640 138.580,64.716 138.975 C 64.795 139.385,67.778 140.371,69.961 140.709 C 73.052 141.188,68.193 143.389,63.061 143.836 C 61.384 143.981,54.994 143.562,54.718 143.288 C 54.643 143.213,54.522 141.601,54.450 139.704 C 54.378 137.808,54.231 136.286,54.123 136.322 C 54.015 136.358,48.685 136.387,42.277 136.387 L 30.628 136.387 30.628 160.574 C 30.628 182.388,30.669 184.776,31.042 184.920 C 31.584 185.127,128.102 185.127,128.644 184.920 C 129.017 184.776,129.058 182.387,129.058 160.571 L 129.058 136.382 117.391 136.450 L 105.724 136.518 105.750 142.963 L 105.775 149.408 104.842 150.227 C 100.370 154.154,98.224 144.978,101.207 134.686 C 101.817 132.583,103.816 127.563,104.179 127.225 C 104.256 127.153,104.496 126.778,104.712 126.392 C 105.411 125.141,107.664 121.907,109.218 119.925 C 111.059 117.576,111.104 117.278,109.620 117.277 L 108.508 117.276 110.406 115.421 C 112.381 113.491,112.717 112.917,111.715 113.186 C 111.391 113.272,110.124 113.528,108.901 113.755 C 107.677 113.982,106.263 114.273,105.759 114.403 C 103.866 114.891,101.933 114.932,99.738 114.532 C 91.713 113.067,86.023 112.602,83.791 113.227 M53.810 136.933 C 53.906 137.089,54.049 142.690,54.126 149.380 C 54.252 160.167,54.315 161.567,54.686 161.763 C 55.226 162.047,105.260 162.242,105.694 161.961 C 105.889 161.834,106.021 161.178,106.021 160.331 C 106.021 159.282,106.212 158.552,106.752 157.532 C 108.962 153.359,108.986 143.506,106.778 147.036 L 106.152 148.037 106.081 142.558 C 106.026 138.351,106.087 137.030,106.343 136.867 C 106.526 136.750,111.564 136.682,117.539 136.717 L 128.403 136.780 128.403 160.602 L 128.403 184.424 79.843 184.424 L 31.283 184.424 31.215 160.864 C 31.178 147.906,31.204 137.156,31.272 136.976 C 31.440 136.538,53.539 136.495,53.810 136.933 M346.073 139.939 C 336.379 141.873,331.639 146.603,329.435 156.544 C 328.978 158.603,328.917 166.917,329.344 168.779 C 330.796 175.106,332.979 178.930,336.830 181.897 C 338.038 182.827,342.100 184.817,342.791 184.817 C 343.032 184.817,343.442 184.931,343.704 185.071 C 344.782 185.649,350.485 186.126,353.099 185.857 C 357.070 185.450,359.582 184.715,362.685 183.056 C 366.114 181.222,369.180 176.207,370.332 170.550 C 370.738 168.555,371.070 160.678,370.795 159.580 L 370.624 158.901 360.589 158.901 C 354.017 158.901,350.497 158.993,350.389 159.169 C 350.165 159.531,350.155 167.679,350.378 168.039 C 350.481 168.206,351.415 168.325,352.633 168.325 L 354.712 168.325 354.712 169.843 C 354.712 174.115,349.487 176.062,347.163 172.657 C 344.801 169.195,344.927 154.309,347.343 151.407 C 349.542 148.765,353.587 149.742,355.567 153.394 C 356.068 154.316,355.968 154.306,358.639 153.688 C 359.287 153.537,360.877 153.119,362.173 152.757 C 363.469 152.395,365.589 151.846,366.885 151.536 C 370.260 150.729,370.379 150.579,369.258 148.539 C 365.409 141.536,355.847 137.989,346.073 139.939 M357.723 140.673 C 359.633 141.216,362.414 142.199,362.565 142.384 C 362.637 142.472,363.187 142.862,363.787 143.251 C 364.967 144.015,368.063 147.033,368.063 147.418 C 368.063 147.548,368.366 148.134,368.736 148.721 C 369.597 150.085,369.478 150.334,367.766 150.752 C 366.993 150.941,366.008 151.195,365.576 151.316 C 365.144 151.436,364.319 151.660,363.743 151.813 C 363.168 151.966,361.636 152.375,360.340 152.722 C 356.220 153.826,356.376 153.822,355.876 152.831 C 354.311 149.732,350.110 148.503,347.706 150.441 C 345.593 152.144,345.026 154.626,345.026 162.173 C 345.026 172.455,346.203 174.754,351.409 174.636 C 353.405 174.591,354.790 173.080,355.228 170.469 C 355.662 167.891,355.324 167.444,353.132 167.692 C 350.569 167.982,350.524 167.909,350.524 163.525 C 350.524 160.969,350.623 159.691,350.838 159.476 C 351.184 159.130,368.409 159.056,369.634 159.396 C 370.281 159.576,370.289 159.614,370.374 162.839 C 370.666 173.965,366.617 181.723,359.293 184.074 C 356.353 185.017,355.619 185.129,351.504 185.261 C 345.810 185.443,343.980 185.101,339.927 183.099 C 330.985 178.684,327.033 166.506,330.545 154.188 C 331.836 149.661,335.394 144.627,338.351 143.143 C 338.783 142.926,339.490 142.566,339.921 142.341 C 341.484 141.530,343.030 141.005,345.026 140.607 C 345.818 140.449,346.702 140.266,346.990 140.198 C 348.102 139.939,356.440 140.308,357.723 140.673 M136.293 140.758 C 135.935 141.116,136.127 184.195,136.489 184.690 C 136.908 185.263,159.837 185.152,162.173 184.566 C 162.893 184.385,164.188 184.059,165.050 183.841 C 172.991 181.837,177.064 175.343,174.567 168.668 C 173.615 166.125,169.303 162.565,167.174 162.565 C 166.960 162.565,166.712 162.448,166.623 162.304 C 166.534 162.160,165.997 162.042,165.430 162.042 C 164.862 162.042,164.398 161.943,164.398 161.822 C 164.398 161.559,165.572 160.995,166.119 160.995 C 167.060 160.995,170.364 159.122,171.576 157.902 C 174.924 154.530,174.812 148.635,171.333 145.158 C 169.914 143.740,169.168 143.284,166.361 142.123 C 165.493 141.764,163.693 141.349,161.298 140.957 C 158.892 140.562,136.665 140.386,136.293 140.758 M178.711 140.748 C 178.202 141.257,178.525 184.532,179.040 184.808 C 179.973 185.307,207.239 185.169,207.433 184.664 C 207.748 183.842,207.609 173.944,207.277 173.613 C 207.052 173.387,205.317 173.298,201.126 173.298 C 196.643 173.298,195.282 173.222,195.263 172.971 C 195.236 172.631,195.244 168.435,195.272 167.872 C 195.284 167.630,196.646 167.532,200.720 167.479 L 206.152 167.408 206.152 162.173 L 206.152 156.937 200.720 156.866 L 195.288 156.796 195.288 154.195 L 195.288 151.594 196.227 151.418 C 196.743 151.321,199.456 151.295,202.255 151.359 C 208.307 151.498,207.638 152.234,207.535 145.550 L 207.461 140.707 193.174 140.639 C 185.316 140.602,178.808 140.651,178.711 140.748 M210.911 140.747 C 210.600 141.058,210.729 184.366,211.042 184.743 C 211.402 185.176,237.955 185.239,238.761 184.808 C 239.317 184.510,239.550 174.937,239.022 174.101 C 238.826 173.793,237.853 173.736,233.530 173.784 C 230.184 173.822,228.087 173.741,227.753 173.562 C 227.239 173.287,227.228 172.982,227.162 156.994 L 227.094 140.707 219.092 140.638 C 214.691 140.600,211.009 140.649,210.911 140.747 M253.109 141.296 C 252.769 142.165,252.198 144.036,251.571 146.335 C 251.316 147.271,250.790 149.156,250.402 150.524 C 250.014 151.891,249.597 153.364,249.475 153.796 C 249.353 154.228,248.823 156.054,248.298 157.853 C 247.774 159.653,247.247 161.479,247.129 161.911 C 246.905 162.730,245.814 166.627,245.114 169.110 C 244.891 169.902,244.596 170.962,244.460 171.466 C 244.118 172.725,243.972 173.238,242.302 179.036 C 240.672 184.694,240.672 184.697,241.252 184.920 C 242.110 185.249,255.899 185.095,256.344 184.751 C 256.728 184.455,257.092 182.961,257.509 179.974 C 257.709 178.541,257.707 178.542,262.435 178.542 C 267.161 178.542,267.158 178.541,267.366 179.974 C 267.839 183.218,267.988 183.955,268.281 184.490 L 268.605 185.079 275.991 185.075 C 284.606 185.070,284.946 184.941,283.508 182.232 C 283.383 181.998,282.635 179.450,281.844 176.571 C 281.054 173.691,279.743 169.038,278.931 166.230 C 277.523 161.364,276.931 159.287,276.412 157.395 C 276.178 156.546,275.873 155.468,275.409 153.861 C 275.017 152.501,273.795 148.110,273.570 147.251 C 273.007 145.102,271.898 141.439,271.686 141.034 C 271.466 140.611,270.752 140.576,262.419 140.576 L 253.390 140.576 253.109 141.296 M286.038 140.750 C 285.698 141.091,285.835 184.422,286.178 184.764 C 286.635 185.222,299.985 185.210,300.603 184.751 C 301.002 184.456,301.051 183.445,301.111 174.268 L 301.178 164.113 301.812 165.760 C 302.160 166.667,302.661 167.903,302.924 168.507 C 303.188 169.111,303.403 169.671,303.403 169.753 C 303.403 169.834,303.625 170.400,303.897 171.011 C 304.168 171.621,304.714 172.945,305.109 173.953 C 305.505 174.961,305.981 176.139,306.166 176.571 C 306.352 177.003,306.752 178.004,307.055 178.796 C 307.358 179.588,307.712 180.471,307.841 180.759 C 307.971 181.047,308.370 182.042,308.729 182.971 C 309.581 185.175,309.234 185.099,318.031 185.017 L 325.524 184.948 325.524 162.827 L 325.524 140.707 318.194 140.707 L 310.864 140.707 310.796 151.505 C 310.758 157.444,310.640 162.300,310.534 162.295 C 310.427 162.291,310.029 161.378,309.649 160.267 C 309.269 159.155,308.725 157.657,308.441 156.937 C 308.156 156.217,307.320 153.979,306.581 151.963 C 305.843 149.948,305.002 147.827,304.713 147.251 C 304.424 146.675,304.187 146.061,304.188 145.886 C 304.188 145.711,303.995 145.122,303.760 144.577 C 303.524 144.032,303.245 143.351,303.141 143.063 C 303.037 142.775,302.761 142.098,302.527 141.558 L 302.103 140.576 294.158 140.576 C 289.788 140.576,286.134 140.654,286.038 140.750 M158.639 141.114 C 170.137 142.284,175.490 147.319,172.987 154.611 C 171.999 157.490,167.840 160.733,165.135 160.733 C 164.040 160.733,162.934 161.543,163.482 161.943 C 163.753 162.142,164.217 162.304,164.515 162.304 C 165.237 162.304,168.126 163.366,169.831 164.258 C 175.438 167.191,176.426 175.008,171.784 179.712 C 170.270 181.247,168.402 182.342,166.230 182.968 C 165.582 183.154,164.699 183.420,164.267 183.558 C 161.861 184.325,158.263 184.539,147.579 184.547 L 136.649 184.555 136.649 162.871 C 136.649 150.945,136.728 141.108,136.824 141.012 C 137.111 140.725,155.668 140.812,158.639 141.114 M207.008 146.008 L 207.079 151.047 201.062 151.047 C 194.033 151.047,194.503 150.822,194.503 154.188 C 194.503 157.529,194.130 157.330,200.397 157.330 C 206.745 157.330,206.072 156.682,205.965 162.696 L 205.890 166.885 200.531 166.956 C 194.242 167.039,194.650 166.815,194.591 170.225 C 194.524 174.126,193.977 173.822,201.056 173.822 L 207.068 173.822 207.068 179.188 L 207.068 184.555 193.194 184.555 L 179.319 184.555 179.296 183.639 C 179.282 183.135,179.272 182.369,179.272 181.937 C 179.272 181.505,179.282 172.080,179.296 160.992 L 179.319 140.833 193.128 140.901 L 206.937 140.969 207.008 146.008 M226.702 157.085 C 226.702 167.785,226.794 173.506,226.973 173.839 C 227.228 174.316,227.575 174.346,232.863 174.346 L 238.482 174.346 238.482 179.450 L 238.482 184.555 224.869 184.555 L 211.257 184.555 211.257 162.696 L 211.257 140.838 218.979 140.838 L 226.702 140.838 226.702 157.085 M271.142 141.165 C 271.375 141.455,272.911 146.513,273.984 150.524 C 274.196 151.315,274.481 152.346,274.619 152.814 C 274.878 153.696,274.912 153.818,275.992 157.723 C 277.375 162.723,278.292 165.859,278.520 166.361 C 278.650 166.649,278.812 167.179,278.879 167.539 C 279.049 168.444,279.984 171.938,280.771 174.607 C 281.561 177.288,282.374 180.120,282.762 181.545 C 282.919 182.120,283.209 183.033,283.406 183.573 L 283.765 184.555 276.322 184.555 C 272.228 184.555,268.819 184.458,268.745 184.338 C 268.672 184.219,268.422 183.071,268.192 181.786 C 267.961 180.501,267.687 179.156,267.584 178.796 L 267.396 178.141 262.506 178.070 L 257.616 177.999 257.325 178.986 C 257.165 179.529,256.832 180.975,256.585 182.199 L 256.137 184.424 248.749 184.494 C 244.433 184.534,241.361 184.464,241.361 184.325 C 241.361 184.096,242.139 181.342,242.664 179.712 C 242.803 179.280,243.164 177.984,243.465 176.832 C 243.767 175.681,244.132 174.326,244.276 173.822 C 244.421 173.318,244.599 172.611,244.671 172.251 C 244.744 171.891,244.904 171.361,245.026 171.073 C 245.148 170.785,245.430 169.902,245.653 169.110 C 246.164 167.290,247.836 161.381,248.134 160.340 C 248.257 159.908,248.506 159.025,248.686 158.377 C 248.867 157.729,249.177 156.677,249.376 156.040 C 249.575 155.402,249.738 154.664,249.738 154.400 C 249.738 154.136,249.846 153.715,249.977 153.465 C 250.318 152.814,252.706 144.636,253.205 142.408 C 253.350 141.760,253.601 141.144,253.763 141.038 C 254.313 140.679,270.848 140.800,271.142 141.165 M302.123 141.885 C 302.357 142.389,303.297 144.804,304.211 147.251 C 305.125 149.699,305.965 151.741,306.078 151.789 C 306.190 151.837,306.283 152.070,306.283 152.307 C 306.283 152.825,307.568 156.310,307.889 156.662 C 308.013 156.799,308.115 157.175,308.115 157.498 C 308.115 157.820,308.220 158.149,308.348 158.228 C 308.476 158.307,308.658 158.681,308.753 159.058 C 308.848 159.435,309.144 160.231,309.411 160.827 C 309.679 161.423,309.970 162.235,310.059 162.631 C 310.168 163.120,310.386 163.351,310.738 163.351 C 311.247 163.351,311.257 163.142,311.257 152.508 C 311.257 146.545,311.328 141.480,311.415 141.252 C 311.555 140.889,312.410 140.838,318.319 140.838 L 325.064 140.838 325.233 141.894 C 325.443 143.205,325.425 181.909,325.214 183.446 L 325.061 184.563 317.486 184.493 L 309.911 184.424 309.121 182.461 C 308.686 181.381,308.225 180.262,308.095 179.974 C 307.966 179.686,307.270 177.948,306.548 176.111 C 305.827 174.275,305.017 172.272,304.749 171.661 C 304.480 171.050,304.053 170.020,303.800 169.372 C 303.547 168.724,303.249 167.958,303.136 167.670 C 303.024 167.382,302.684 166.588,302.382 165.906 C 302.080 165.224,301.832 164.613,301.832 164.549 C 301.832 163.762,301.262 163.095,300.801 163.343 C 300.305 163.608,300.288 163.956,300.285 173.759 C 300.283 179.337,300.277 184.048,300.272 184.228 C 300.264 184.481,298.695 184.555,293.325 184.555 L 286.387 184.555 286.387 162.692 L 286.387 140.830 294.043 140.899 L 301.698 140.969 302.123 141.885 M151.842 150.245 C 151.454 150.969,151.485 157.508,151.878 157.751 C 153.035 158.466,157.322 157.321,158.294 156.037 C 159.322 154.681,159.149 152.351,157.940 151.257 C 156.396 149.859,152.403 149.196,151.842 150.245 M157.068 151.254 C 158.292 152.165,158.368 152.303,158.373 153.625 C 158.381 155.949,156.272 157.448,152.814 157.575 C 152.330 157.593,152.084 150.884,152.552 150.413 C 152.988 149.975,156.136 150.561,157.068 151.254 M261.931 153.730 C 261.879 153.910,261.526 155.766,261.148 157.853 C 260.256 162.769,259.986 164.155,259.512 166.264 C 259.297 167.219,259.160 168.338,259.207 168.751 L 259.293 169.503 262.286 169.634 C 265.431 169.771,266.134 169.573,265.864 168.624 C 265.796 168.387,265.554 167.192,265.325 165.969 C 265.097 164.745,264.805 163.331,264.676 162.827 C 264.548 162.323,264.125 160.144,263.737 157.984 C 262.877 153.200,262.935 153.403,262.435 153.403 C 262.210 153.403,261.983 153.550,261.931 153.730 M263.239 157.853 C 263.462 159.077,263.746 160.550,263.869 161.126 C 263.993 161.702,264.219 162.821,264.372 163.613 C 264.525 164.404,264.832 165.913,265.054 166.965 C 265.276 168.017,265.395 168.979,265.318 169.103 C 265.051 169.536,259.549 169.291,259.598 168.848 C 259.621 168.632,259.833 167.454,260.068 166.230 C 260.303 165.007,260.558 163.534,260.634 162.958 C 260.711 162.382,260.875 161.675,260.999 161.387 C 261.123 161.099,261.279 160.452,261.347 159.948 C 261.892 155.878,262.541 153.693,262.764 155.177 C 262.802 155.425,263.015 156.630,263.239 157.853 M95.335 157.788 C 98.277 161.013,101.650 161.873,104.299 160.075 C 105.173 159.482,105.243 159.473,105.480 159.916 C 105.780 160.475,105.560 161.514,105.140 161.529 C 102.409 161.625,94.843 161.440,94.676 161.273 C 94.418 161.015,94.052 158.208,94.188 157.526 C 94.314 156.892,94.571 156.951,95.335 157.788 M151.772 166.013 C 151.477 166.790,151.545 174.392,151.851 174.760 C 152.255 175.247,154.581 175.246,155.962 174.759 C 160.414 173.188,160.185 167.277,155.628 166.113 C 154.016 165.701,151.912 165.646,151.772 166.013 M156.548 167.083 C 160.616 169.416,158.504 174.537,153.403 174.708 L 152.487 174.738 152.415 170.458 L 152.343 166.177 153.986 166.367 C 154.889 166.471,156.042 166.793,156.548 167.083 " stroke="none" fill="#898989" fill-rule="evenodd"></path></g></svg>