<?xml version="1.0" encoding="utf-8"?>
<!-- Generator: Adobe Illustrator 19.0.0, SVG Export Plug-In . SVG Version: 6.00 Build 0)  -->
<svg version="1.1" id="Calque_1" xmlns="http://www.w3.org/2000/svg" xmlns:xlink="http://www.w3.org/1999/xlink" x="0px" y="0px"
	 viewBox="0 0 144 144" style="enable-background:new 0 0 144 144;" xml:space="preserve">
<style type="text/css">
	.st0{fill:#010101;}
	.st1{fill:#FFFFFF;}
</style>
<g>
	<path class="st0" d="M136,57h-8c-5.4-19.9-21.1-35.7-41-41V8V0h-8H65h-8v8v8c-19.9,5.4-35.7,21.1-41,41H8H0v8v14v8h8h8
		c5.4,19.9,21.1,35.7,41,41v8v8h8h14h8v-8v-8c19.9-5.4,35.7-21.1,41-41h8h8v-8V65v-8C144,57,136,57,136,57z M48.3,57
		c2.2-3.5,5.2-6.5,8.7-8.7V57H48.3z M48.3,87H57v8.7C53.5,93.5,50.5,90.5,48.3,87z M95.7,57H87v-8.7C90.5,50.6,93.5,53.5,95.7,57z
		 M95.7,87c-2.2,3.5-5.2,6.5-8.7,8.7V87H95.7z"/>
	<path class="st1" d="M136,61h-11.1C120.5,40.1,104,23.5,83,19.1V8V4h-4H65h-4v4v11.1C40.1,23.5,23.5,40,19.1,61H8H4v4v14v4h4h11.1
		c4.4,20.9,20.9,37.5,41.9,41.9V136v4h4h14h4v-4v-11.1c20.9-4.4,37.5-20.9,41.9-41.9H136h4v-4V65v-4H136z M41.9,61
		c3.2-8.9,10.2-15.8,19.1-19.1V61H41.9z M41.9,83H61v19.1C52.1,98.9,45.2,91.9,41.9,83z M102.1,61H83V42
		C91.9,45.2,98.8,52.1,102.1,61z M102.1,83c-3.2,8.9-10.2,15.8-19.1,19.1V83H102.1z"/>
	<path id="XMLID_17_" class="st0" d="M121.5,65C118.4,43,101,25.6,79,22.5V8H65v14.5C43,25.6,25.6,43,22.5,65H8v14h14.5
		c3.1,22,20.5,39.4,42.5,42.5V136h14v-14.5c22-3.1,39.4-20.5,42.5-42.5H136V65C136,65,121.5,65,121.5,65z M65,107.3
		c-14.3-2.8-25.5-14-28.3-28.3H65V107.3z M65,65H36.7c2.8-14.3,14-25.5,28.3-28.3V65z M79,107.3V79h28.3
		C104.5,93.3,93.3,104.5,79,107.3z M79,65V36.7c14.3,2.8,25.5,14,28.3,28.3C107.3,65,79,65,79,65z"/>
</g>
</svg>
