<?xml version="1.0" encoding="UTF-8" standalone="no"?>
<svg xmlns="http://www.w3.org/2000/svg" xmlns:xlink="http://www.w3.org/1999/xlink" width="139" height="210" version="1.0">
  <defs>
    <linearGradient id="z">
      <stop offset="0"/>
      <stop offset="1" stop-opacity="0"/>
    </linearGradient>
    <linearGradient id="y">
      <stop offset="0"/>
      <stop offset="1" stop-opacity="0"/>
    </linearGradient>
    <linearGradient id="x">
      <stop offset="0"/>
      <stop offset="1" stop-opacity="0"/>
    </linearGradient>
    <linearGradient id="w">
      <stop offset="0"/>
      <stop offset="1" stop-opacity="0"/>
    </linearGradient>
    <linearGradient id="v">
      <stop offset="0"/>
      <stop offset="1" stop-opacity="0"/>
    </linearGradient>
    <linearGradient id="u">
      <stop offset="0"/>
      <stop offset="1" stop-opacity="0"/>
    </linearGradient>
    <linearGradient id="t">
      <stop offset="0"/>
      <stop offset="1" stop-opacity="0"/>
    </linearGradient>
    <linearGradient id="s">
      <stop offset="0"/>
      <stop offset="1" stop-opacity="0"/>
    </linearGradient>
    <linearGradient id="r">
      <stop offset="0"/>
      <stop offset="1" stop-opacity="0"/>
    </linearGradient>
    <linearGradient id="q">
      <stop offset="0"/>
      <stop offset="1" stop-opacity="0"/>
    </linearGradient>
    <linearGradient id="p">
      <stop offset="0"/>
      <stop offset="1" stop-opacity="0"/>
    </linearGradient>
    <linearGradient id="o">
      <stop offset="0"/>
      <stop offset="1" stop-opacity="0"/>
    </linearGradient>
    <linearGradient id="n">
      <stop offset="0"/>
      <stop offset="1" stop-opacity="0"/>
    </linearGradient>
    <linearGradient id="l">
      <stop offset="0"/>
      <stop offset="1" stop-opacity="0"/>
    </linearGradient>
    <linearGradient id="k">
      <stop offset="0"/>
      <stop offset="1" stop-opacity="0"/>
    </linearGradient>
    <linearGradient id="j">
      <stop offset="0"/>
      <stop offset="1" stop-opacity="0"/>
    </linearGradient>
    <linearGradient id="h">
      <stop offset="0"/>
      <stop offset="1" stop-opacity="0"/>
    </linearGradient>
    <linearGradient id="f">
      <stop offset="0"/>
      <stop offset="1" stop-opacity="0"/>
    </linearGradient>
    <linearGradient id="e">
      <stop offset="0"/>
      <stop offset="1" stop-opacity="0"/>
    </linearGradient>
    <linearGradient id="d">
      <stop offset="0"/>
      <stop offset="1" stop-opacity="0"/>
    </linearGradient>
    <linearGradient id="c">
      <stop offset="0"/>
      <stop offset="1" stop-opacity="0"/>
    </linearGradient>
    <linearGradient id="b">
      <stop offset="0"/>
      <stop offset="1" stop-opacity="0"/>
    </linearGradient>
    <linearGradient id="a">
      <stop offset="0"/>
      <stop offset="1" stop-opacity="0"/>
    </linearGradient>
    <linearGradient xlink:href="#a" id="A" x1="143.09314" x2="156.26776" y1="184.3766" y2="184.27306" gradientTransform="matrix(1 0 0 .70386 -223.95125 -15.668304)" gradientUnits="userSpaceOnUse"/>
    <linearGradient xlink:href="#b" id="V" x1="139.90099" x2="131.10765" y1="56.837204" y2="56.800591" gradientTransform="matrix(1 0 0 .70386 -223.95125 -15.668304)" gradientUnits="userSpaceOnUse"/>
    <linearGradient xlink:href="#c" id="U" x1="142.54472" x2="135.27144" y1="165.39365" y2="165.35704" gradientTransform="matrix(1 0 0 .70386 -223.95125 -15.668304)" gradientUnits="userSpaceOnUse"/>
    <linearGradient xlink:href="#d" id="W" x1="138.15358" x2="150.14407" y1="146.92897" y2="146.79953" gradientTransform="matrix(1 0 0 .70386 -223.95125 -15.668304)" gradientUnits="userSpaceOnUse"/>
    <linearGradient xlink:href="#e" id="B" x1="-138.45709" x2="-115.20281" y1="138.74507" y2="138.39153" gradientTransform="matrix(1 0 0 .70386 223.95125 -15.668304)" gradientUnits="userSpaceOnUse"/>
    <linearGradient xlink:href="#f" id="Z" x1="149.19954" x2="156.97772" y1="169.0538" y2="169.05379" gradientTransform="matrix(1 0 0 .70386 -223.95125 -15.668304)" gradientUnits="userSpaceOnUse"/>
    <linearGradient id="g">
      <stop offset="0"/>
      <stop offset="1" stop-opacity="0"/>
    </linearGradient>
    <linearGradient xlink:href="#g" id="aa" x1="149.5531" x2="157.33128" y1="170.82156" y2="170.82155" gradientTransform="matrix(1 0 0 .70386 -230.24326 -15.668304)" gradientUnits="userSpaceOnUse"/>
    <linearGradient xlink:href="#h" id="ad" x1="-128.33989" x2="-148.6692" y1="73.771149" y2="73.594376" gradientTransform="matrix(1 0 0 .70386 223.95125 -15.668304)" gradientUnits="userSpaceOnUse"/>
    <linearGradient id="i">
      <stop offset="0"/>
      <stop offset="1" stop-opacity="0"/>
    </linearGradient>
    <linearGradient xlink:href="#i" id="ae" x1="-128.33989" x2="-148.6692" y1="73.771149" y2="73.594376" gradientTransform="matrix(1 0 0 .70386 223.95125 6.8551269)" gradientUnits="userSpaceOnUse"/>
    <linearGradient xlink:href="#j" id="ah" x1="-130.375" x2="-147.5" y1="88.412964" y2="89.037964" gradientTransform="matrix(1 0 0 .70386 223.95125 -15.668304)" gradientUnits="userSpaceOnUse"/>
    <linearGradient xlink:href="#k" id="af" x1="-181.72644" x2="-164.04878" y1="72.356941" y2="72.180161" gradientTransform="matrix(1 0 0 .70386 223.95125 -15.668304)" gradientUnits="userSpaceOnUse"/>
    <linearGradient xlink:href="#l" id="ai" x1="-180.13545" x2="-166.34688" y1="97.105675" y2="96.575348" gradientTransform="matrix(1 0 0 .70386 223.95125 -15.668304)" gradientUnits="userSpaceOnUse"/>
    <linearGradient id="m">
      <stop offset="0"/>
      <stop offset="1" stop-opacity="0"/>
    </linearGradient>
    <linearGradient xlink:href="#m" id="ag" x1="-181.72644" x2="-164.04878" y1="72.356941" y2="72.180161" gradientTransform="matrix(1 0 0 .70386 223.95125 6.8551269)" gradientUnits="userSpaceOnUse"/>
    <linearGradient xlink:href="#n" id="aj" x1="-129.08578" x2="-149.78554" y1="136.30573" y2="136.80573" gradientTransform="matrix(1 0 0 .70386 223.95125 -15.668304)" gradientUnits="userSpaceOnUse"/>
    <linearGradient xlink:href="#o" id="ak" x1="-191.97949" x2="-156.97771" y1="195.03996" y2="195.03996" gradientTransform="matrix(1 0 0 .70386 223.95125 -15.668304)" gradientUnits="userSpaceOnUse"/>
    <linearGradient xlink:href="#p" id="ac" x1="-133.375" x2="-147.25" y1="234.03796" y2="234.03796" gradientTransform="matrix(1 0 0 .70386 223.95125 -15.668304)" gradientUnits="userSpaceOnUse"/>
    <linearGradient xlink:href="#q" id="al" x1="-181.45343" x2="-162.625" y1="233.08086" y2="234.03796" gradientTransform="matrix(1 0 0 .70386 223.95125 -15.668304)" gradientUnits="userSpaceOnUse"/>
    <linearGradient xlink:href="#r" id="ao" x1="-130.4612" x2="-144.78011" y1="236.40572" y2="236.40572" gradientTransform="matrix(1 0 0 .70386 223.95125 -15.668304)" gradientUnits="userSpaceOnUse"/>
    <linearGradient xlink:href="#s" id="ap" x1="-177.5" x2="-164.375" y1="263.41296" y2="263.41296" gradientTransform="matrix(1 0 0 .70386 223.95125 -15.668304)" gradientUnits="userSpaceOnUse"/>
    <linearGradient xlink:href="#t" id="am" x1="-129.40054" x2="-144.95689" y1="269.28616" y2="269.28616" gradientTransform="matrix(1 0 0 .70386 223.95125 -15.668304)" gradientUnits="userSpaceOnUse"/>
    <linearGradient xlink:href="#u" id="an" x1="-182.43355" x2="-161.22034" y1="269.63971" y2="269.99329" gradientTransform="matrix(1 0 0 .70386 223.95125 -15.668304)" gradientUnits="userSpaceOnUse"/>
    <linearGradient xlink:href="#v" id="D" x1="-128.0721" x2="-132.93239" y1="133.64667" y2="133.64668" gradientTransform="matrix(1 0 0 .70386 223.95125 -15.668304)" gradientUnits="userSpaceOnUse"/>
    <linearGradient xlink:href="#w" id="E" x1="1147.3185" x2="1068.4814" y1="548.26862" y2="552.36456" gradientUnits="userSpaceOnUse"/>
    <linearGradient xlink:href="#x" id="X" x1="-157.75" x2="-163" y1="69.912964" y2="69.912964" gradientTransform="matrix(1 0 0 .70386 223.95125 -15.668304)" gradientUnits="userSpaceOnUse"/>
    <linearGradient xlink:href="#y" id="Y" x1="-164.8772" x2="-168.23596" y1="52.646339" y2="52.646339" gradientTransform="matrix(1 0 0 .70386 223.95125 -15.668304)" gradientUnits="userSpaceOnUse"/>
    <linearGradient xlink:href="#z" id="C" x1="-127.89793" x2="-132.05219" y1="228.8927" y2="228.8927" gradientTransform="matrix(1 0 0 .70386 223.95125 -15.668304)" gradientUnits="userSpaceOnUse"/>
    <linearGradient xlink:href="#y" id="ab" x1="-168.37979" x2="-172.71083" y1="63.07616" y2="63.07616" gradientTransform="matrix(1 0 0 .70386 223.95125 -15.668304)" gradientUnits="userSpaceOnUse"/>
    <linearGradient xlink:href="#w" id="F" x1="1147.3185" x2="1068.4814" y1="548.26862" y2="552.36456" gradientUnits="userSpaceOnUse"/>
    <linearGradient xlink:href="#w" id="G" x1="1147.3185" x2="1068.4814" y1="548.26862" y2="552.36456" gradientUnits="userSpaceOnUse"/>
    <linearGradient xlink:href="#w" id="H" x1="1147.3185" x2="1068.4814" y1="548.26862" y2="552.36456" gradientUnits="userSpaceOnUse"/>
    <linearGradient xlink:href="#w" id="I" x1="1147.3185" x2="1068.4814" y1="548.26862" y2="552.36456" gradientUnits="userSpaceOnUse"/>
    <linearGradient xlink:href="#w" id="J" x1="1147.3185" x2="1068.4814" y1="548.26862" y2="552.36456" gradientUnits="userSpaceOnUse"/>
    <linearGradient xlink:href="#w" id="K" x1="1147.3185" x2="1068.4814" y1="548.26862" y2="552.36456" gradientUnits="userSpaceOnUse"/>
    <linearGradient xlink:href="#w" id="L" x1="1147.3185" x2="1068.4814" y1="548.26862" y2="552.36456" gradientUnits="userSpaceOnUse"/>
    <linearGradient xlink:href="#w" id="M" x1="1147.3185" x2="1068.4814" y1="548.26862" y2="552.36456" gradientUnits="userSpaceOnUse"/>
    <linearGradient xlink:href="#w" id="N" x1="1147.3185" x2="1068.4814" y1="548.26862" y2="552.36456" gradientUnits="userSpaceOnUse"/>
    <linearGradient xlink:href="#w" id="O" x1="1147.3185" x2="1068.4814" y1="548.26862" y2="552.36456" gradientUnits="userSpaceOnUse"/>
    <linearGradient xlink:href="#w" id="P" x1="1147.3185" x2="1068.4814" y1="548.26862" y2="552.36456" gradientUnits="userSpaceOnUse"/>
    <linearGradient xlink:href="#w" id="Q" x1="1147.3185" x2="1068.4814" y1="548.26862" y2="552.36456" gradientUnits="userSpaceOnUse"/>
    <linearGradient xlink:href="#w" id="R" x1="1147.3185" x2="1068.4814" y1="548.26862" y2="552.36456" gradientUnits="userSpaceOnUse"/>
    <linearGradient xlink:href="#w" id="S" x1="1147.3185" x2="1068.4814" y1="548.26862" y2="552.36456" gradientUnits="userSpaceOnUse"/>
    <linearGradient xlink:href="#w" id="T" x1="1147.3185" x2="1068.4814" y1="548.26862" y2="552.36456" gradientUnits="userSpaceOnUse"/>
  </defs>
  <rect width="6.2919998" height="204.73276" x="-73.827614" y="2.3699682" fill="#fff" fill-rule="evenodd" stroke="#000" stroke-width="1.02157462" color="#000" overflow="visible" ry="1.3980726" style="marker:none" transform="scale(-1 1)"/>
  <rect width="6.2919998" height="204.73276" x="-73.827614" y="2.3699682" fill="url(#A)" fill-rule="evenodd" stroke="#000" stroke-width="1.02157462" color="#000" overflow="visible" ry="1.3980726" style="marker:none" transform="scale(-1 1)"/>
  <path fill="#fff" fill-rule="evenodd" stroke="#000" stroke-width=".97571284" d="M88.701244 68.860552v21.88557l49.875006.49771c.0217-12.75119-9.46437-33.87601-17.68366-41.83208-7.75663-.41354-14.28341-.26441-12.73392 3.57967 15.45126 11.77494-8.494076 19.13253-19.457426 15.86913z" color="#000" overflow="visible" style="marker:none"/>
  <rect width="6.4581122" height="94.46209" x="88.24659" y="65.902779" fill="#fff" fill-rule="evenodd" stroke="#000" stroke-width=".97571284" color="#000" overflow="visible" ry="2.272795" style="marker:none"/>
  <path fill="url(#B)" fill-rule="evenodd" stroke="#000" stroke-width=".97571284" d="M88.701244 68.860552v21.88557l49.875006.49771c.0217-12.75119-9.46437-33.87601-17.68366-41.83208-7.75663-.41354-14.28341-.26441-12.73392 3.57967 15.45126 11.77494-8.494076 19.13253-19.457426 15.86913z" color="#000" overflow="visible" style="marker:none"/>
  <rect width="9.2916241" height="102.50189" x="86.909615" y="57.942341" fill="#fff" fill-rule="evenodd" stroke="#000" stroke-width=".97571284" color="#000" overflow="visible" ry="3.0211711" style="marker:none"/>
  <rect width="9.2916241" height="102.50189" x="86.909615" y="57.942341" fill="url(#C)" fill-rule="evenodd" stroke="#000" stroke-width=".97571284" color="#000" overflow="visible" ry="3.0211711" style="marker:none"/>
  <rect width="9.2916241" height="39.033234" x="86.909615" y="57.942341" fill="#fff" fill-rule="evenodd" stroke="#000" stroke-width="1.0892235" color="#000" overflow="visible" ry="2.1928782" style="marker:none"/>
  <rect width="9.2916241" height="39.033234" x="86.909615" y="57.942341" fill="url(#D)" fill-rule="evenodd" stroke="#000" stroke-width="1.0892235" color="#000" overflow="visible" ry="2.1928782" style="marker:none"/>
  <g fill="#fff" fill-rule="evenodd" stroke="#000" stroke-linecap="round" stroke-linejoin="round" stroke-width="6.16270161" transform="matrix(-.2063 0 0 .12151 317.0916 -10.332563)">
    <path d="M1060.7314 558.38857c-1.1333.0758-3.6181 1.12909-3.3728 2.75185-1.5145-1.53866-2.5079-3.07733-3.1953-4.616l6.5681 1.86415zm-.2662 6.21385c-.6053 1.42837-.8182 3.09723-.7988 4.79354l3.8166 2.13047c-.1455-2.77739-1.1186-5.94662-3.0178-6.92401z" overflow="visible" style="marker:none"/>
    <path d="M1066.6339 565.8008c-.869 2.83523-4.628 2.68315-6.9675 1.90854l-.2934 1.625 3.7003 3.70083 5.3802-3.10659v-4.08339l-1.8196-.0444z" overflow="visible" style="marker:none"/>
    <path d="M1092.4459 514.77807c2.0233-.0262 3.8178.17189 5.7017.28512 2.2188 1.39914 4.4645 3.16252 6.9197 4.61369 1.0072 1.1534 1.6992 2.46991 1.7623 4.09531 2.5731 1.96059 3.575 4.31052 4.2763 6.73911l-.6739 23.76831c1.3451 2.90649 1.9559 5.88967-.2333 9.14963l-.2332 7.56853c2.9433 7.29466-4.0736 10.36637-8.6302 8.96821 2.3764-1.90038 3.3443-3.65646 3.3691-5.31354l-2.488-.20735c-.5222 1.58012-1.5924 3.10288-4.2503 4.45818 1.2225-1.54316 1.8509-3.09643 1.9178-4.63961l-.8552-.0518c-.8261 1.73975-2.3507 3.4701-4.354 5.20985 1.1835-1.79867 1.9157-3.59263 2.2289-5.39129l-.3629-.0259-.2332.0518c-1.0548 2.00693-2.5394 4.11398-5.2611 5.62456-1.5075.83667-3.4795.86594-4.976-.15551-.7478.91453-1.6983 1.6226-3.8097 2.20318-1.8567.51053-3.4729.36286-3.4729.36286 1.2201-2.01697 3.0518-3.50025 5.1315-4.7433l-4.2503 1.11455-4.95 6.37623s-2.913.93442-3.2137-1.24414c-.5492-3.97883 1.0359-7.55646 3.4469-11.0936-.6005.07-1.1752.24219-1.4772.54432-2.888 2.88837-4.9547 6.73909-11.0146 6.73909-1.5224.00001-4.4673-1.74299-4.8723-3.55098-.3586-1.60136.4028-3.21071 1.1403-4.17307-.6767-1.04078-1.1485-2.0209-1.0625-2.92891.096-1.01036.8486-1.57164 1.9437-1.50335.9702 1.1188 2.1263 2.23472 3.9134 2.20317 1.6405-.0289 4.1124-1.23092 3.8097-2.20317-.5726-1.83954-1.938-3.53052-3.4469-5.33944-2.2032-2.64141-5.091-3.84083-7.9823-4.17306-1.6829-.19337-4.6026-2.23532-5.7016-3.36956-1.5845-1.63527-2.1333-5.04973-2.6435-7.72405-.3987-2.09021-.622-4.06938-.622-4.06938.104-1.12434.6092-2.49232 2.2029-3.2918 2.6198-1.31416 5.3977-2.36417 7.2826-3.65467l4.6131-1.39966c-.073-.5541.048-1.02093.4406-1.34783 1.6954-1.41104 3.06-2.8305 4.2762-4.25081 2.2518-.76933 4.4618-1.53751 6.4792-2.30684l2.177-1.68479c.7765-3.15256 2.3214-5.92535 4.9241-8.16468 2.9378-1.01653 6.1771-1.89043 10.9887-1.9699.7381-.0724 1.4507-.095 2.1251-.10368z" overflow="visible" style="marker:none"/>
    <path d="M1111.1021 530.51502c-.7013-2.42856-1.6875-4.78587-4.2605-6.74646-.063-1.6254-.768-2.93-1.7752-4.08339-2.4553-1.45116-4.7044-3.21687-6.9231-4.61601-2.5118-.15099-4.8583-.4673-7.8108-.17753-4.8116.0795-8.0684.9364-11.0061 1.95292-2.6535 2.28303-4.2093 5.11497-4.9705 8.34431 7.2728-1.388 11.4338-1.21993 15.9766-1.24276-3.7683 1.18358-6.7554 2.27599-9.0533 3.55076-1.9094 1.05916-3.0642 2.577-3.5504 4.26092-.9912 3.43282 1.8708 7.17837 4.7929 10.20848.6815 5.08876 2.3412 8.90394 4.4379 13.04908-1.1942 2.93204-2.4479 5.49899-3.3728 9.32077-1.3701.16834-1.8839.57172-3.0177.97647-4.9672 6.09548-9.9721 11.63084-9.0535 18.28645.3007 2.17855 3.1953 1.24279 3.1953 1.24279l4.9706-6.39139 16.8641-4.43847 13.3139 1.06523 1.2426-44.56217z" overflow="visible" style="marker:none"/>
    <path d="M1107.1079 547.9138c2.7021 5.94952 8.6295 11.5765.1776 18.64155 8.3177 10.46147-.554 15.05895-5.9469 13.40416 4.4259-3.53933 4.0076-6.57748 1.5977-9.40954-.5157 2.90156-.166 5.89424-4.9705 8.34431 1.7579-2.21924 2.2952-4.43846 1.6863-6.6577-.395 2.39676-2.2106 4.79353-4.9704 7.19031 1.5186-2.30801 2.2979-4.616 2.3964-6.924-1.1013 2.39677-2.5955 5.28103-6.0355 7.1903-1.5075.83668-3.4741.84393-4.9705-.17752-.7479.91454-1.7052 1.63864-3.8167 2.21922-1.8567.51054-3.4615.35508-3.4615.35508 2.7661-4.5733 8.6212-6.36608 13.58-8.9657-2.9698 1.20052-5.1227 2.89127-9.1421 3.462 3.0005-1.60565 4.2867-3.49708 5.9468-5.32615-2.1586 1.69688-4.5992 3.29974-8.1658 4.52723 1.9919-3.01815 4.4784-6.03632 5.148-9.05447" overflow="visible" style="marker:none"/>
    <path d="M1092.4463 514.7773c-.6744.009-1.3989.0463-2.137.11873-4.8116.0795-8.0442.94241-10.982 1.95894-2.6027 2.23933-4.1505 5.0097-4.927 8.16226l-2.1667 1.69182c-2.0174.76933-4.2187 1.5161-6.4705 2.28543-1.2162 1.42031-2.5786 2.86301-4.274 4.27406-.3927.3269-.5178.78153-.4452 1.33564l-4.6303 1.39501c-1.8848 1.2905-4.652 2.3366-7.2718 3.65075-1.5937.79948-2.0924 2.17025-2.1964 3.29459 0 0 .2246 1.97607.6233 4.06629.5102 2.67432 1.0572 6.11146 2.6416 7.74673 1.099 1.13424 4.0158 3.16059 5.6987 3.35395 2.8913.33224 5.7809 1.54361 7.9842 4.18501 1.5089 1.80892 2.8704 3.50304 3.443 5.34258.3027.97225-2.1586 2.16745-3.7991 2.19639-1.7872.0315-2.9477-1.0776-3.9179-2.19639-1.0951-.0683-1.8634.47368-1.959 1.48404-.086.90801.3918 1.89765 1.0685 2.93842-.7375.96235-1.4864 2.58365-1.1278 4.18501.405 1.808 3.3452 3.53204 4.8676 3.53204 6.06 0 8.1237-3.8492 11.0117-6.73758.302-.30213.8836-.46424 1.484-.53426-2.411 3.53714-4.0218 7.12186-3.4727 11.10068.3007 2.17855 3.2353 1.21693 3.2353 1.21692l.059-.089c.6301 2.02928 2.8485 4.20741 6.144 1.2466-1.303.0475-2.4635-.26236-3.2946-1.39501 1.9882.59317 3.4373.58757 4.0069-.35617-.8525-.59868-1.2026-1.41342-1.3059-2.16671.5653-.0474 1.2138-.12976 1.9292-.32649 2.1115-.58058 3.0513-1.31156 3.7992-2.22607 1.4964 1.02144 3.4789 1.01475 4.9864.17808 2.7217-1.51058 4.1988-3.63245 5.2535-5.63938l.2375-.0594.3561.0297c-.3131 1.79867-1.0426 3.60326-2.226 5.40194 2.0032-1.73975 3.537-3.48411 4.3631-5.22385l.8607.0594c-.067 1.54318-.7068 3.11675-1.9292 4.65991 2.6578-1.3553 3.7221-2.90171 4.2443-4.48183l2.4932.20777c-.025 1.65708-1.0071 3.4125-3.3836 5.31289 4.5567 1.39816 11.5805-1.669 8.6372-8.96365l.2374-7.56864c2.1892-3.25997 1.5826-6.23525.2375-9.14173l.6826-23.77445c-.7013-2.42859-1.701-4.77698-4.274-6.73758-.063-1.62539-.7737-2.94256-1.7809-4.09597-2.4551-1.45118-4.6969-3.2014-6.9157-4.60055-1.8838-.11323-3.6755-.32301-5.6987-.29681zm-8.5184 62.56746c-1.207.72141-2.3258 1.55259-3.2946 2.4932.1921-.60675.3867-1.20699.6233-1.78086l2.6713-.71234z" overflow="visible" style="marker:none"/>
    <path d="M1065.4801 537.17272s.7281 2.66413 1.7751 3.24008c.8876.48823 1.9527.0666 2.6184-.66578.7972-.8771 1.4645-2.75184 1.4978-2.79623-2.3741-.68212-3.6691.4154-5.5363.3107-1.9378-.10868-2.3965-1.15401-2.3965-1.15401v-.0888m-16.0209 8.78819c1.139.51649 2.9438.61452 3.6834.0888.2201 1.47829-1.2238 2.48328-2.6628 2.21923m9.586 9.23197c5.0974.42602 8.2294 3.7112 10.7398 7.90048m-3.9941-32.31202s.5769.53261 1.1538.35508c.7498-.23075 1.6541-.97812 1.6541-.97812 3.8642 0 6.8777 2.74232 9.2633 5.15028m-2.7515 2.97377s2.6516-1.49799 2.5295-.48823c-.122 1.00974-2.1015 1.58607-3.0177 4.52722-.6879 2.20814-2.0234 4.12218-3.8166 5.72562-2.7837 2.48886-5.6806 2.6187-9.1422 3.15131m-6.9676-12.42769s.111 2.08607 1.7752 2.66308c1.6642.57699 3.861-1.04304 4.8817-.35508 1.0207.68796-2.1335 1.96942-.7988 3.10691 2.5518 2.17485 7.8108-2.92938 7.8108-2.92938m24.4087 10.82985s1.3535 2.44116.2662 6.21385c-1.0873 3.7727-2.3521 5.03766-4.6155 8.87693-2.2633 3.83927-3.7278 5.59246-4.4379 6.48016-.6677.83469-1.8253 3.16175-2.4852 5.41492-.2242.76553-.5513 2.79724 1.1538 3.99462-.5696.94374-2.006.94824-3.9941.35507.831 1.13264 1.981 1.46786 3.284 1.42032-4.1771 3.75299-6.6302-.77154-6.3018-2.75186 1.1385-6.86532 6.1801-12.47319 9.2309-18.81908l1.6864-3.55076m-17.4854-1.59785s7.5466 5.48576 7.8995 2.66307c.5001-4.00031-13.1807-8.38869-13.1807-8.38869" overflow="visible" style="marker:none"/>
  </g>
  <g fill="url(#E)" fill-rule="evenodd" stroke="#000" stroke-linecap="round" stroke-linejoin="round" stroke-width="6.16270161" transform="matrix(-.2063 0 0 .12151 317.0916 -10.332563)">
    <path fill="url(#F)" d="M1060.7314 558.38857c-1.1333.0758-3.6181 1.12909-3.3728 2.75185-1.5145-1.53866-2.5079-3.07733-3.1953-4.616l6.5681 1.86415z" overflow="visible" style="marker:none"/>
    <path fill="url(#G)" d="M1060.4652 564.60242c-.6053 1.42837-.8182 3.09723-.7988 4.79354l3.8166 2.13047c-.1455-2.77739-1.1186-5.94662-3.0178-6.92401z" overflow="visible" style="marker:none"/>
    <path fill="url(#H)" d="M1066.6339 565.8008c-.869 2.83523-4.628 2.68315-6.9675 1.90854l-.2934 1.625 3.7003 3.70083 5.3802-3.10659v-4.08339l-1.8196-.0444z" overflow="visible" style="marker:none"/>
    <path fill="url(#I)" d="M1092.4459 514.77807c2.0233-.0262 3.8178.17189 5.7017.28512 2.2188 1.39914 4.4645 3.16252 6.9197 4.61369 1.0072 1.1534 1.6992 2.46991 1.7623 4.09531 2.5731 1.96059 3.575 4.31052 4.2763 6.73911l-.6739 23.76831c1.3451 2.90649 1.9559 5.88967-.2333 9.14963l-.2332 7.56853c2.9433 7.29466-4.0736 10.36637-8.6302 8.96821 2.3764-1.90038 3.3443-3.65646 3.3691-5.31354l-2.488-.20735c-.5222 1.58012-1.5924 3.10288-4.2503 4.45818 1.2225-1.54316 1.8509-3.09643 1.9178-4.63961l-.8552-.0518c-.8261 1.73975-2.3507 3.4701-4.354 5.20985 1.1835-1.79867 1.9157-3.59263 2.2289-5.39129l-.3629-.0259-.2332.0518c-1.0548 2.00693-2.5394 4.11398-5.2611 5.62456-1.5075.83667-3.4795.86594-4.976-.15551-.7478.91453-1.6983 1.6226-3.8097 2.20318-1.8567.51053-3.4729.36286-3.4729.36286 1.2201-2.01697 3.0518-3.50025 5.1315-4.7433l-4.2503 1.11455-4.95 6.37623s-2.913.93442-3.2137-1.24414c-.5492-3.97883 1.0359-7.55646 3.4469-11.0936-.6005.07-1.1752.24219-1.4772.54432-2.888 2.88837-4.9547 6.73909-11.0146 6.73909-1.5224.00001-4.4673-1.74299-4.8723-3.55098-.3586-1.60136.4028-3.21071 1.1403-4.17307-.6767-1.04078-1.1485-2.0209-1.0625-2.92891.096-1.01036.8486-1.57164 1.9437-1.50335.9702 1.1188 2.1263 2.23472 3.9134 2.20317 1.6405-.0289 4.1124-1.23092 3.8097-2.20317-.5726-1.83954-1.938-3.53052-3.4469-5.33944-2.2032-2.64141-5.091-3.84083-7.9823-4.17306-1.6829-.19337-4.6026-2.23532-5.7016-3.36956-1.5845-1.63527-2.1333-5.04973-2.6435-7.72405-.3987-2.09021-.622-4.06938-.622-4.06938.104-1.12434.6092-2.49232 2.2029-3.2918 2.6198-1.31416 5.3977-2.36417 7.2826-3.65467l4.6131-1.39966c-.073-.5541.048-1.02093.4406-1.34783 1.6954-1.41104 3.06-2.8305 4.2762-4.25081 2.2518-.76933 4.4618-1.53751 6.4792-2.30684l2.177-1.68479c.7765-3.15256 2.3214-5.92535 4.9241-8.16468 2.9378-1.01653 6.1771-1.89043 10.9887-1.9699.7381-.0724 1.4507-.095 2.1251-.10368z" overflow="visible" style="marker:none"/>
    <path fill="url(#J)" d="M1111.1021 530.51502c-.7013-2.42856-1.6875-4.78587-4.2605-6.74646-.063-1.6254-.768-2.93-1.7752-4.08339-2.4553-1.45116-4.7044-3.21687-6.9231-4.61601-2.5118-.15099-4.8583-.4673-7.8108-.17753-4.8116.0795-8.0684.9364-11.0061 1.95292-2.6535 2.28303-4.2093 5.11497-4.9705 8.34431 7.2728-1.388 11.4338-1.21993 15.9766-1.24276-3.7683 1.18358-6.7554 2.27599-9.0533 3.55076-1.9094 1.05916-3.0642 2.577-3.5504 4.26092-.9912 3.43282 1.8708 7.17837 4.7929 10.20848.6815 5.08876 2.3412 8.90394 4.4379 13.04908-1.1942 2.93204-2.4479 5.49899-3.3728 9.32077-1.3701.16834-1.8839.57172-3.0177.97647-4.9672 6.09548-9.9721 11.63084-9.0535 18.28645.3007 2.17855 3.1953 1.24279 3.1953 1.24279l4.9706-6.39139 16.8641-4.43847 13.3139 1.06523 1.2426-44.56217z" overflow="visible" style="marker:none"/>
    <path fill="url(#K)" d="M1107.1079 547.9138c2.7021 5.94952 8.6295 11.5765.1776 18.64155 8.3177 10.46147-.554 15.05895-5.9469 13.40416 4.4259-3.53933 4.0076-6.57748 1.5977-9.40954-.5157 2.90156-.166 5.89424-4.9705 8.34431 1.7579-2.21924 2.2952-4.43846 1.6863-6.6577-.395 2.39676-2.2106 4.79353-4.9704 7.19031 1.5186-2.30801 2.2979-4.616 2.3964-6.924-1.1013 2.39677-2.5955 5.28103-6.0355 7.1903-1.5075.83668-3.4741.84393-4.9705-.17752-.7479.91454-1.7052 1.63864-3.8167 2.21922-1.8567.51054-3.4615.35508-3.4615.35508 2.7661-4.5733 8.6212-6.36608 13.58-8.9657-2.9698 1.20052-5.1227 2.89127-9.1421 3.462 3.0005-1.60565 4.2867-3.49708 5.9468-5.32615-2.1586 1.69688-4.5992 3.29974-8.1658 4.52723 1.9919-3.01815 4.4784-6.03632 5.148-9.05447" overflow="visible" style="marker:none"/>
    <path fill="url(#L)" d="M1092.4463 514.7773c-.6744.009-1.3989.0463-2.137.11873-4.8116.0795-8.0442.94241-10.982 1.95894-2.6027 2.23933-4.1505 5.0097-4.927 8.16226l-2.1667 1.69182c-2.0174.76933-4.2187 1.5161-6.4705 2.28543-1.2162 1.42031-2.5786 2.86301-4.274 4.27406-.3927.3269-.5178.78153-.4452 1.33564l-4.6303 1.39501c-1.8848 1.2905-4.652 2.3366-7.2718 3.65075-1.5937.79948-2.0924 2.17025-2.1964 3.29459 0 0 .2246 1.97607.6233 4.06629.5102 2.67432 1.0572 6.11146 2.6416 7.74673 1.099 1.13424 4.0158 3.16059 5.6987 3.35395 2.8913.33224 5.7809 1.54361 7.9842 4.18501 1.5089 1.80892 2.8704 3.50304 3.443 5.34258.3027.97225-2.1586 2.16745-3.7991 2.19639-1.7872.0315-2.9477-1.0776-3.9179-2.19639-1.0951-.0683-1.8634.47368-1.959 1.48404-.086.90801.3918 1.89765 1.0685 2.93842-.7375.96235-1.4864 2.58365-1.1278 4.18501.405 1.808 3.3452 3.53204 4.8676 3.53204 6.06 0 8.1237-3.8492 11.0117-6.73758.302-.30213.8836-.46424 1.484-.53426-2.411 3.53714-4.0218 7.12186-3.4727 11.10068.3007 2.17855 3.2353 1.21693 3.2353 1.21692l.059-.089c.6301 2.02928 2.8485 4.20741 6.144 1.2466-1.303.0475-2.4635-.26236-3.2946-1.39501 1.9882.59317 3.4373.58757 4.0069-.35617-.8525-.59868-1.2026-1.41342-1.3059-2.16671.5653-.0474 1.2138-.12976 1.9292-.32649 2.1115-.58058 3.0513-1.31156 3.7992-2.22607 1.4964 1.02144 3.4789 1.01475 4.9864.17808 2.7217-1.51058 4.1988-3.63245 5.2535-5.63938l.2375-.0594.3561.0297c-.3131 1.79867-1.0426 3.60326-2.226 5.40194 2.0032-1.73975 3.537-3.48411 4.3631-5.22385l.8607.0594c-.067 1.54318-.7068 3.11675-1.9292 4.65991 2.6578-1.3553 3.7221-2.90171 4.2443-4.48183l2.4932.20777c-.025 1.65708-1.0071 3.4125-3.3836 5.31289 4.5567 1.39816 11.5805-1.669 8.6372-8.96365l.2374-7.56864c2.1892-3.25997 1.5826-6.23525.2375-9.14173l.6826-23.77445c-.7013-2.42859-1.701-4.77698-4.274-6.73758-.063-1.62539-.7737-2.94256-1.7809-4.09597-2.4551-1.45118-4.6969-3.2014-6.9157-4.60055-1.8838-.11323-3.6755-.32301-5.6987-.29681zm-8.5184 62.56746c-1.207.72141-2.3258 1.55259-3.2946 2.4932.1921-.60675.3867-1.20699.6233-1.78086l2.6713-.71234z" overflow="visible" style="marker:none"/>
    <path fill="url(#M)" d="M1065.4801 537.17272s.7281 2.66413 1.7751 3.24008c.8876.48823 1.9527.0666 2.6184-.66578.7972-.8771 1.4645-2.75184 1.4978-2.79623-2.3741-.68212-3.6691.4154-5.5363.3107-1.9378-.10868-2.3965-1.15401-2.3965-1.15401v-.0888" overflow="visible" style="marker:none"/>
    <path fill="url(#N)" d="M1047.4177 544.80687c1.139.51649 2.9438.61452 3.6834.0888.2201 1.47829-1.2238 2.48328-2.6628 2.21923" overflow="visible" style="marker:none"/>
    <path fill="url(#O)" d="M1058.0243 556.34687c5.0974.42602 8.2294 3.7112 10.7398 7.90048" overflow="visible" style="marker:none"/>
    <path fill="url(#P)" d="M1064.77 531.93533s.5769.53261 1.1538.35508c.7498-.23075 1.6541-.97812 1.6541-.97812 3.8642 0 6.8777 2.74232 9.2633 5.15028" overflow="visible" style="marker:none"/>
    <path fill="url(#Q)" d="M1074.0897 539.43634s2.6516-1.49799 2.5295-.48823c-.122 1.00974-2.1015 1.58607-3.0177 4.52722-.6879 2.20814-2.0234 4.12218-3.8166 5.72562-2.7837 2.48886-5.6806 2.6187-9.1422 3.15131" overflow="visible" style="marker:none"/>
    <path fill="url(#R)" d="M1053.6751 539.92457s.111 2.08607 1.7752 2.66308c1.6642.57699 3.861-1.04304 4.8817-.35508 1.0207.68796-2.1335 1.96942-.7988 3.10691 2.5518 2.17485 7.8108-2.92938 7.8108-2.92938" overflow="visible" style="marker:none"/>
    <path fill="url(#S)" d="M1091.7527 553.23995s1.3535 2.44116.2662 6.21385c-1.0873 3.7727-2.3521 5.03766-4.6155 8.87693-2.2633 3.83927-3.7278 5.59246-4.4379 6.48016-.6677.83469-1.8253 3.16175-2.4852 5.41492-.2242.76553-.5513 2.79724 1.1538 3.99462-.5696.94374-2.006.94824-3.9941.35507.831 1.13264 1.981 1.46786 3.284 1.42032-4.1771 3.75299-6.6302-.77154-6.3018-2.75186 1.1385-6.86532 6.1801-12.47319 9.2309-18.81908l1.6864-3.55076" overflow="visible" style="marker:none"/>
    <path fill="url(#T)" d="M1068.0541 559.27627s7.5466 5.48576 7.8995 2.66307c.5001-4.00031-13.1807-8.38869-13.1807-8.38869" overflow="visible" style="marker:none"/>
  </g>
  <path fill="#ccc" fill-rule="evenodd" stroke="#000" stroke-width=".97571284" d="M50.993994 13.871708V196.09695l19.26563 1.40771 19.26562-1.40771V13.871708l-19.26562-1.407714z" color="#000" overflow="visible" style="marker:none"/>
  <rect width="5.75" height="186.38989" x="58.263241" y="11.789364" fill="#fff" fill-rule="evenodd" stroke="#000" stroke-width=".97571284" color="#000" overflow="visible" ry="1.3997878" style="marker:none"/>
  <rect width="3.75" height="186.0477" x="54.513241" y="11.960453" fill="#fff" fill-rule="evenodd" stroke="#000" stroke-width=".97571284" color="#000" overflow="visible" ry=".96429831" style="marker:none"/>
  <rect width="3.75" height="184.67903" x="50.763241" y="12.644787" fill="#fff" fill-rule="evenodd" stroke="#000" stroke-width=".97571284" color="#000" overflow="visible" ry=".93084002" style="marker:none"/>
  <rect width="6.2919998" height="186.76292" x="-76.597237" y="11.602978" fill="#fff" fill-rule="evenodd" stroke="#000" stroke-width=".97571284" color="#000" overflow="visible" ry="1.2753607" style="marker:none" transform="scale(-1 1)"/>
  <rect width="5.75" height="186.38989" x="-82.263237" y="11.789364" fill="#fff" fill-rule="evenodd" stroke="#000" stroke-width=".97571284" color="#000" overflow="visible" ry="1.3997878" style="marker:none" transform="scale(-1 1)"/>
  <rect width="3.75" height="186.0477" x="-86.013237" y="11.960453" fill="#fff" fill-rule="evenodd" stroke="#000" stroke-width=".97571284" color="#000" overflow="visible" ry=".96429831" style="marker:none" transform="scale(-1 1)"/>
  <rect width="3.75" height="184.67903" x="-89.763237" y="12.644787" fill="#fff" fill-rule="evenodd" stroke="#000" stroke-width=".97571284" color="#000" overflow="visible" ry=".93084002" style="marker:none" transform="scale(-1 1)"/>
  <rect width="6.2919998" height="186.76317" x="-70.305229" y="11.602726" fill="#fff" fill-rule="evenodd" stroke="#000" stroke-width=".97571284" color="#000" overflow="visible" ry="1.2753621" style="marker:none" transform="scale(-1 1)"/>
  <rect width="3.75" height="186.0477" x="-86.013237" y="11.960453" fill="url(#U)" fill-rule="evenodd" stroke="#000" stroke-width=".97571284" color="#000" overflow="visible" ry=".96429831" style="marker:none" transform="scale(-1 1)"/>
  <rect width="3.75" height="184.67903" x="-89.763237" y="12.644787" fill="url(#V)" fill-rule="evenodd" stroke="#000" stroke-width=".97571284" color="#000" overflow="visible" ry=".93084002" style="marker:none" transform="scale(-1 1)"/>
  <rect width="5.75" height="186.38989" x="-82.263237" y="11.789364" fill="url(#W)" fill-rule="evenodd" stroke="#000" stroke-width=".97571284" color="#000" overflow="visible" ry="1.3997878" style="marker:none" transform="scale(-1 1)"/>
  <rect width="5.75" height="186.38989" x="58.263241" y="11.789364" fill="url(#X)" fill-rule="evenodd" stroke="#000" stroke-width=".97571284" color="#000" overflow="visible" ry="1.3997878" style="marker:none"/>
  <rect width="3.75" height="186.0477" x="54.513241" y="11.960453" fill="url(#Y)" fill-rule="evenodd" stroke="#000" stroke-width=".97571284" color="#000" overflow="visible" ry=".96429831" style="marker:none"/>
  <rect width="6.2919998" height="186.76317" x="-70.305229" y="11.602726" fill="url(#Z)" fill-rule="evenodd" stroke="#000" stroke-width=".97571284" color="#000" overflow="visible" ry="1.2753621" style="marker:none" transform="scale(-1 1)"/>
  <rect width="6.2919998" height="186.76317" x="-76.597237" y="11.602726" fill="url(#aa)" fill-rule="evenodd" stroke="#000" stroke-width=".97571284" color="#000" overflow="visible" ry="1.2753621" style="marker:none" transform="scale(-1 1)"/>
  <rect width="3.75" height="184.67903" x="50.763241" y="12.644787" fill="url(#ab)" fill-rule="evenodd" stroke="#000" stroke-width=".97571284" color="#000" overflow="visible" ry=".93084002" style="marker:none"/>
  <path fill="#fff" fill-rule="evenodd" stroke="#000" stroke-width=".96846628" d="M89.496744 58.144952c-12.54483 24.75644-17.87448 29.19903-38.7955 77.538058l.0828 12.73144c12.28812-26.78752 25.12281-52.036228 38.82347-74.846848z" color="#000" overflow="visible" style="marker:none"/>
  <path fill="#fff" fill-rule="evenodd" stroke="#000" stroke-width=".97571284" d="m50.794994 33.865642.00025 3.87119c13.20225-1.90898 26.155-1.7849 38.906 0v-3.87119c-13.02928-1.95087-25.74498-1.83223-38.90625 0zm0 22.52344.00025 3.87119c13.20225-1.90898 26.155-1.7849 38.906 0v-3.87119c-13.02928-1.95087-25.74498-1.83224-38.90625 0z" color="#000" overflow="visible" style="marker:none"/>
  <path fill="#fff" fill-rule="evenodd" stroke="#000" stroke-width=".96773535" d="m50.794994 150.34271.00025-3.87119c13.32369.6268 25.82727.64128 38.906 0v3.87119c-13.26834.83369-25.97732.79331-38.90625 0z" color="#000" overflow="visible" style="marker:none"/>
  <path fill="url(#ac)" fill-rule="evenodd" stroke="#000" stroke-width=".96773535" d="m50.794994 150.34271.00025-3.87119c13.32369.6268 25.82727.64128 38.906 0v3.87119c-13.26834.83369-25.97732.79331-38.90625 0z" color="#000" overflow="visible" style="marker:none"/>
  <path fill="#fff" fill-rule="evenodd" stroke="#000" stroke-width=".96773535" d="m50.794994 175.68157.00025-3.87118c13.32369.62679 25.82727.64128 38.906 0v3.87118c-13.26834.83369-25.97732.79331-38.90625 0z" color="#000" overflow="visible" style="marker:none"/>
  <path fill="url(#ad)" fill-rule="evenodd" stroke="#000" stroke-width=".97571284" d="m50.794994 33.865642.00025 3.87119c13.20225-1.90898 26.155-1.7849 38.906 0v-3.87119c-13.02928-1.95087-25.74498-1.83223-38.90625 0z" color="#000" overflow="visible" style="marker:none"/>
  <path fill="url(#ae)" fill-rule="evenodd" stroke="#000" stroke-width=".97571284" d="m50.794994 56.389082.00025 3.87119c13.20225-1.90898 26.155-1.7849 38.906 0v-3.87119c-13.02928-1.95087-25.74498-1.83224-38.90625 0z" color="#000" overflow="visible" style="marker:none"/>
  <path fill="url(#af)" fill-rule="evenodd" stroke="#000" stroke-width=".97571284" d="m50.794994 33.865642.00025 3.87119c13.20225-1.90898 26.155-1.7849 38.906 0v-3.87119c-13.02928-1.95087-25.74498-1.83223-38.90625 0z" color="#000" overflow="visible" style="marker:none"/>
  <path fill="url(#ag)" fill-rule="evenodd" stroke="#000" stroke-width=".97571284" d="m50.794994 56.389082.00025 3.87119c13.20225-1.90898 26.155-1.7849 38.906 0v-3.87119c-13.02928-1.95087-25.74498-1.83224-38.90625 0z" color="#000" overflow="visible" style="marker:none"/>
  <path fill="#fff" fill-rule="evenodd" stroke="#000" stroke-width=".97571284" d="M89.496744 34.213792c-8.71289 4.27203-26.10578 10.47283-38.7955 18.41405l.0828 5.69287c13.17977-8.7554 31.94875-15.00837 38.82347-18.53827z" color="#000" overflow="visible" style="marker:none"/>
  <path fill="url(#ah)" fill-rule="evenodd" stroke="#000" stroke-width=".97571284" d="M89.496744 34.213792c-8.71289 4.27203-26.10578 10.47283-38.7955 18.41405l.0828 5.69287c13.17977-8.7554 31.94875-15.00837 38.82347-18.53828z" color="#000" overflow="visible" style="marker:none"/>
  <path fill="url(#ai)" fill-rule="evenodd" stroke="#000" stroke-width=".97571284" d="M89.496744 34.213792c-8.71289 4.27203-26.10578 10.47283-38.7955 18.41405l.0828 5.69287c13.17977-8.7554 31.94875-15.00837 38.82347-18.53828z" color="#000" overflow="visible" style="marker:none"/>
  <path fill="url(#aj)" fill-rule="evenodd" stroke="#000" stroke-width=".96846628" d="M89.496744 58.144952c-12.54483 24.75644-17.87448 29.19903-38.7955 77.538058l.0828 12.73143c12.28812-26.78751 25.12281-52.036228 38.82347-74.846848z" color="#000" overflow="visible" style="marker:none"/>
  <path fill="url(#ak)" fill-rule="evenodd" stroke="#000" stroke-width=".96846628" d="M89.496744 58.144952c-12.54483 24.75644-17.87448 29.19903-38.7955 77.538058l.0828 12.73143c12.28812-26.78751 25.12281-52.036228 38.82347-74.846848z" color="#000" overflow="visible" style="marker:none"/>
  <path fill="url(#al)" fill-rule="evenodd" stroke="#000" stroke-width=".96773535" d="m50.794994 150.34271.00025-3.87119c13.32369.6268 25.82727.64128 38.906 0v3.87119c-13.26834.83369-25.97732.79331-38.90625 0z" color="#000" overflow="visible" style="marker:none"/>
  <path fill="url(#am)" fill-rule="evenodd" stroke="#000" stroke-width=".96773535" d="m50.794994 175.68157.00025-3.87118c13.32369.62679 25.82727.64128 38.906 0v3.87118c-13.26834.83369-25.97732.79331-38.90625 0z" color="#000" overflow="visible" style="marker:none"/>
  <path fill="url(#an)" fill-rule="evenodd" stroke="#000" stroke-width=".96773535" d="m50.794994 175.68157.00025-3.87118c13.32369.62679 25.82727.64128 38.906 0v3.87118c-13.26834.83369-25.97732.79331-38.90625 0z" color="#000" overflow="visible" style="marker:none"/>
  <path fill="#fff" fill-rule="evenodd" stroke="#000" stroke-width=".96846628" d="M89.496744 146.83098c-8.60499 5.72956-29.82973 16.26592-38.7955 22.63718l.0828 5.69288c9.63609-7.14098 31.57526-17.0084 38.82347-22.76142z" color="#000" overflow="visible" style="marker:none"/>
  <path fill="url(#ao)" fill-rule="evenodd" stroke="#000" stroke-width=".96846628" d="M89.496744 146.83098c-8.60499 5.72956-29.82973 16.26592-38.7955 22.63718l.0828 5.69288c9.63609-7.14098 31.57526-17.0084 38.82347-22.76142z" color="#000" overflow="visible" style="marker:none"/>
  <path fill="url(#ap)" fill-rule="evenodd" stroke="#000" stroke-width=".96846628" d="M89.496744 146.83098c-8.60499 5.72956-29.82973 16.26592-38.7955 22.63718l.0828 5.69288c9.63609-7.14098 31.57526-17.0084 38.82347-22.76142z" color="#000" overflow="visible" style="marker:none"/>
  <path fill="none" stroke="#000" stroke-width=".97571284" d="m96.701244 90.640862-6.75.088m6.75-21.73162-6 .17596"/>
</svg>