<?xml version="1.0" encoding="utf-8"?>
<!-- Generator: Adobe Illustrator 14.0.0, SVG Export Plug-In . SVG Version: 6.00 Build 43363)  -->
<!DOCTYPE svg PUBLIC "-//W3C//DTD SVG 1.1//EN" "http://www.w3.org/Graphics/SVG/1.1/DTD/svg11.dtd">
<svg version="1.1" id="Layer_1" xmlns="http://www.w3.org/2000/svg" xmlns:xlink="http://www.w3.org/1999/xlink" x="0px" y="0px"
	 width="554px" height="385px" viewBox="0 0 554 385" enable-background="new 0 0 554 385" xml:space="preserve">
<g>
	<path fill="#FFFFFF" d="M19.947,12.284h514.105L277,366.086L19.947,12.284z M298.488,263.395L424.507,89.946l-126.019,60.488
		V263.395z M255.512,263.395v-112.96L129.494,89.946L255.512,263.395z M277,113.079l120.456-57.819H156.543L277,113.079z"/>
	<path fill="#0B7279" d="M515.496,21.738L277,350L38.503,21.738H515.496 M439.003,45.805H114.998L277,123.566L439.003,45.805
		 M454.15,65.229l-165.117,79.256v148.009L454.15,65.229 M264.967,292.494V144.485L99.85,65.229L264.967,292.494 M552.608,2.829
		h-37.112H38.503H1.392l21.814,30.023l238.497,328.263L277,382.172l15.299-21.057L530.795,32.852L552.608,2.829L552.608,2.829z"/>
</g>
</svg>
