<svg id="svg" version="1.1" xmlns="http://www.w3.org/2000/svg" xmlns:xlink="http://www.w3.org/1999/xlink" width="400" height="240" viewBox="0, 0, 400,240"><g id="svgg"><path id="path0" d="M198.977 41.877 C 197.404 44.978,195.054 49.487,194.461 50.540 C 194.089 51.200,193.716 51.903,193.631 52.101 C 193.547 52.299,193.089 53.217,192.613 54.142 C 192.138 55.066,191.004 57.281,190.094 59.064 C 188.420 62.342,187.843 63.451,187.475 64.106 C 187.363 64.304,187.097 64.844,186.884 65.306 C 186.671 65.768,186.403 66.309,186.289 66.507 C 185.781 67.388,182.416 73.825,180.442 77.691 C 178.278 81.931,177.841 81.633,186.205 81.633 C 192.167 81.633,193.003 81.679,193.132 82.012 C 193.419 82.762,193.296 143.057,193.007 143.236 C 192.567 143.508,149.820 100.592,149.820 99.879 C 149.820 99.454,151.081 98.032,154.682 94.396 L 159.544 89.488 158.103 88.840 C 157.311 88.483,156.068 88.052,155.342 87.882 C 154.616 87.712,153.907 87.482,153.766 87.371 C 153.626 87.261,152.861 87.019,152.068 86.834 C 151.275 86.648,150.363 86.355,150.043 86.182 C 149.722 86.009,148.920 85.732,148.259 85.565 C 147.599 85.399,146.519 85.083,145.858 84.863 C 143.221 83.985,142.439 83.733,141.056 83.318 C 139.628 82.889,139.292 82.780,136.975 81.998 C 136.315 81.775,135.126 81.433,134.334 81.237 C 133.541 81.041,132.677 80.742,132.413 80.573 C 132.149 80.403,131.501 80.185,130.972 80.088 C 130.444 79.991,129.688 79.763,129.292 79.580 C 128.896 79.398,128.047 79.134,127.406 78.993 C 126.766 78.853,125.955 78.594,125.606 78.417 C 125.256 78.240,124.387 77.959,123.675 77.791 C 122.962 77.623,122.098 77.340,121.754 77.160 C 121.410 76.981,120.985 76.833,120.809 76.832 C 120.633 76.831,119.686 76.554,118.704 76.215 C 115.692 75.175,114.878 75.878,116.103 78.460 C 116.311 78.898,116.542 79.656,116.618 80.144 C 116.693 80.633,116.953 81.428,117.195 81.911 C 117.437 82.394,117.706 83.258,117.795 83.832 C 117.883 84.405,118.140 85.252,118.366 85.714 C 118.593 86.176,118.850 86.933,118.937 87.395 C 119.024 87.857,119.296 88.776,119.541 89.436 C 120.318 91.533,120.787 92.996,121.150 94.462 C 121.345 95.246,121.605 96.010,121.729 96.159 C 121.854 96.309,122.079 97.018,122.230 97.735 C 122.381 98.453,122.651 99.310,122.828 99.640 C 123.006 99.970,123.326 100.888,123.539 101.681 C 124.357 104.722,124.759 106.021,125.038 106.524 C 125.197 106.811,125.448 107.610,125.596 108.300 C 125.744 108.989,126.066 109.997,126.313 110.539 C 126.559 111.081,126.763 111.772,126.765 112.074 C 126.768 112.377,126.971 113.025,127.216 113.515 C 127.461 114.005,127.731 114.770,127.816 115.214 C 128.060 116.489,129.234 119.328,129.519 119.328 C 129.661 119.328,131.932 117.170,134.566 114.534 C 138.844 110.252,139.421 109.756,139.966 109.891 C 140.892 110.121,183.475 152.804,183.126 153.153 C 182.761 153.518,122.634 153.537,121.953 153.173 C 121.511 152.936,121.489 152.601,121.489 146.106 C 121.489 137.818,121.932 138.319,116.904 140.918 C 114.870 141.969,111.780 143.546,110.037 144.423 C 108.295 145.300,106.742 146.171,106.587 146.358 C 106.431 146.545,106.164 146.699,105.992 146.699 C 105.821 146.699,104.943 147.085,104.041 147.556 C 98.710 150.344,96.893 151.261,96.693 151.261 C 96.569 151.261,96.147 151.531,95.755 151.861 C 95.362 152.191,94.877 152.461,94.677 152.461 C 94.477 152.461,94.039 152.677,93.703 152.941 C 93.367 153.205,92.906 153.421,92.677 153.421 C 92.449 153.421,92.002 153.625,91.685 153.875 C 91.368 154.124,90.732 154.503,90.272 154.717 C 89.812 154.931,88.842 155.417,88.115 155.798 C 87.389 156.179,86.471 156.650,86.074 156.845 C 82.389 158.655,80.920 159.527,81.157 159.765 C 81.541 160.148,318.476 160.131,318.860 159.747 C 319.069 159.539,318.645 159.224,317.131 158.463 C 315.443 157.614,312.477 156.079,310.264 154.908 C 309.166 154.327,308.626 154.048,307.923 153.698 C 307.527 153.502,307.041 153.250,306.843 153.140 C 306.645 153.030,305.942 152.673,305.282 152.346 C 304.622 152.020,303.920 151.642,303.721 151.506 C 303.523 151.371,303.091 151.152,302.761 151.021 C 302.431 150.889,301.999 150.676,301.801 150.547 C 301.603 150.418,300.603 149.921,299.580 149.441 C 298.556 148.962,297.719 148.482,297.719 148.373 C 297.719 148.265,297.314 148.044,296.819 147.883 C 296.324 147.721,295.661 147.389,295.346 147.144 C 295.031 146.899,294.615 146.699,294.422 146.699 C 294.230 146.699,293.785 146.500,293.434 146.256 C 293.084 146.013,292.473 145.655,292.077 145.460 C 291.681 145.266,291.113 144.978,290.816 144.822 C 290.519 144.666,290.033 144.410,289.736 144.254 C 289.439 144.097,288.872 143.820,288.475 143.638 C 288.079 143.456,287.593 143.204,287.395 143.079 C 287.197 142.954,286.603 142.638,286.074 142.377 C 285.546 142.116,284.952 141.796,284.754 141.666 C 284.556 141.535,284.016 141.266,283.553 141.067 C 283.091 140.868,282.551 140.605,282.353 140.481 C 278.505 138.073,278.511 138.064,278.511 146.218 C 278.511 152.603,278.489 152.936,278.047 153.173 C 277.277 153.585,217.067 153.513,216.908 153.099 C 216.758 152.708,259.120 110.262,259.990 109.931 C 260.538 109.723,260.944 110.066,265.453 114.541 C 268.133 117.200,270.446 119.335,270.593 119.286 C 270.915 119.179,272.269 115.894,272.269 115.220 C 272.269 114.960,272.485 114.323,272.749 113.806 C 273.013 113.288,273.229 112.676,273.229 112.445 C 273.229 112.058,274.307 108.572,275.036 106.603 C 275.207 106.140,275.686 104.628,276.100 103.241 C 276.513 101.855,276.955 100.423,277.081 100.060 C 277.208 99.697,277.408 99.103,277.526 98.739 C 277.644 98.376,277.924 97.539,278.147 96.879 C 278.371 96.218,278.664 95.246,278.798 94.718 C 278.932 94.190,279.230 93.217,279.460 92.557 C 279.690 91.897,280.178 90.384,280.545 89.196 C 280.913 88.007,281.405 86.495,281.639 85.834 C 281.874 85.174,282.192 84.095,282.347 83.437 C 282.502 82.778,282.743 82.102,282.882 81.933 C 283.022 81.765,283.228 81.136,283.340 80.536 C 283.452 79.935,283.727 79.059,283.950 78.588 C 285.072 76.223,284.168 75.050,281.957 76.002 C 281.449 76.221,280.391 76.554,279.607 76.743 C 278.823 76.932,278.067 77.177,277.927 77.287 C 277.786 77.398,277.077 77.622,276.351 77.787 C 275.624 77.951,274.814 78.218,274.550 78.380 C 274.286 78.543,273.745 78.749,273.349 78.839 C 272.108 79.122,268.580 80.231,267.827 80.576 C 267.431 80.757,266.513 81.029,265.786 81.179 C 265.060 81.329,264.065 81.654,263.575 81.902 C 263.085 82.150,262.405 82.353,262.065 82.353 C 261.724 82.353,261.040 82.560,260.543 82.813 C 260.047 83.066,259.215 83.353,258.695 83.451 C 258.174 83.549,257.315 83.825,256.785 84.066 C 256.256 84.306,255.575 84.506,255.273 84.509 C 254.970 84.511,254.322 84.717,253.832 84.965 C 253.342 85.214,252.455 85.497,251.861 85.594 C 251.267 85.692,250.402 85.960,249.940 86.191 C 249.478 86.421,248.667 86.687,248.139 86.782 C 247.611 86.877,246.855 87.101,246.459 87.281 C 246.062 87.460,245.252 87.726,244.658 87.872 C 244.064 88.019,243.253 88.284,242.857 88.464 C 242.461 88.643,241.840 88.905,241.477 89.047 C 240.441 89.452,240.541 89.588,245.582 94.694 C 249.633 98.797,250.326 99.602,250.204 100.069 C 250.009 100.816,207.432 143.384,207.033 143.231 C 206.630 143.077,206.569 82.848,206.971 82.097 C 207.208 81.655,207.542 81.633,213.939 81.633 L 220.659 81.633 220.929 81.040 C 221.131 80.596,221.129 80.362,220.920 80.111 C 220.767 79.926,220.206 78.869,219.674 77.763 C 219.141 76.656,218.604 75.588,218.479 75.390 C 218.223 74.981,216.355 71.377,215.742 70.108 C 215.518 69.646,215.236 69.106,215.114 68.908 C 214.915 68.583,214.463 67.735,213.770 66.387 C 213.634 66.122,213.347 65.582,213.132 65.186 C 212.916 64.790,212.617 64.196,212.467 63.866 C 212.317 63.535,212.094 63.103,211.973 62.905 C 211.852 62.707,211.524 62.059,211.244 61.465 C 210.965 60.870,210.664 60.330,210.577 60.264 C 210.489 60.198,210.270 59.766,210.091 59.304 C 209.912 58.842,209.642 58.301,209.492 58.103 C 209.343 57.905,208.760 56.825,208.198 55.702 C 207.636 54.580,207.081 53.499,206.964 53.301 C 206.848 53.103,206.604 52.617,206.422 52.221 C 206.041 51.393,205.756 50.834,205.199 49.820 C 204.981 49.424,204.366 48.235,203.833 47.179 C 202.807 45.146,202.707 44.954,202.083 43.818 C 201.866 43.421,201.456 42.584,201.172 41.957 C 200.469 40.402,199.739 40.375,198.977 41.877 " stroke="none" fill="#f9f904" fill-rule="evenodd"></path><path id="path1" d="M0.000 120.048 L 0.000 240.096 200.000 240.096 L 400.000 240.096 400.000 120.048 L 400.000 0.000 200.000 0.000 L 0.000 0.000 0.000 120.048 M201.172 41.957 C 201.456 42.584,201.866 43.421,202.083 43.818 C 202.707 44.954,202.807 45.146,203.833 47.179 C 204.366 48.235,204.981 49.424,205.199 49.820 C 205.756 50.834,206.041 51.393,206.422 52.221 C 206.604 52.617,206.848 53.103,206.964 53.301 C 207.081 53.499,207.636 54.580,208.198 55.702 C 208.760 56.825,209.343 57.905,209.492 58.103 C 209.642 58.301,209.912 58.842,210.091 59.304 C 210.270 59.766,210.489 60.198,210.577 60.264 C 210.664 60.330,210.965 60.870,211.244 61.465 C 211.524 62.059,211.852 62.707,211.973 62.905 C 212.094 63.103,212.317 63.535,212.467 63.866 C 212.617 64.196,212.916 64.790,213.132 65.186 C 213.347 65.582,213.634 66.122,213.770 66.387 C 214.463 67.735,214.915 68.583,215.114 68.908 C 215.236 69.106,215.518 69.646,215.742 70.108 C 216.355 71.377,218.223 74.981,218.479 75.390 C 218.604 75.588,219.141 76.656,219.674 77.763 C 220.206 78.869,220.767 79.926,220.920 80.111 C 221.129 80.362,221.131 80.596,220.929 81.040 L 220.659 81.633 213.939 81.633 C 207.542 81.633,207.208 81.655,206.971 82.097 C 206.569 82.848,206.630 143.077,207.033 143.231 C 207.432 143.384,250.009 100.816,250.204 100.069 C 250.326 99.602,249.633 98.797,245.582 94.694 C 240.541 89.588,240.441 89.452,241.477 89.047 C 241.840 88.905,242.461 88.643,242.857 88.464 C 243.253 88.284,244.064 88.019,244.658 87.872 C 245.252 87.726,246.062 87.460,246.459 87.281 C 246.855 87.101,247.611 86.877,248.139 86.782 C 248.667 86.687,249.478 86.421,249.940 86.191 C 250.402 85.960,251.267 85.692,251.861 85.594 C 252.455 85.497,253.342 85.214,253.832 84.965 C 254.322 84.717,254.970 84.511,255.273 84.509 C 255.575 84.506,256.256 84.306,256.785 84.066 C 257.315 83.825,258.174 83.549,258.695 83.451 C 259.215 83.353,260.047 83.066,260.543 82.813 C 261.040 82.560,261.724 82.353,262.065 82.353 C 262.405 82.353,263.085 82.150,263.575 81.902 C 264.065 81.654,265.060 81.329,265.786 81.179 C 266.513 81.029,267.431 80.757,267.827 80.576 C 268.580 80.231,272.108 79.122,273.349 78.839 C 273.745 78.749,274.286 78.543,274.550 78.380 C 274.814 78.218,275.624 77.951,276.351 77.787 C 277.077 77.622,277.786 77.398,277.927 77.287 C 278.067 77.177,278.823 76.932,279.607 76.743 C 280.391 76.554,281.449 76.221,281.957 76.002 C 284.168 75.050,285.072 76.223,283.950 78.588 C 283.727 79.059,283.452 79.935,283.340 80.536 C 283.228 81.136,283.022 81.765,282.882 81.933 C 282.743 82.102,282.502 82.778,282.347 83.437 C 282.192 84.095,281.874 85.174,281.639 85.834 C 281.405 86.495,280.913 88.007,280.545 89.196 C 280.178 90.384,279.690 91.897,279.460 92.557 C 279.230 93.217,278.932 94.190,278.798 94.718 C 278.664 95.246,278.371 96.218,278.147 96.879 C 277.924 97.539,277.644 98.376,277.526 98.739 C 277.408 99.103,277.208 99.697,277.081 100.060 C 276.955 100.423,276.513 101.855,276.100 103.241 C 275.686 104.628,275.207 106.140,275.036 106.603 C 274.307 108.572,273.229 112.058,273.229 112.445 C 273.229 112.676,273.013 113.288,272.749 113.806 C 272.485 114.323,272.269 114.960,272.269 115.220 C 272.269 115.894,270.915 119.179,270.593 119.286 C 270.446 119.335,268.133 117.200,265.453 114.541 C 260.944 110.066,260.538 109.723,259.990 109.931 C 259.120 110.262,216.758 152.708,216.908 153.099 C 217.067 153.513,277.277 153.585,278.047 153.173 C 278.489 152.936,278.511 152.603,278.511 146.218 C 278.511 138.064,278.505 138.073,282.353 140.481 C 282.551 140.605,283.091 140.868,283.553 141.067 C 284.016 141.266,284.556 141.535,284.754 141.666 C 284.952 141.796,285.546 142.116,286.074 142.377 C 286.603 142.638,287.197 142.954,287.395 143.079 C 287.593 143.204,288.079 143.456,288.475 143.638 C 288.872 143.820,289.439 144.097,289.736 144.254 C 290.033 144.410,290.519 144.666,290.816 144.822 C 291.113 144.978,291.681 145.266,292.077 145.460 C 292.473 145.655,293.084 146.013,293.434 146.256 C 293.785 146.500,294.230 146.699,294.422 146.699 C 294.615 146.699,295.031 146.899,295.346 147.144 C 295.661 147.389,296.324 147.721,296.819 147.883 C 297.314 148.044,297.719 148.265,297.719 148.373 C 297.719 148.482,298.556 148.962,299.580 149.441 C 300.603 149.921,301.603 150.418,301.801 150.547 C 301.999 150.676,302.431 150.889,302.761 151.021 C 303.091 151.152,303.523 151.371,303.721 151.506 C 303.920 151.642,304.622 152.020,305.282 152.346 C 305.942 152.673,306.645 153.030,306.843 153.140 C 307.041 153.250,307.527 153.502,307.923 153.698 C 308.626 154.048,309.166 154.327,310.264 154.908 C 312.477 156.079,315.443 157.614,317.131 158.463 C 318.645 159.224,319.069 159.539,318.860 159.747 C 318.476 160.131,81.541 160.148,81.157 159.765 C 80.920 159.527,82.389 158.655,86.074 156.845 C 86.471 156.650,87.389 156.179,88.115 155.798 C 88.842 155.417,89.812 154.931,90.272 154.717 C 90.732 154.503,91.368 154.124,91.685 153.875 C 92.002 153.625,92.449 153.421,92.677 153.421 C 92.906 153.421,93.367 153.205,93.703 152.941 C 94.039 152.677,94.477 152.461,94.677 152.461 C 94.877 152.461,95.362 152.191,95.755 151.861 C 96.147 151.531,96.569 151.261,96.693 151.261 C 96.893 151.261,98.710 150.344,104.041 147.556 C 104.943 147.085,105.821 146.699,105.992 146.699 C 106.164 146.699,106.431 146.545,106.587 146.358 C 106.742 146.171,108.295 145.300,110.037 144.423 C 111.780 143.546,114.870 141.969,116.904 140.918 C 121.932 138.319,121.489 137.818,121.489 146.106 C 121.489 152.601,121.511 152.936,121.953 153.173 C 122.634 153.537,182.761 153.518,183.126 153.153 C 183.475 152.804,140.892 110.121,139.966 109.891 C 139.421 109.756,138.844 110.252,134.566 114.534 C 131.932 117.170,129.661 119.328,129.519 119.328 C 129.234 119.328,128.060 116.489,127.816 115.214 C 127.731 114.770,127.461 114.005,127.216 113.515 C 126.971 113.025,126.768 112.377,126.765 112.074 C 126.763 111.772,126.559 111.081,126.313 110.539 C 126.066 109.997,125.744 108.989,125.596 108.300 C 125.448 107.610,125.197 106.811,125.038 106.524 C 124.759 106.021,124.357 104.722,123.539 101.681 C 123.326 100.888,123.006 99.970,122.828 99.640 C 122.651 99.310,122.381 98.453,122.230 97.735 C 122.079 97.018,121.854 96.309,121.729 96.159 C 121.605 96.010,121.345 95.246,121.150 94.462 C 120.787 92.996,120.318 91.533,119.541 89.436 C 119.296 88.776,119.024 87.857,118.937 87.395 C 118.850 86.933,118.593 86.176,118.366 85.714 C 118.140 85.252,117.883 84.405,117.795 83.832 C 117.706 83.258,117.437 82.394,117.195 81.911 C 116.953 81.428,116.693 80.633,116.618 80.144 C 116.542 79.656,116.311 78.898,116.103 78.460 C 114.878 75.878,115.692 75.175,118.704 76.215 C 119.686 76.554,120.633 76.831,120.809 76.832 C 120.985 76.833,121.410 76.981,121.754 77.160 C 122.098 77.340,122.962 77.623,123.675 77.791 C 124.387 77.959,125.256 78.240,125.606 78.417 C 125.955 78.594,126.766 78.853,127.406 78.993 C 128.047 79.134,128.896 79.398,129.292 79.580 C 129.688 79.763,130.444 79.991,130.972 80.088 C 131.501 80.185,132.149 80.403,132.413 80.573 C 132.677 80.742,133.541 81.041,134.334 81.237 C 135.126 81.433,136.315 81.775,136.975 81.998 C 139.292 82.780,139.628 82.889,141.056 83.318 C 142.439 83.733,143.221 83.985,145.858 84.863 C 146.519 85.083,147.599 85.399,148.259 85.565 C 148.920 85.732,149.722 86.009,150.043 86.182 C 150.363 86.355,151.275 86.648,152.068 86.834 C 152.861 87.019,153.626 87.261,153.766 87.371 C 153.907 87.482,154.616 87.712,155.342 87.882 C 156.068 88.052,157.311 88.483,158.103 88.840 L 159.544 89.488 154.682 94.396 C 151.081 98.032,149.820 99.454,149.820 99.879 C 149.820 100.592,192.567 143.508,193.007 143.236 C 193.296 143.057,193.419 82.762,193.132 82.012 C 193.003 81.679,192.167 81.633,186.205 81.633 C 177.841 81.633,178.278 81.931,180.442 77.691 C 182.416 73.825,185.781 67.388,186.289 66.507 C 186.403 66.309,186.671 65.768,186.884 65.306 C 187.097 64.844,187.363 64.304,187.475 64.106 C 187.843 63.451,188.420 62.342,190.094 59.064 C 191.004 57.281,192.138 55.066,192.613 54.142 C 193.089 53.217,193.547 52.299,193.631 52.101 C 193.716 51.903,194.089 51.200,194.461 50.540 C 195.054 49.487,197.404 44.978,198.977 41.877 C 199.739 40.375,200.469 40.402,201.172 41.957 " stroke="none" fill="#040404" fill-rule="evenodd"></path></g></svg>