<svg width="535" height="647" version="1.0" xmlns="http://www.w3.org/2000/svg">
<path d="M.5.5H398.77A132.55 135.59 0 0 0 531.74 118.63V382A580 315 0 0 1 267.5 646.5 580 315 0 0 1 .5 382Z" fill="#F9F9F9" stroke="#000"/>
<path d="M18.5 18.5H380.77A150.55 153.59 0 0 0 513.74 136.63V382A540 297 0 0 1 267.5 628a540 297 0 0 1-249-246Z"/>
<path d="M102.6 95.8h55.6V335.6L233 284.4V140.6h62V241.8L431 145V486.9H368.8V265.1L296 314.8V446.6H232.6V360l-130 91.53Z" fill="none" stroke="#FFF" stroke-width="11"/>
</svg>