<?xml version="1.0" encoding="UTF-8" standalone="no"?>
<!-- Created with Inkscape (http://www.inkscape.org/) -->

<svg
   xmlns:dc="http://purl.org/dc/elements/1.1/"
   xmlns:cc="http://creativecommons.org/ns#"
   xmlns:rdf="http://www.w3.org/1999/02/22-rdf-syntax-ns#"
   xmlns:svg="http://www.w3.org/2000/svg"
   xmlns="http://www.w3.org/2000/svg"
   xmlns:sodipodi="http://sodipodi.sourceforge.net/DTD/sodipodi-0.dtd"
   xmlns:inkscape="http://www.inkscape.org/namespaces/inkscape"
   version="1.1"
   id="svg815"
   xml:space="preserve"
   width="450"
   height="250.00002"
   viewBox="0 0 449.99999 250.00001"
   sodipodi:docname="BBB logo.svg"
   inkscape:version="0.92.3 (2405546, 2018-03-11)"><metadata
     id="metadata821"><rdf:RDF><cc:Work
         rdf:about=""><dc:format>image/svg+xml</dc:format><dc:type
           rdf:resource="http://purl.org/dc/dcmitype/StillImage" /><dc:title></dc:title></cc:Work></rdf:RDF></metadata><defs
     id="defs819"><radialGradient
       fx="0"
       fy="0"
       cx="0"
       cy="0"
       r="1"
       gradientUnits="userSpaceOnUse"
       gradientTransform="matrix(306.14173,0,0,-306.14173,297.63771,203.08149)"
       spreadMethod="pad"
       id="radialGradient841"><stop
         style="stop-opacity:1;stop-color:#ffffff"
         offset="0"
         id="stop837" /><stop
         style="stop-opacity:1;stop-color:#dee9bb"
         offset="1"
         id="stop839" /></radialGradient><clipPath
       clipPathUnits="userSpaceOnUse"
       id="clipPath855"><path
         d="M 0,0 H 595.276 V 419.528 H 0 Z"
         id="path853"
         inkscape:connector-curvature="0" /></clipPath><clipPath
       clipPathUnits="userSpaceOnUse"
       id="clipPath1047"><path
         d="M 0,0 H 595.276 V 419.528 H 0 Z"
         id="path1045"
         inkscape:connector-curvature="0" /></clipPath><clipPath
       clipPathUnits="userSpaceOnUse"
       id="clipPath1223"><path
         d="M 0,0 H 595.276 V 419.528 H 0 Z"
         id="path1221"
         inkscape:connector-curvature="0" /></clipPath></defs><sodipodi:namedview
     pagecolor="#ffffff"
     bordercolor="#666666"
     borderopacity="1"
     objecttolerance="10"
     gridtolerance="10"
     guidetolerance="10"
     inkscape:pageopacity="0"
     inkscape:pageshadow="2"
     inkscape:window-width="1920"
     inkscape:window-height="991"
     id="namedview817"
     showgrid="false"
     fit-margin-top="0"
     fit-margin-left="0"
     fit-margin-right="0"
     fit-margin-bottom="0"
     inkscape:zoom="1.7748123"
     inkscape:cx="141.37634"
     inkscape:cy="149.96104"
     inkscape:window-x="-10"
     inkscape:window-y="-10"
     inkscape:window-maximized="1"
     inkscape:current-layer="g1322" /><g
     id="g823"
     inkscape:groupmode="layer"
     inkscape:label="BBB_Kandidaten_Flyer_Caroline-van-der-Plas"
     transform="matrix(1.3333333,0,0,-1.3333333,-49.050916,-418.00663)"><g
       id="g1322"
       transform="translate(45.418987,-143.42838)"><g
         id="g1332"
         transform="matrix(2.4006151,0,0,2.4006151,-61.078721,-410.19091)"
         style="stroke-width:0.41655988"><path
           inkscape:connector-curvature="0"
           id="path867"
           style="fill:#95c11f;fill-opacity:1;fill-rule:nonzero;stroke:none;stroke-width:0.41655988"
           d="m 76.7477,81.8352 0.022,-0.022 -1.644,-1.645 c -0.839,-0.838 -2.196,-0.841 -3.031,-0.005 l -1.638,1.639 c -1.742,1.74 -1.737,4.567 0.011,6.313 l -0.023,0.022 c 1.747,1.748 4.574,1.753 6.314,0.012 1.74,-1.741 1.735,-4.568 -0.011,-6.314 m 11.452,-11.453 0.023,-0.022 c -1.747,-1.746 -4.573,-1.751 -6.314,-0.011 l -1.639,1.638 c -0.835,0.836 -0.833,2.193 0.005,3.031 l 1.645,1.644 -0.022,0.023 c 1.747,1.747 4.573,1.752 6.314,0.011 1.74,-1.74 1.735,-4.567 -0.012,-6.314 m -14.593,26.045 c -6.339,-0.004 -11.471,-5.136 -11.475,-11.475 v -21.118 c 0,-0.988 0.8,-1.789 1.789,-1.789 h 21.118 c 6.336,-0.006 11.475,5.133 11.475,11.475 0,6.323 -5.115,11.448 -11.43,11.478 -0.023,6.309 -5.155,11.429 -11.477,11.429" /><path
           inkscape:connector-curvature="0"
           id="path871"
           style="fill:#95c11f;fill-opacity:1;fill-rule:nonzero;stroke:none;stroke-width:0.41655988"
           d="m 45.3636,40.104 -0.022,0.022 1.644,1.645 c 0.839,0.838 2.196,0.841 3.031,0.005 l 1.638,-1.639 c 1.742,-1.74 1.737,-4.567 -0.011,-6.313 l 0.023,-0.022 c -1.747,-1.748 -4.574,-1.753 -6.314,-0.012 -1.74,1.741 -1.735,4.568 0.011,6.314 m -11.452,11.453 -0.023,0.022 c 1.747,1.746 4.573,1.751 6.314,0.011 l 1.639,-1.638 c 0.835,-0.836 0.833,-2.193 -0.005,-3.031 l -1.645,-1.644 0.022,-0.023 c -1.747,-1.747 -4.573,-1.752 -6.313,-0.011 -1.741,1.74 -1.736,4.567 0.011,6.314 m 14.593,-26.045 c 6.339,0.004 11.471,5.136 11.475,11.475 v 21.118 c 0,0.987 -0.8,1.789 -1.789,1.789 h -21.118 c -6.336,0.006 -11.475,-5.133 -11.475,-11.475 0,-6.323 5.115,-11.448 11.43,-11.478 0.023,-6.309 5.155,-11.429 11.477,-11.429" /><path
           inkscape:connector-curvature="0"
           id="path875"
           style="fill:#95c11f;fill-opacity:1;fill-rule:nonzero;stroke:none;stroke-width:0.41655988"
           d="m 45.3531,88.1487 c 1.74,1.741 4.567,1.736 6.313,-0.011 l -0.022,-0.022 c 1.747,-1.746 1.752,-4.573 0.011,-6.314 l -1.639,-1.639 c -0.834,-0.835 -2.191,-0.833 -3.03,0.005 l -1.645,1.646 0.023,0.022 c -1.747,1.746 -1.752,4.573 -0.011,6.313 m -11.453,-11.452 c 1.74,1.74 4.567,1.735 6.313,-0.011 l -0.022,-0.023 1.645,-1.644 c 0.838,-0.839 0.841,-2.196 0.006,-3.031 l -1.64,-1.638 c -1.74,-1.741 -4.567,-1.736 -6.313,0.011 l 0.022,0.022 c -1.746,1.747 -1.751,4.574 -0.011,6.314 m 3.128,8.302 c -6.316,-0.03 -11.43,-5.156 -11.43,-11.478 0,-6.343 5.138,-11.481 11.475,-11.475 h 21.118 c 0.988,0 1.789,0.8 1.789,1.789 v 21.118 c -0.005,6.338 -5.137,11.47 -11.475,11.475 -6.322,0 -11.455,-5.121 -11.477,-11.429" /><path
           inkscape:connector-curvature="0"
           id="path879"
           style="fill:#95c11f;fill-opacity:1;fill-rule:nonzero;stroke:none;stroke-width:0.41655988"
           d="m 83.3619,36.3203 c 0,-1.016 -0.391,-1.792 -1.18,-2.336 -0.782,-0.538 -1.914,-0.806 -3.388,-0.806 h -4.124 -1.125 c -1.186,0.016 -2.134,0.988 -2.117,2.167 v 4.164 h 7.269 c 1.604,0 2.783,-0.276 3.539,-0.831 0.751,-0.56 1.126,-1.311 1.126,-2.263 z m -11.934,15.912 h 6.19 c 1.439,0 2.519,-0.252 3.241,-0.764 0.721,-0.503 1.081,-1.231 1.081,-2.182 v -0.096 c 0,-1.015 -0.384,-1.771 -1.156,-2.263 -0.768,-0.491 -1.891,-0.735 -3.366,-0.735 h -5.99 z m 19.616,-11.716 c -1.231,1.295 -2.898,2.287 -5,2.973 1.531,0.656 2.79,1.6 3.785,2.823 0.996,1.231 1.492,2.842 1.492,4.84 v 0.1 c 0,1.176 -0.197,2.223 -0.589,3.142 -0.39,0.915 -0.931,1.719 -1.619,2.406 -1.015,1.016 -2.29,1.782 -3.825,2.31 -1.534,0.519 -3.385,0.783 -5.539,0.783 h -10.579 -5.236 c -0.986,0 -1.788,-0.8 -1.788,-1.789 v -5.768 -15.357 c 0.007,-6.32 5.112,-11.435 11.426,-11.468 h 6.305 c 4.125,0 7.327,0.839 9.6,2.506 2.275,1.67 3.414,3.994 3.414,6.975 v 0.097 c 0,2.326 -0.616,4.136 -1.847,5.427" /><path
           inkscape:connector-curvature="0"
           id="path883"
           style="fill:#95c11f;fill-opacity:1;fill-rule:nonzero;stroke:none;stroke-width:0.41655988"
           d="m 149.1568,36.3203 c 0,-1.016 -0.391,-1.792 -1.18,-2.336 -0.782,-0.538 -1.914,-0.806 -3.388,-0.806 h -4.124 -1.125 c -1.186,0.016 -2.134,0.988 -2.117,2.167 v 4.164 h 7.269 c 1.604,0 2.783,-0.276 3.539,-0.831 0.751,-0.56 1.126,-1.311 1.126,-2.263 z m -11.934,15.912 h 6.19 c 1.439,0 2.519,-0.252 3.242,-0.764 0.72,-0.503 1.08,-1.231 1.08,-2.182 v -0.096 c 0,-1.015 -0.384,-1.771 -1.156,-2.263 -0.768,-0.491 -1.891,-0.735 -3.366,-0.735 h -5.99 z m 19.616,-11.716 c -1.23,1.295 -2.898,2.287 -4.999,2.973 1.53,0.656 2.789,1.6 3.785,2.823 0.995,1.231 1.491,2.842 1.491,4.84 v 0.1 c 0,1.176 -0.197,2.223 -0.589,3.142 -0.391,0.915 -0.931,1.719 -1.619,2.406 -1.015,1.016 -2.29,1.782 -3.825,2.31 -1.534,0.519 -3.385,0.783 -5.538,0.783 h -10.58 -5.234 c -0.988,0 -1.79,-0.8 -1.79,-1.789 v -5.768 -15.357 c 0.006,-6.32 5.112,-11.435 11.426,-11.468 h 6.305 c 4.124,0 7.327,0.839 9.601,2.506 2.274,1.67 3.414,3.994 3.414,6.975 v 0.097 c 0,2.326 -0.617,4.136 -1.848,5.427" /><path
           inkscape:connector-curvature="0"
           id="path887"
           style="fill:#95c11f;fill-opacity:1;fill-rule:nonzero;stroke:none;stroke-width:0.41655988"
           d="m 116.2595,36.3203 c 0,-1.016 -0.392,-1.792 -1.18,-2.336 -0.783,-0.538 -1.914,-0.806 -3.388,-0.806 h -4.124 -1.125 c -1.186,0.016 -2.135,0.988 -2.118,2.167 v 4.164 h 7.27 c 1.604,0 2.783,-0.276 3.538,-0.831 0.752,-0.56 1.127,-1.311 1.127,-2.263 z m -11.935,15.912 h 6.191 c 1.439,0 2.518,-0.252 3.241,-0.764 0.721,-0.503 1.08,-1.231 1.08,-2.182 v -0.096 c 0,-1.015 -0.383,-1.771 -1.155,-2.263 -0.768,-0.491 -1.891,-0.735 -3.366,-0.735 h -5.991 z m 19.617,-11.716 c -1.231,1.295 -2.899,2.287 -5,2.973 1.531,0.656 2.79,1.6 3.786,2.823 0.994,1.231 1.491,2.842 1.491,4.84 v 0.1 c 0,1.176 -0.197,2.223 -0.589,3.142 -0.391,0.915 -0.932,1.719 -1.619,2.406 -1.015,1.016 -2.29,1.782 -3.825,2.31 -1.535,0.519 -3.385,0.783 -5.54,0.783 h -10.578 -5.237 c -0.986,0 -1.787,-0.8 -1.787,-1.789 v -5.768 -15.357 c 0.006,-6.32 5.112,-11.435 11.425,-11.468 h 6.306 c 4.124,0 7.327,0.839 9.6,2.506 2.275,1.67 3.414,3.994 3.414,6.975 v 0.097 c 0,2.326 -0.616,4.136 -1.847,5.427" /></g></g></g></svg>